<?xml version="1.0" encoding="utf-8"?>
<!-- Generator: Adobe Illustrator 23.0.1, SVG Export Plug-In . SVG Version: 6.00 Build 0)  -->
<svg version="1.1" xmlns="http://www.w3.org/2000/svg" xmlns:xlink="http://www.w3.org/1999/xlink" x="0px" y="0px"
	 viewBox="0 0 344.4 193.6" style="enable-background:new 0 0 344.4 193.6;" xml:space="preserve">
<style type="text/css">
	.st0{fill:#DABA56;}
	.st1{clip-path:url(#SVGID_7_);}
	.st2{clip-path:url(#SVGID_8_);fill:#EA984B;}
	.st3{clip-path:url(#SVGID_11_);}
	.st4{clip-path:url(#SVGID_12_);fill:#EA984B;}
	.st5{clip-path:url(#SVGID_15_);}
	.st6{clip-path:url(#SVGID_16_);fill:#EA984B;}
	.st7{clip-path:url(#SVGID_19_);}
	.st8{clip-path:url(#SVGID_20_);fill:#EA984B;}
	.st9{clip-path:url(#SVGID_23_);}
	.st10{clip-path:url(#SVGID_24_);fill:#EA984B;}
	.st11{clip-path:url(#SVGID_27_);}
	.st12{clip-path:url(#SVGID_28_);fill:#EA984B;}
	.st13{clip-path:url(#SVGID_31_);}
	.st14{clip-path:url(#SVGID_32_);fill:#EA984B;}
	.st15{enable-background:new    ;}
	.st16{fill:#EA984B;}
	.st17{display:none;}
	.st18{display:inline;}
	.st19{clip-path:url(#SVGID_37_);}
	.st20{clip-path:url(#SVGID_38_);fill:#EA984B;}
	.st21{clip-path:url(#SVGID_41_);}
	.st22{clip-path:url(#SVGID_42_);fill:#EA984B;}
	.st23{clip-path:url(#SVGID_45_);}
	.st24{clip-path:url(#SVGID_46_);fill:#EA984B;}
	.st25{clip-path:url(#SVGID_49_);}
	.st26{clip-path:url(#SVGID_50_);fill:#EA984B;}
	.st27{clip-path:url(#SVGID_53_);}
	.st28{clip-path:url(#SVGID_54_);fill:#EA984B;}
	.st29{clip-path:url(#SVGID_57_);}
	.st30{clip-path:url(#SVGID_58_);fill:#EA984B;}
	.st31{clip-path:url(#SVGID_61_);}
	.st32{clip-path:url(#SVGID_62_);fill:#EA984B;}
	.st33{clip-path:url(#SVGID_65_);}
	.st34{clip-path:url(#SVGID_66_);fill:#EA984B;}
	.st35{clip-path:url(#SVGID_69_);}
	.st36{clip-path:url(#SVGID_70_);fill:#EA984B;}
	.st37{clip-path:url(#SVGID_73_);}
	.st38{clip-path:url(#SVGID_74_);fill:#EA984B;}
	.st39{clip-path:url(#SVGID_77_);}
	.st40{clip-path:url(#SVGID_78_);fill:#EA984B;}
	.st41{clip-path:url(#SVGID_81_);}
	.st42{clip-path:url(#SVGID_82_);fill:#EA984B;}
	.st43{clip-path:url(#SVGID_85_);}
	.st44{clip-path:url(#SVGID_86_);fill:#EA984B;}
	.st45{clip-path:url(#SVGID_89_);}
	.st46{clip-path:url(#SVGID_90_);fill:#EA984B;}
	.st47{opacity:0.59;}
	.st48{opacity:0.59;fill:#FFFFFF;enable-background:new    ;}
	.st49{font-family:'Roboto-Bold';}
	.st50{font-size:64.6692px;}
</style>
<g id="Layer_3">
	<path class="st0" d="M79.5,185h1l1.4,4l0.5,1.5l0,0c0.1-0.1,0.1-0.3,0.2-0.6c0.1-0.4,0.2-0.7,0.3-0.9l1.4-4h1v7.2h-0.8V188
		c0-0.4,0-1.1,0.1-2.1l0,0l-0.6,1.6l-1.4,3.9H82l-1.4-3.9l-0.6-1.6l0,0v0.3c0.1,0.8,0.1,1.4,0.1,1.8v4.2h-0.7L79.5,185L79.5,185z
		 M89.5,192.3c-0.4,0-0.8-0.1-1.2-0.3c-0.4-0.2-0.7-0.5-0.9-1c-0.2-0.4-0.3-0.9-0.3-1.5s0.1-1.1,0.3-1.5c0.2-0.4,0.5-0.7,0.9-1
		c0.4-0.2,0.8-0.3,1.2-0.3c0.4,0,0.8,0.1,1.2,0.3c0.4,0.2,0.7,0.5,0.9,1c0.2,0.4,0.3,0.9,0.3,1.5s-0.1,1.1-0.3,1.5
		c-0.2,0.4-0.5,0.7-0.9,1C90.4,192.2,90,192.3,89.5,192.3z M89.5,191.7c0.3,0,0.6-0.1,0.8-0.3c0.2-0.2,0.4-0.4,0.6-0.7
		c0.1-0.3,0.2-0.7,0.2-1.1s-0.1-0.8-0.2-1.1s-0.3-0.6-0.6-0.7c-0.2-0.2-0.5-0.3-0.8-0.3s-0.6,0.1-0.8,0.3c-0.2,0.2-0.4,0.4-0.6,0.7
		c-0.1,0.3-0.2,0.7-0.2,1.1c0,0.6,0.2,1.2,0.5,1.5C88.7,191.5,89.1,191.7,89.5,191.7z M93.5,186.9h0.7l0.1,0.8l0,0
		c0.3-0.3,0.6-0.5,0.9-0.7s0.6-0.2,0.9-0.2c0.6,0,1,0.2,1.2,0.5c0.3,0.3,0.4,0.9,0.4,1.6v3.4h-0.8V189c0-0.5-0.1-0.9-0.3-1.1
		c-0.2-0.2-0.4-0.4-0.8-0.4c-0.3,0-0.5,0.1-0.7,0.2c-0.2,0.1-0.5,0.3-0.8,0.6v3.9h-0.8L93.5,186.9L93.5,186.9z"/>
	<path class="st0" d="M126.6,185.7h-2.2V185h5.2v0.7h-2.2v6.5h-0.8V185.7z M132,192.3c-0.6,0-1-0.2-1.2-0.5
		c-0.3-0.4-0.4-0.9-0.4-1.6v-3.4h0.8v3.3c0,0.5,0.1,0.9,0.3,1.1c0.2,0.2,0.4,0.4,0.8,0.4c0.3,0,0.5-0.1,0.7-0.2
		c0.2-0.1,0.5-0.4,0.8-0.7v-3.8h0.8v5.3h-0.7l-0.1-0.8l0,0c-0.3,0.3-0.5,0.6-0.8,0.7C132.7,192.3,132.4,192.3,132,192.3z
		 M140.6,189.2c0,0.2,0,0.4,0,0.5h-3.7c0,0.6,0.2,1.1,0.6,1.5c0.4,0.3,0.8,0.5,1.3,0.5s0.9-0.1,1.4-0.4l0.3,0.5
		c-0.3,0.2-0.5,0.3-0.8,0.4c-0.3,0.1-0.6,0.1-0.9,0.1c-0.5,0-0.9-0.1-1.3-0.3c-0.4-0.2-0.7-0.6-0.9-1c-0.2-0.4-0.3-0.9-0.3-1.5
		s0.1-1,0.3-1.5c0.2-0.4,0.5-0.8,0.9-1c0.4-0.2,0.8-0.4,1.2-0.4c0.7,0,1.2,0.2,1.5,0.7C140.4,187.9,140.6,188.5,140.6,189.2z
		 M139.9,189.1c0-0.6-0.1-1-0.4-1.3s-0.6-0.5-1-0.5c-0.4,0-0.7,0.1-1.1,0.5c-0.4,0.4-0.5,0.7-0.6,1.3H139.9z"/>
	<path class="st0" d="M167.7,185h0.8l0.8,4l0.4,2.3l0,0c0.1-0.5,0.3-1.3,0.5-2.3l1-4h0.7l1,4c0.1,0.4,0.2,0.7,0.2,0.9l0.3,1.5l0,0
		l0.1-0.6c0.1-0.7,0.2-1.3,0.3-1.7l0.8-4h0.8l-1.5,7.2h-1l-1.2-4.5c0-0.1-0.1-0.3-0.1-0.4c0-0.1,0-0.2-0.1-0.3
		c-0.1-0.3-0.1-0.6-0.2-1l0,0l-0.4,1.6l-1.1,4.5h-1L167.7,185z M181.1,189.2c0,0.2,0,0.4,0,0.5h-3.7c0,0.6,0.2,1.1,0.6,1.5
		c0.4,0.3,0.8,0.5,1.3,0.5s0.9-0.1,1.4-0.4l0.3,0.5c-0.3,0.2-0.5,0.3-0.8,0.4c-0.3,0.1-0.6,0.1-0.9,0.1c-0.5,0-0.9-0.1-1.3-0.3
		c-0.4-0.2-0.7-0.6-0.9-1s-0.3-0.9-0.3-1.5s0.1-1,0.3-1.5c0.2-0.4,0.5-0.8,0.9-1s0.8-0.4,1.2-0.4c0.7,0,1.2,0.2,1.5,0.7
		C180.9,187.9,181.1,188.5,181.1,189.2z M180.4,189.1c0-0.6-0.1-1-0.4-1.3s-0.6-0.5-1-0.5s-0.7,0.1-1.1,0.5s-0.5,0.7-0.6,1.3H180.4z
		 M184.4,192.3c-0.7,0-1.2-0.2-1.6-0.7c-0.4-0.5-0.6-1.2-0.6-2.1c0-0.6,0.1-1,0.3-1.5c0.2-0.4,0.5-0.8,0.8-1
		c0.4-0.2,0.7-0.4,1.2-0.4c0.3,0,0.5,0.1,0.8,0.2c0.2,0.1,0.5,0.3,0.7,0.5v-0.9v-2.1h0.8v7.9h-0.7l-0.1-0.6l0,0
		c-0.2,0.2-0.5,0.4-0.8,0.6C185,192.3,184.7,192.3,184.4,192.3z M184.5,191.7c0.3,0,0.5-0.1,0.7-0.2c0.2-0.1,0.5-0.3,0.7-0.6V188
		c-0.2-0.2-0.5-0.4-0.7-0.4c-0.2-0.1-0.4-0.1-0.7-0.1s-0.6,0.1-0.8,0.3s-0.4,0.4-0.6,0.8c-0.1,0.3-0.2,0.7-0.2,1.1
		c0,0.7,0.1,1.2,0.4,1.6C183.7,191.5,184,191.7,184.5,191.7z"/>
	<path class="st0" d="M217.1,185.7h-2.2V185h5.2v0.7h-2.2v6.5h-0.8V185.7z M221.5,184.4h0.8v2.2v1.1c0.3-0.3,0.6-0.5,0.9-0.7
		c0.3-0.2,0.6-0.2,0.9-0.2c0.6,0,1,0.2,1.2,0.5c0.3,0.3,0.4,0.9,0.4,1.6v3.4h-0.8V189c0-0.5-0.1-0.9-0.3-1.1
		c-0.2-0.2-0.4-0.4-0.8-0.4c-0.3,0-0.5,0.1-0.7,0.2c-0.2,0.1-0.5,0.3-0.8,0.6v3.9h-0.8L221.5,184.4L221.5,184.4z M229.1,192.3
		c-0.6,0-1-0.2-1.2-0.5c-0.3-0.4-0.4-0.9-0.4-1.6v-3.4h0.8v3.3c0,0.5,0.1,0.9,0.3,1.1c0.2,0.2,0.4,0.4,0.8,0.4
		c0.3,0,0.5-0.1,0.7-0.2c0.2-0.1,0.5-0.4,0.8-0.7v-3.8h0.8v5.3H231l-0.1-0.8l0,0c-0.3,0.3-0.5,0.6-0.8,0.7
		C229.7,192.3,229.4,192.3,229.1,192.3z"/>
	<path class="st0" d="M263.7,185h4.1v0.7h-3.3v2.6h2.8v0.7h-2.8v3.3h-0.8V185z M268.9,186.9h0.7l0.1,1l0,0c0.2-0.3,0.4-0.6,0.7-0.8
		c0.3-0.2,0.5-0.3,0.8-0.3c0.2,0,0.4,0,0.5,0.1l-0.2,0.7c-0.2-0.1-0.4-0.1-0.5-0.1c-0.2,0-0.5,0.1-0.7,0.3c-0.2,0.2-0.5,0.5-0.6,1
		v3.5h-0.8V186.9z M272.7,186.9h0.8v5.3h-0.8V186.9z M273.1,185.7c-0.2,0-0.3-0.1-0.4-0.2c-0.1-0.1-0.2-0.2-0.2-0.4s0.1-0.3,0.2-0.4
		c0.1-0.1,0.2-0.2,0.4-0.2c0.2,0,0.3,0.1,0.4,0.2c0.1,0.1,0.2,0.2,0.2,0.4s-0.1,0.3-0.2,0.4S273.3,185.7,273.1,185.7z"/>
	<path class="st0" d="M310,192.3c-0.5,0-1-0.1-1.4-0.3s-0.8-0.5-1.1-0.8l0.5-0.6c0.3,0.3,0.6,0.5,0.9,0.7c0.4,0.2,0.7,0.2,1.1,0.2
		c0.5,0,0.9-0.1,1.2-0.3c0.3-0.2,0.4-0.5,0.4-0.9c0-0.2-0.1-0.4-0.2-0.6c-0.1-0.2-0.2-0.3-0.4-0.4c-0.2-0.1-0.4-0.2-0.7-0.3l-1-0.5
		c-0.4-0.2-0.8-0.4-1.1-0.7c-0.3-0.3-0.4-0.7-0.4-1.1c0-0.4,0.1-0.7,0.3-1c0.2-0.3,0.5-0.5,0.8-0.7s0.7-0.2,1.1-0.2s0.8,0.1,1.2,0.2
		c0.4,0.2,0.7,0.4,0.9,0.6l-0.4,0.5c-0.5-0.5-1-0.7-1.7-0.7c-0.4,0-0.8,0.1-1,0.3c-0.3,0.2-0.4,0.5-0.4,0.8c0,0.2,0.1,0.4,0.2,0.6
		c0.1,0.2,0.3,0.3,0.4,0.4c0.2,0.1,0.4,0.2,0.6,0.3l1,0.5c0.5,0.2,0.8,0.4,1.1,0.7c0.3,0.3,0.4,0.7,0.4,1.2c0,0.4-0.1,0.7-0.3,1
		c-0.2,0.3-0.5,0.5-0.8,0.7C310.9,192.3,310.5,192.3,310,192.3z M315.1,192.3c-0.5,0-0.8-0.1-1.1-0.4s-0.4-0.6-0.4-1.1
		c0-0.6,0.3-1,0.8-1.3s1.4-0.5,2.5-0.7c0-0.4-0.1-0.8-0.3-1c-0.2-0.3-0.5-0.4-0.9-0.4c-0.5,0-1,0.2-1.6,0.6l-0.3-0.5
		c0.7-0.5,1.4-0.7,2.1-0.7c0.6,0,1.1,0.2,1.4,0.6c0.3,0.4,0.4,0.9,0.4,1.6v3.3H317l-0.1-0.6l0,0
		C316.3,192.1,315.7,192.3,315.1,192.3z M315.3,191.7c0.3,0,0.5-0.1,0.7-0.2c0.2-0.1,0.5-0.3,0.8-0.6v-1.6c-0.9,0.1-1.6,0.3-2,0.5
		s-0.6,0.5-0.6,0.9c0,0.3,0.1,0.5,0.3,0.7C314.8,191.6,315,191.7,315.3,191.7z M321,192.3c-0.5,0-0.9-0.1-1.1-0.5
		c-0.2-0.3-0.3-0.7-0.3-1.3v-3.1h-0.8v-0.6l0.8-0.1l0.1-1.5h0.7v1.5h1.5v0.7h-1.5v3.1c0,0.4,0.1,0.6,0.2,0.8s0.4,0.3,0.7,0.3
		c0.2,0,0.4,0,0.6-0.1l0.2,0.6C321.6,192.3,321.2,192.3,321,192.3z"/>
	<path class="st0" d="M38.5,192.3c-0.5,0-1-0.1-1.4-0.3c-0.4-0.2-0.8-0.5-1.1-0.8l0.5-0.6c0.3,0.3,0.6,0.5,0.9,0.7
		c0.4,0.2,0.7,0.2,1.1,0.2c0.5,0,0.9-0.1,1.2-0.3s0.4-0.5,0.4-0.9c0-0.2-0.1-0.4-0.2-0.6c-0.1-0.2-0.2-0.3-0.4-0.4
		c-0.2-0.1-0.4-0.2-0.7-0.3l-1-0.5c-0.4-0.2-0.8-0.4-1.1-0.7s-0.4-0.7-0.4-1.1c0-0.4,0.1-0.7,0.3-1c0.2-0.3,0.5-0.5,0.8-0.7
		s0.7-0.2,1.1-0.2c0.4,0,0.8,0.1,1.2,0.2c0.4,0.2,0.7,0.4,0.9,0.6l-0.4,0.5c-0.5-0.5-1-0.7-1.7-0.7c-0.4,0-0.8,0.1-1,0.3
		c-0.3,0.2-0.4,0.5-0.4,0.8c0,0.2,0.1,0.4,0.2,0.6c0.1,0.2,0.3,0.3,0.4,0.4c0.2,0.1,0.4,0.2,0.6,0.3l1,0.5c0.5,0.2,0.8,0.4,1.1,0.7
		c0.3,0.3,0.4,0.7,0.4,1.2c0,0.4-0.1,0.7-0.3,1s-0.5,0.5-0.8,0.7C39.5,192.3,39,192.3,38.5,192.3z M44,192.3c-0.5,0-1-0.2-1.2-0.5
		c-0.3-0.4-0.4-0.9-0.4-1.6v-3.4h0.8v3.3c0,0.5,0.1,0.9,0.3,1.1c0.2,0.2,0.4,0.4,0.8,0.4c0.3,0,0.5-0.1,0.7-0.2
		c0.2-0.1,0.5-0.4,0.8-0.7v-3.8h0.8v5.3h-0.7l-0.1-0.8l0,0c-0.3,0.3-0.5,0.6-0.8,0.7C44.6,192.3,44.3,192.3,44,192.3z M48.5,186.9
		h0.7l0.1,0.8l0,0c0.3-0.3,0.6-0.5,0.9-0.7c0.3-0.2,0.6-0.2,0.9-0.2c0.6,0,1,0.2,1.2,0.5c0.3,0.3,0.4,0.9,0.4,1.6v3.4h-0.8V189
		c0-0.5-0.1-0.9-0.3-1.1c-0.2-0.2-0.4-0.4-0.8-0.4c-0.3,0-0.5,0.1-0.7,0.2c-0.2,0.1-0.5,0.3-0.8,0.6v3.9h-0.8
		C48.5,192.2,48.5,186.9,48.5,186.9z"/>
	<g>
		<defs>
			<path id="SVGID_3_" d="M20.5,0.1H338c3.3,0,6.1,2.7,6.1,6v166c0,3.3-2.7,6-6.1,6H20.5c-3.3,0-6.1-2.7-6.1-6V6.1
				C14.4,2.8,17.1,0.1,20.5,0.1z"/>
		</defs>
		<clipPath id="SVGID_4_">
			<use xlink:href="#SVGID_3_"  style="overflow:visible;"/>
		</clipPath>
	</g>
	<g>
		<defs>
			<path id="SVGID_5_" d="M20.5,0.1H338c3.3,0,6.1,2.7,6.1,6v166c0,3.3-2.7,6-6.1,6H20.5c-3.3,0-6.1-2.7-6.1-6V6.1
				C14.4,2.8,17.1,0.1,20.5,0.1z"/>
		</defs>
		<defs>
			<path id="SVGID_6_" d="M20.5,0.2H338c3.2,0,6,2.6,6,5.9v166c0,3.2-2.6,5.9-6,5.9H20.5c-3.2,0-6-2.6-6-5.9V6.1
				C14.5,2.9,17.2,0.2,20.5,0.2z"/>
		</defs>
		<clipPath id="SVGID_7_">
			<use xlink:href="#SVGID_5_"  style="overflow:visible;"/>
		</clipPath>
		<clipPath id="SVGID_8_" class="st1">
			<use xlink:href="#SVGID_6_"  style="overflow:visible;"/>
		</clipPath>
		<rect x="37.1" y="64.2" class="st2" width="14.6" height="134.5"/>
	</g>
	<g>
		<defs>
			<path id="SVGID_9_" d="M20.5,0.1H338c3.3,0,6.1,2.7,6.1,6v166c0,3.3-2.7,6-6.1,6H20.5c-3.3,0-6.1-2.7-6.1-6V6.1
				C14.4,2.8,17.1,0.1,20.5,0.1z"/>
		</defs>
		<defs>
			<path id="SVGID_10_" d="M20.5,0.2H338c3.2,0,6,2.6,6,5.9v166c0,3.2-2.6,5.9-6,5.9H20.5c-3.2,0-6-2.6-6-5.9V6.1
				C14.5,2.9,17.2,0.2,20.5,0.2z"/>
		</defs>
		<clipPath id="SVGID_11_">
			<use xlink:href="#SVGID_9_"  style="overflow:visible;"/>
		</clipPath>
		<clipPath id="SVGID_12_" class="st3">
			<use xlink:href="#SVGID_10_"  style="overflow:visible;"/>
		</clipPath>
		<rect x="82.1" y="46.2" class="st4" width="14.6" height="134.5"/>
	</g>
	<g>
		<defs>
			<path id="SVGID_13_" d="M20.5,0.1H338c3.3,0,6.1,2.7,6.1,6v166c0,3.3-2.7,6-6.1,6H20.5c-3.3,0-6.1-2.7-6.1-6V6.1
				C14.4,2.8,17.1,0.1,20.5,0.1z"/>
		</defs>
		<defs>
			<path id="SVGID_14_" d="M20.5,0.2H338c3.2,0,6,2.6,6,5.9v166c0,3.2-2.6,5.9-6,5.9H20.5c-3.2,0-6-2.6-6-5.9V6.1
				C14.5,2.9,17.2,0.2,20.5,0.2z"/>
		</defs>
		<clipPath id="SVGID_15_">
			<use xlink:href="#SVGID_13_"  style="overflow:visible;"/>
		</clipPath>
		<clipPath id="SVGID_16_" class="st5">
			<use xlink:href="#SVGID_14_"  style="overflow:visible;"/>
		</clipPath>
		<rect x="127.1" y="57.2" class="st6" width="14.6" height="134.5"/>
	</g>
	<g>
		<defs>
			<path id="SVGID_17_" d="M20.5,0.1H338c3.3,0,6.1,2.7,6.1,6v166c0,3.3-2.7,6-6.1,6H20.5c-3.3,0-6.1-2.7-6.1-6V6.1
				C14.4,2.8,17.1,0.1,20.5,0.1z"/>
		</defs>
		<defs>
			<path id="SVGID_18_" d="M20.5,0.2H338c3.2,0,6,2.6,6,5.9v166c0,3.2-2.6,5.9-6,5.9H20.5c-3.2,0-6-2.6-6-5.9V6.1
				C14.5,2.9,17.2,0.2,20.5,0.2z"/>
		</defs>
		<clipPath id="SVGID_19_">
			<use xlink:href="#SVGID_17_"  style="overflow:visible;"/>
		</clipPath>
		<clipPath id="SVGID_20_" class="st7">
			<use xlink:href="#SVGID_18_"  style="overflow:visible;"/>
		</clipPath>
		<rect x="172.1" y="44.8" class="st8" width="14.6" height="134.5"/>
	</g>
	<g>
		<defs>
			<path id="SVGID_21_" d="M20.5,0.1H338c3.3,0,6.1,2.7,6.1,6v166c0,3.3-2.7,6-6.1,6H20.5c-3.3,0-6.1-2.7-6.1-6V6.1
				C14.4,2.8,17.1,0.1,20.5,0.1z"/>
		</defs>
		<defs>
			<path id="SVGID_22_" d="M20.5,0.2H338c3.2,0,6,2.6,6,5.9v166c0,3.2-2.6,5.9-6,5.9H20.5c-3.2,0-6-2.6-6-5.9V6.1
				C14.5,2.9,17.2,0.2,20.5,0.2z"/>
		</defs>
		<clipPath id="SVGID_23_">
			<use xlink:href="#SVGID_21_"  style="overflow:visible;"/>
		</clipPath>
		<clipPath id="SVGID_24_" class="st9">
			<use xlink:href="#SVGID_22_"  style="overflow:visible;"/>
		</clipPath>
		<rect x="218.1" y="57.2" class="st10" width="14.6" height="134.5"/>
	</g>
	<g>
		<defs>
			<path id="SVGID_25_" d="M20.5,0.1H338c3.3,0,6.1,2.7,6.1,6v166c0,3.3-2.7,6-6.1,6H20.5c-3.3,0-6.1-2.7-6.1-6V6.1
				C14.4,2.8,17.1,0.1,20.5,0.1z"/>
		</defs>
		<defs>
			<path id="SVGID_26_" d="M20.5,0.2H338c3.2,0,6,2.6,6,5.9v166c0,3.2-2.6,5.9-6,5.9H20.5c-3.2,0-6-2.6-6-5.9V6.1
				C14.5,2.9,17.2,0.2,20.5,0.2z"/>
		</defs>
		<clipPath id="SVGID_27_">
			<use xlink:href="#SVGID_25_"  style="overflow:visible;"/>
		</clipPath>
		<clipPath id="SVGID_28_" class="st11">
			<use xlink:href="#SVGID_26_"  style="overflow:visible;"/>
		</clipPath>
		<rect x="263.1" y="55.2" class="st12" width="14.6" height="134.5"/>
	</g>
	<g>
		<defs>
			<path id="SVGID_29_" d="M20.5,0.1H338c3.3,0,6.1,2.7,6.1,6v166c0,3.3-2.7,6-6.1,6H20.5c-3.3,0-6.1-2.7-6.1-6V6.1
				C14.4,2.8,17.1,0.1,20.5,0.1z"/>
		</defs>
		<defs>
			<path id="SVGID_30_" d="M20.5,0.2H338c3.2,0,6,2.6,6,5.9v166c0,3.2-2.6,5.9-6,5.9H20.5c-3.2,0-6-2.6-6-5.9V6.1
				C14.5,2.9,17.2,0.2,20.5,0.2z"/>
		</defs>
		<clipPath id="SVGID_31_">
			<use xlink:href="#SVGID_29_"  style="overflow:visible;"/>
		</clipPath>
		<clipPath id="SVGID_32_" class="st13">
			<use xlink:href="#SVGID_30_"  style="overflow:visible;"/>
		</clipPath>
		<rect x="308.1" y="44.8" class="st14" width="14.6" height="134.5"/>
	</g>
	<g>
		<g class="st15">
			<path class="st16" d="M5.3,32.1c0.2,0.1,0.7,0.3,1.1,0.3c0.8,0,1.3-0.6,1.3-1.6c0-1-0.6-1.6-1.6-1.6H5.9v-0.7h0.2
				c0.6,0,1.4-0.4,1.4-1.4c0-0.8-0.4-1.2-1-1.2c-0.4,0-0.7,0.2-1,0.4l-0.2-0.7c0.3-0.2,0.8-0.4,1.4-0.4c1.1,0,1.7,0.8,1.7,1.8
				c0,0.8-0.4,1.5-1.2,1.8v0c0.7,0.2,1.4,0.8,1.4,2c0,1.3-0.8,2.3-2.2,2.3c-0.5,0-1.1-0.1-1.4-0.4L5.3,32.1z"/>
		</g>
		<g class="st15">
			<path class="st16" d="M5.1,92.4v-0.6l0.7-0.9c0.9-1.3,2-2.7,2-4.2c0-0.9-0.4-1.4-1.1-1.4c-0.6,0-0.9,0.3-1.1,0.4L5.3,85
				c0.3-0.2,0.8-0.5,1.5-0.5c1.3,0,1.9,1,1.9,2.1c0,1.5-1,2.9-1.9,4.2l-0.5,0.7v0h2.6v0.8H5.1z"/>
		</g>
		<g class="st15">
			<path class="st16" d="M7,144.9L7,144.9l-1.3,0.7l-0.2-0.7l1.6-1h0.8v7.8H7V144.9z"/>
		</g>
	</g>
</g>
<g id="Layer_4" class="st17">
	<g class="st18">
		<g>
			<path class="st0" d="M56.4,188.1c-0.5,0-0.9-0.1-1.3-0.3c-0.4-0.2-0.7-0.4-1-0.7l0.4-0.5c0.2,0.2,0.5,0.4,0.8,0.6
				c0.3,0.1,0.6,0.2,1,0.2c0.3,0,0.6-0.1,0.8-0.2c0.2-0.1,0.4-0.3,0.6-0.6c0.1-0.3,0.2-0.5,0.2-0.9c0-0.5-0.1-0.9-0.4-1.2
				c-0.3-0.3-0.7-0.4-1.1-0.4c-0.2,0-0.4,0-0.6,0.1c-0.2,0.1-0.4,0.2-0.6,0.3l-0.4-0.3l0.2-3.4h3.4v0.7h-2.7l-0.2,2.2
				c0.2-0.1,0.4-0.2,0.5-0.2c0.2-0.1,0.4-0.1,0.6-0.1c0.6,0,1.2,0.2,1.6,0.6c0.4,0.4,0.6,0.9,0.6,1.6c0,0.5-0.1,0.9-0.3,1.3
				c-0.2,0.4-0.5,0.6-0.9,0.8C57.2,188,56.8,188.1,56.4,188.1z"/>
			<path class="st0" d="M112.8,187.3h1.6V182h-1.3v-0.5c0.6-0.1,1.1-0.3,1.5-0.5h0.6v6.3h1.5v0.7h-3.9
				C112.8,188,112.8,187.3,112.8,187.3z M120.1,188.1c-0.7,0-1.2-0.3-1.6-1c-0.4-0.6-0.6-1.5-0.6-2.7s0.2-2.1,0.6-2.7
				c0.4-0.6,0.9-0.9,1.6-0.9s1.2,0.3,1.6,0.9c0.4,0.6,0.6,1.5,0.6,2.7s-0.2,2.1-0.6,2.7C121.3,187.8,120.8,188.1,120.1,188.1z
				 M120.1,187.5c0.4,0,0.8-0.2,1-0.7c0.3-0.5,0.4-1.3,0.4-2.3s-0.1-1.7-0.4-2.2c-0.2-0.5-0.6-0.7-1-0.7s-0.8,0.2-1.1,0.7
				c-0.2,0.5-0.4,1.2-0.4,2.2s0.1,1.8,0.4,2.3C119.3,187.2,119.6,187.5,120.1,187.5z"/>
			<path class="st0" d="M173.8,187.3h1.6V182h-1.3v-0.5c0.6-0.1,1.1-0.3,1.5-0.5h0.6v6.3h1.5v0.7h-3.9L173.8,187.3L173.8,187.3z
				 M180.9,188.1c-0.5,0-0.9-0.1-1.3-0.3c-0.4-0.2-0.7-0.4-1-0.7l0.4-0.5c0.2,0.2,0.5,0.4,0.8,0.6c0.3,0.1,0.6,0.2,1,0.2
				c0.3,0,0.6-0.1,0.8-0.2c0.2-0.1,0.4-0.3,0.6-0.6c0.1-0.3,0.2-0.5,0.2-0.9c0-0.5-0.1-0.9-0.4-1.2c-0.3-0.3-0.7-0.4-1.1-0.4
				c-0.2,0-0.4,0-0.6,0.1c-0.2,0.1-0.4,0.2-0.6,0.3l-0.4-0.3l0.2-3.4h3.4v0.7h-2.7l-0.2,2.2c0.2-0.1,0.4-0.2,0.5-0.2
				c0.2-0.1,0.4-0.1,0.6-0.1c0.6,0,1.2,0.2,1.6,0.6c0.4,0.4,0.6,0.9,0.6,1.6c0,0.5-0.1,0.9-0.3,1.3c-0.2,0.4-0.5,0.6-0.9,0.8
				C181.7,188,181.3,188.1,180.9,188.1z"/>
			<path class="st0" d="M234.5,187.5c0.8-0.8,1.5-1.5,1.9-2c0.5-0.5,0.8-1,1-1.4s0.4-0.8,0.4-1.2s-0.1-0.8-0.4-1
				c-0.2-0.3-0.6-0.4-1-0.4c-0.3,0-0.5,0.1-0.8,0.2c-0.3,0.2-0.5,0.4-0.7,0.6l-0.5-0.5c0.3-0.3,0.6-0.6,1-0.8
				c0.3-0.2,0.7-0.3,1.1-0.3c0.6,0,1.1,0.2,1.5,0.6c0.4,0.4,0.6,0.9,0.6,1.5c0,0.4-0.1,0.9-0.4,1.3c-0.2,0.4-0.5,0.9-0.9,1.4
				s-0.9,1.1-1.7,1.8h0.3c0.4,0,0.7,0,0.9,0h2.1v0.7h-4.5L234.5,187.5L234.5,187.5z M242.3,188.1c-0.7,0-1.2-0.3-1.6-1
				c-0.4-0.6-0.6-1.5-0.6-2.7s0.2-2.1,0.6-2.7c0.4-0.6,0.9-0.9,1.6-0.9c0.7,0,1.2,0.3,1.6,0.9c0.4,0.6,0.6,1.5,0.6,2.7
				s-0.2,2.1-0.6,2.7C243.6,187.8,243,188.1,242.3,188.1z M242.3,187.5c0.4,0,0.8-0.2,1-0.7c0.3-0.5,0.4-1.3,0.4-2.3
				s-0.1-1.7-0.4-2.2c-0.2-0.5-0.6-0.7-1-0.7s-0.8,0.2-1.1,0.7c-0.2,0.5-0.4,1.2-0.4,2.2s0.1,1.8,0.4,2.3
				C241.5,187.2,241.9,187.5,242.3,187.5z"/>
			<path class="st0" d="M295.5,187.5c0.8-0.8,1.5-1.5,1.9-2c0.5-0.5,0.8-1,1-1.4s0.4-0.8,0.4-1.2s-0.1-0.8-0.4-1
				c-0.2-0.3-0.6-0.4-1-0.4c-0.3,0-0.5,0.1-0.8,0.2c-0.3,0.2-0.5,0.4-0.7,0.6l-0.5-0.5c0.3-0.3,0.6-0.6,1-0.8s0.7-0.3,1.1-0.3
				c0.6,0,1.1,0.2,1.5,0.6c0.4,0.4,0.6,0.9,0.6,1.5c0,0.4-0.1,0.9-0.4,1.3c-0.2,0.4-0.5,0.9-0.9,1.4s-0.9,1.1-1.7,1.8h0.3
				c0.4,0,0.7,0,0.9,0h2.1v0.7h-4.5v-0.5H295.5z M303.2,188.1c-0.5,0-0.9-0.1-1.3-0.3s-0.7-0.4-1-0.7l0.4-0.5
				c0.2,0.2,0.5,0.4,0.8,0.6c0.3,0.1,0.6,0.2,1,0.2c0.3,0,0.6-0.1,0.8-0.2c0.2-0.1,0.4-0.3,0.6-0.6c0.1-0.3,0.2-0.5,0.2-0.9
				c0-0.5-0.1-0.9-0.4-1.2s-0.7-0.4-1.1-0.4c-0.2,0-0.4,0-0.6,0.1s-0.4,0.2-0.6,0.3l-0.4-0.3l0.2-3.4h3.4v0.7h-2.7l-0.2,2.2
				c0.2-0.1,0.4-0.2,0.5-0.2s0.4-0.1,0.6-0.1c0.6,0,1.2,0.2,1.6,0.6c0.4,0.4,0.6,0.9,0.6,1.6c0,0.5-0.1,0.9-0.3,1.3
				c-0.2,0.4-0.5,0.6-0.9,0.8C304,188,303.6,188.1,303.2,188.1z"/>
			<g>
				<g>
					<defs>
						<path id="SVGID_33_" d="M19.5,0.1H338c3.3,0,6.1,2.7,6.1,6v166c0,3.3-2.7,6-6.1,6H19.5c-3.3,0-6.1-2.7-6.1-6V6.1
							C13.4,2.8,16.1,0.1,19.5,0.1z"/>
					</defs>
					<clipPath id="SVGID_34_">
						<use xlink:href="#SVGID_33_"  style="overflow:visible;"/>
					</clipPath>
				</g>
				<g>
					<defs>
						<path id="SVGID_35_" d="M19.5,0.1H338c3.3,0,6.1,2.7,6.1,6v166c0,3.3-2.7,6-6.1,6H19.5c-3.3,0-6.1-2.7-6.1-6V6.1
							C13.4,2.8,16.1,0.1,19.5,0.1z"/>
					</defs>
					<defs>
						<path id="SVGID_36_" d="M19.5,0.2H338c3.2,0,6,2.6,6,5.9v166c0,3.2-2.6,5.9-6,5.9H19.5c-3.2,0-6-2.6-6-5.9V6.1
							C13.5,2.9,16.2,0.2,19.5,0.2z"/>
					</defs>
					<clipPath id="SVGID_37_">
						<use xlink:href="#SVGID_35_"  style="overflow:visible;"/>
					</clipPath>
					<clipPath id="SVGID_38_" class="st19">
						<use xlink:href="#SVGID_36_"  style="overflow:visible;"/>
					</clipPath>
					<rect x="22.1" y="65" class="st20" width="4" height="134.5"/>
				</g>
				<g>
					<defs>
						<path id="SVGID_39_" d="M19.5,0.1H338c3.3,0,6.1,2.7,6.1,6v166c0,3.3-2.7,6-6.1,6H19.5c-3.3,0-6.1-2.7-6.1-6V6.1
							C13.4,2.8,16.1,0.1,19.5,0.1z"/>
					</defs>
					<defs>
						<path id="SVGID_40_" d="M19.5,0.2H338c3.2,0,6,2.6,6,5.9v166c0,3.2-2.6,5.9-6,5.9H19.5c-3.2,0-6-2.6-6-5.9V6.1
							C13.5,2.9,16.2,0.2,19.5,0.2z"/>
					</defs>
					<clipPath id="SVGID_41_">
						<use xlink:href="#SVGID_39_"  style="overflow:visible;"/>
					</clipPath>
					<clipPath id="SVGID_42_" class="st21">
						<use xlink:href="#SVGID_40_"  style="overflow:visible;"/>
					</clipPath>
					<rect x="30.1" y="44" class="st22" width="4" height="134.5"/>
				</g>
				<g>
					<defs>
						<path id="SVGID_43_" d="M19.5,0.1H338c3.3,0,6.1,2.7,6.1,6v166c0,3.3-2.7,6-6.1,6H19.5c-3.3,0-6.1-2.7-6.1-6V6.1
							C13.4,2.8,16.1,0.1,19.5,0.1z"/>
					</defs>
					<defs>
						<path id="SVGID_44_" d="M19.5,0.2H338c3.2,0,6,2.6,6,5.9v166c0,3.2-2.6,5.9-6,5.9H19.5c-3.2,0-6-2.6-6-5.9V6.1
							C13.5,2.9,16.2,0.2,19.5,0.2z"/>
					</defs>
					<clipPath id="SVGID_45_">
						<use xlink:href="#SVGID_43_"  style="overflow:visible;"/>
					</clipPath>
					<clipPath id="SVGID_46_" class="st23">
						<use xlink:href="#SVGID_44_"  style="overflow:visible;"/>
					</clipPath>
					<rect x="38" y="58" class="st24" width="4" height="134.5"/>
				</g>
				<g>
					<defs>
						<path id="SVGID_47_" d="M19.5,0.1H338c3.3,0,6.1,2.7,6.1,6v166c0,3.3-2.7,6-6.1,6H19.5c-3.3,0-6.1-2.7-6.1-6V6.1
							C13.4,2.8,16.1,0.1,19.5,0.1z"/>
					</defs>
					<defs>
						<path id="SVGID_48_" d="M19.5,0.2H338c3.2,0,6,2.6,6,5.9v166c0,3.2-2.6,5.9-6,5.9H19.5c-3.2,0-6-2.6-6-5.9V6.1
							C13.5,2.9,16.2,0.2,19.5,0.2z"/>
					</defs>
					<clipPath id="SVGID_49_">
						<use xlink:href="#SVGID_47_"  style="overflow:visible;"/>
					</clipPath>
					<clipPath id="SVGID_50_" class="st25">
						<use xlink:href="#SVGID_48_"  style="overflow:visible;"/>
					</clipPath>
					<rect x="46" y="44" class="st26" width="4" height="134.5"/>
				</g>
				<g>
					<defs>
						<path id="SVGID_51_" d="M19.5,0.1H338c3.3,0,6.1,2.7,6.1,6v166c0,3.3-2.7,6-6.1,6H19.5c-3.3,0-6.1-2.7-6.1-6V6.1
							C13.4,2.8,16.1,0.1,19.5,0.1z"/>
					</defs>
					<defs>
						<path id="SVGID_52_" d="M19.5,0.2H338c3.2,0,6,2.6,6,5.9v166c0,3.2-2.6,5.9-6,5.9H19.5c-3.2,0-6-2.6-6-5.9V6.1
							C13.5,2.9,16.2,0.2,19.5,0.2z"/>
					</defs>
					<clipPath id="SVGID_53_">
						<use xlink:href="#SVGID_51_"  style="overflow:visible;"/>
					</clipPath>
					<clipPath id="SVGID_54_" class="st27">
						<use xlink:href="#SVGID_52_"  style="overflow:visible;"/>
					</clipPath>
					<rect x="61.9" y="58" class="st28" width="4" height="134.5"/>
				</g>
				<g>
					<defs>
						<path id="SVGID_55_" d="M19.5,0.1H338c3.3,0,6.1,2.7,6.1,6v166c0,3.3-2.7,6-6.1,6H19.5c-3.3,0-6.1-2.7-6.1-6V6.1
							C13.4,2.8,16.1,0.1,19.5,0.1z"/>
					</defs>
					<defs>
						<path id="SVGID_56_" d="M19.5,0.2H338c3.2,0,6,2.6,6,5.9v166c0,3.2-2.6,5.9-6,5.9H19.5c-3.2,0-6-2.6-6-5.9V6.1
							C13.5,2.9,16.2,0.2,19.5,0.2z"/>
					</defs>
					<clipPath id="SVGID_57_">
						<use xlink:href="#SVGID_55_"  style="overflow:visible;"/>
					</clipPath>
					<clipPath id="SVGID_58_" class="st29">
						<use xlink:href="#SVGID_56_"  style="overflow:visible;"/>
					</clipPath>
					<rect x="69.8" y="56" class="st30" width="4" height="134.5"/>
				</g>
				<g>
					<defs>
						<path id="SVGID_59_" d="M19.5,0.1H338c3.3,0,6.1,2.7,6.1,6v166c0,3.3-2.7,6-6.1,6H19.5c-3.3,0-6.1-2.7-6.1-6V6.1
							C13.4,2.8,16.1,0.1,19.5,0.1z"/>
					</defs>
					<defs>
						<path id="SVGID_60_" d="M19.5,0.2H338c3.2,0,6,2.6,6,5.9v166c0,3.2-2.6,5.9-6,5.9H19.5c-3.2,0-6-2.6-6-5.9V6.1
							C13.5,2.9,16.2,0.2,19.5,0.2z"/>
					</defs>
					<clipPath id="SVGID_61_">
						<use xlink:href="#SVGID_59_"  style="overflow:visible;"/>
					</clipPath>
					<clipPath id="SVGID_62_" class="st31">
						<use xlink:href="#SVGID_60_"  style="overflow:visible;"/>
					</clipPath>
					<rect x="85.7" y="44" class="st32" width="4" height="134.5"/>
				</g>
				<g>
					<defs>
						<path id="SVGID_63_" d="M19.5,0.1H338c3.3,0,6.1,2.7,6.1,6v166c0,3.3-2.7,6-6.1,6H19.5c-3.3,0-6.1-2.7-6.1-6V6.1
							C13.4,2.8,16.1,0.1,19.5,0.1z"/>
					</defs>
					<defs>
						<path id="SVGID_64_" d="M19.5,0.2H338c3.2,0,6,2.6,6,5.9v166c0,3.2-2.6,5.9-6,5.9H19.5c-3.2,0-6-2.6-6-5.9V6.1
							C13.5,2.9,16.2,0.2,19.5,0.2z"/>
					</defs>
					<clipPath id="SVGID_65_">
						<use xlink:href="#SVGID_63_"  style="overflow:visible;"/>
					</clipPath>
					<clipPath id="SVGID_66_" class="st33">
						<use xlink:href="#SVGID_64_"  style="overflow:visible;"/>
					</clipPath>
					<rect x="101.6" y="65" class="st34" width="4" height="134.5"/>
				</g>
				<g>
					<defs>
						<path id="SVGID_67_" d="M19.5,0.1H338c3.3,0,6.1,2.7,6.1,6v166c0,3.3-2.7,6-6.1,6H19.5c-3.3,0-6.1-2.7-6.1-6V6.1
							C13.4,2.8,16.1,0.1,19.5,0.1z"/>
					</defs>
					<defs>
						<path id="SVGID_68_" d="M19.5,0.2H338c3.2,0,6,2.6,6,5.9v166c0,3.2-2.6,5.9-6,5.9H19.5c-3.2,0-6-2.6-6-5.9V6.1
							C13.5,2.9,16.2,0.2,19.5,0.2z"/>
					</defs>
					<clipPath id="SVGID_69_">
						<use xlink:href="#SVGID_67_"  style="overflow:visible;"/>
					</clipPath>
					<clipPath id="SVGID_70_" class="st35">
						<use xlink:href="#SVGID_68_"  style="overflow:visible;"/>
					</clipPath>
					<rect x="109.6" y="44" class="st36" width="4" height="134.5"/>
				</g>
				<g>
					<defs>
						<path id="SVGID_71_" d="M19.5,0.1H338c3.3,0,6.1,2.7,6.1,6v166c0,3.3-2.7,6-6.1,6H19.5c-3.3,0-6.1-2.7-6.1-6V6.1
							C13.4,2.8,16.1,0.1,19.5,0.1z"/>
					</defs>
					<defs>
						<path id="SVGID_72_" d="M19.5,0.2H338c3.2,0,6,2.6,6,5.9v166c0,3.2-2.6,5.9-6,5.9H19.5c-3.2,0-6-2.6-6-5.9V6.1
							C13.5,2.9,16.2,0.2,19.5,0.2z"/>
					</defs>
					<clipPath id="SVGID_73_">
						<use xlink:href="#SVGID_71_"  style="overflow:visible;"/>
					</clipPath>
					<clipPath id="SVGID_74_" class="st37">
						<use xlink:href="#SVGID_72_"  style="overflow:visible;"/>
					</clipPath>
					<rect x="117.5" y="58" class="st38" width="4" height="134.5"/>
				</g>
				<g>
					<defs>
						<path id="SVGID_75_" d="M19.5,0.1H338c3.3,0,6.1,2.7,6.1,6v166c0,3.3-2.7,6-6.1,6H19.5c-3.3,0-6.1-2.7-6.1-6V6.1
							C13.4,2.8,16.1,0.1,19.5,0.1z"/>
					</defs>
					<defs>
						<path id="SVGID_76_" d="M19.5,0.2H338c3.2,0,6,2.6,6,5.9v166c0,3.2-2.6,5.9-6,5.9H19.5c-3.2,0-6-2.6-6-5.9V6.1
							C13.5,2.9,16.2,0.2,19.5,0.2z"/>
					</defs>
					<clipPath id="SVGID_77_">
						<use xlink:href="#SVGID_75_"  style="overflow:visible;"/>
					</clipPath>
					<clipPath id="SVGID_78_" class="st39">
						<use xlink:href="#SVGID_76_"  style="overflow:visible;"/>
					</clipPath>
					<rect x="125.5" y="44" class="st40" width="4" height="134.5"/>
				</g>
				<g>
					<defs>
						<path id="SVGID_79_" d="M19.5,0.1H338c3.3,0,6.1,2.7,6.1,6v166c0,3.3-2.7,6-6.1,6H19.5c-3.3,0-6.1-2.7-6.1-6V6.1
							C13.4,2.8,16.1,0.1,19.5,0.1z"/>
					</defs>
					<defs>
						<path id="SVGID_80_" d="M19.5,0.2H338c3.2,0,6,2.6,6,5.9v166c0,3.2-2.6,5.9-6,5.9H19.5c-3.2,0-6-2.6-6-5.9V6.1
							C13.5,2.9,16.2,0.2,19.5,0.2z"/>
					</defs>
					<clipPath id="SVGID_81_">
						<use xlink:href="#SVGID_79_"  style="overflow:visible;"/>
					</clipPath>
					<clipPath id="SVGID_82_" class="st41">
						<use xlink:href="#SVGID_80_"  style="overflow:visible;"/>
					</clipPath>
					<rect x="53.9" y="58" class="st42" width="4" height="134.5"/>
				</g>
				<g>
					<defs>
						<path id="SVGID_83_" d="M19.5,0.1H338c3.3,0,6.1,2.7,6.1,6v166c0,3.3-2.7,6-6.1,6H19.5c-3.3,0-6.1-2.7-6.1-6V6.1
							C13.4,2.8,16.1,0.1,19.5,0.1z"/>
					</defs>
					<defs>
						<path id="SVGID_84_" d="M19.5,0.2H338c3.2,0,6,2.6,6,5.9v166c0,3.2-2.6,5.9-6,5.9H19.5c-3.2,0-6-2.6-6-5.9V6.1
							C13.5,2.9,16.2,0.2,19.5,0.2z"/>
					</defs>
					<clipPath id="SVGID_85_">
						<use xlink:href="#SVGID_83_"  style="overflow:visible;"/>
					</clipPath>
					<clipPath id="SVGID_86_" class="st43">
						<use xlink:href="#SVGID_84_"  style="overflow:visible;"/>
					</clipPath>
					<rect x="93.7" y="56" class="st44" width="4" height="134.5"/>
				</g>
				<g>
					<defs>
						<path id="SVGID_87_" d="M19.5,0.1H338c3.3,0,6.1,2.7,6.1,6v166c0,3.3-2.7,6-6.1,6H19.5c-3.3,0-6.1-2.7-6.1-6V6.1
							C13.4,2.8,16.1,0.1,19.5,0.1z"/>
					</defs>
					<defs>
						<path id="SVGID_88_" d="M19.5,0.2H338c3.2,0,6,2.6,6,5.9v166c0,3.2-2.6,5.9-6,5.9H19.5c-3.2,0-6-2.6-6-5.9V6.1
							C13.5,2.9,16.2,0.2,19.5,0.2z"/>
					</defs>
					<clipPath id="SVGID_89_">
						<use xlink:href="#SVGID_87_"  style="overflow:visible;"/>
					</clipPath>
					<clipPath id="SVGID_90_" class="st45">
						<use xlink:href="#SVGID_88_"  style="overflow:visible;"/>
					</clipPath>
					<rect x="77.8" y="44" class="st46" width="4" height="134.5"/>
				</g>
			</g>
		</g>
		<g>
			<g class="st15">
				<path class="st16" d="M4.3,32.1c0.2,0.1,0.7,0.3,1.1,0.3c0.8,0,1.3-0.6,1.3-1.6c0-1-0.6-1.6-1.6-1.6H4.9v-0.7h0.2
					c0.6,0,1.4-0.4,1.4-1.4c0-0.8-0.4-1.2-1-1.2c-0.4,0-0.7,0.2-1,0.4l-0.2-0.7c0.3-0.2,0.8-0.4,1.4-0.4c1.1,0,1.7,0.8,1.7,1.8
					c0,0.8-0.4,1.5-1.2,1.8v0c0.7,0.2,1.4,0.8,1.4,2c0,1.3-0.8,2.3-2.2,2.3c-0.5,0-1.1-0.1-1.4-0.4L4.3,32.1z"/>
			</g>
			<g class="st15">
				<path class="st16" d="M4.1,92.4v-0.6l0.7-0.9c0.9-1.3,2-2.7,2-4.2c0-0.9-0.4-1.4-1.1-1.4c-0.6,0-0.9,0.3-1.1,0.4L4.3,85
					c0.3-0.2,0.8-0.5,1.5-0.5c1.3,0,1.9,1,1.9,2.1c0,1.5-1,2.9-1.9,4.2l-0.5,0.7v0h2.6v0.8H4.1z"/>
			</g>
			<g class="st15">
				<path class="st16" d="M6,144.9L6,144.9l-1.3,0.7l-0.2-0.7l1.6-1h0.8v7.8H6V144.9z"/>
			</g>
		</g>
	</g>
</g>
<g id="Layer_5" class="st17">
	<g class="st18">
		<g class="st47">
			<g>
				<path id="SVGID_2_" class="st48" d="M20.5,0.1H338c3.3,0,6.1,2.7,6.1,6v166c0,3.3-2.7,6-6.1,6H20.5c-3.3,0-6.1-2.7-6.1-6V6.1
					C14.4,2.8,17.2,0.1,20.5,0.1z"/>
			</g>
			<g>
				<path id="SVGID_1_" class="st48" d="M19.4,0.2h317.5c3.2,0,6,2.6,6,5.9v166c0,3.2-2.6,5.9-6,5.9H19.4c-3.2,0-6-2.6-6-5.9V6.1
					C13.4,2.9,16.1,0.2,19.4,0.2z"/>
			</g>
			<g>
				<defs>
					<path id="SVGID_91_" d="M20.5,0.1H338c3.3,0,6.1,2.7,6.1,6v166c0,3.3-2.7,6-6.1,6H20.5c-3.3,0-6.1-2.7-6.1-6V6.1
						C14.4,2.8,17.2,0.1,20.5,0.1z"/>
				</defs>
				<clipPath id="SVGID_92_">
					<use xlink:href="#SVGID_91_"  style="overflow:visible;"/>
				</clipPath>
			</g>
		</g>
		<g>
			<path class="st16" d="M91.3,76.8h4.9v6.3L96,86.4c0.8-0.8,1.7-1.4,2.6-1.9s1.9-0.7,3-0.7c1.9,0,3.3,0.6,4.1,1.9
				c0.9,1.2,1.4,3,1.4,5.3v11.1h-4.9V91.6c0-1.3-0.2-2.2-0.6-2.8c-0.4-0.5-1-0.8-1.8-0.8c-0.7,0-1.3,0.1-1.8,0.4s-1.1,0.8-1.8,1.4
				V102h-4.9C91.3,102,91.3,76.8,91.3,76.8z M112.1,84.3h4l0.4,3.1h0.1c0.6-1.2,1.4-2,2.3-2.6s1.8-0.9,2.8-0.9
				c0.8,0,1.5,0.1,2.1,0.4l-0.8,4.2c-0.1,0-0.3-0.1-0.6-0.1c-0.4-0.1-0.8-0.1-1.2-0.1c-0.8,0-1.5,0.3-2.2,0.8s-1.3,1.4-1.8,2.6v10.5
				h-4.9V84.3H112.1z M149.5,96.4c5-4.8,8.8-8.5,11.4-11.2c2.6-2.7,4.8-5.4,6.3-7.8s2.4-4.8,2.4-6.9c0-2.3-0.6-4-1.8-5.3
				c-1.2-1.3-2.9-1.9-5-1.9c-1.5,0-3,0.4-4.3,1.3s-2.7,2-4,3.5l-5.4-5.3c2.3-2.4,4.6-4.2,6.9-5.4c2.4-1.2,5.1-1.8,8.2-1.8
				c4.5,0,8.1,1.3,10.8,4c2.7,2.6,4.1,6.1,4.1,10.4c0,3.6-1.3,7.2-4,11.1c-2.6,3.8-6.4,8.3-11.4,13.4c2.8-0.3,5.4-0.5,7.7-0.5h9.9
				v8.3h-31.8V96.4z M204,103c-3.3,0-6.1-0.9-8.6-2.7c-2.4-1.9-4.3-4.6-5.6-8.2s-1.9-7.9-1.9-13c0-7.6,1.4-13.4,4.3-17.4
				c2.9-4.1,6.8-6.1,11.8-6.1c4.9,0,8.9,2,11.7,6.1c2.9,4,4.3,9.8,4.3,17.4c0,5.1-0.7,9.4-2,13s-3.1,6.3-5.5,8.2
				C210.1,102.1,207.3,103,204,103z M204,95.4c2.1,0,3.8-1.2,5-3.7s1.8-6.7,1.8-12.7c0-5.9-0.6-10-1.8-12.3c-1.2-2.4-2.9-3.6-5-3.6
				c-2.2,0-3.8,1.2-5,3.5c-1.2,2.4-1.7,6.5-1.7,12.4c0,6,0.6,10.2,1.8,12.7C200.2,94.1,201.9,95.4,204,95.4z M226,84.3h4l0.4,2.3
				h0.1c0.9-0.9,1.7-1.6,2.6-2.1s1.8-0.7,2.8-0.7c1.2,0,2.3,0.3,3.1,0.8s1.4,1.3,1.9,2.3c0.9-1,1.8-1.7,2.7-2.2
				c0.9-0.6,1.9-0.8,2.9-0.8c1.9,0,3.3,0.6,4.2,1.9c0.9,1.2,1.4,3,1.4,5.3v11.1h-4.9V91.6c0-1.3-0.2-2.2-0.6-2.7
				c-0.4-0.6-1-0.8-1.8-0.8c-1,0-2.1,0.6-3.3,1.9v12.2h-5V91.6c0-1.3-0.2-2.2-0.6-2.7c-0.4-0.6-1-0.8-1.8-0.8c-1,0-2.1,0.6-3.3,1.9
				v12.2h-4.9V84.3H226z M257,84.3h4.9v17.8H257V84.3z M259.5,81.5c-0.8,0-1.5-0.2-2-0.7s-0.8-1.1-0.8-1.9s0.3-1.4,0.8-1.9
				s1.2-0.8,2-0.8c0.8,0,1.5,0.3,2,0.8s0.8,1.1,0.8,1.9s-0.3,1.4-0.8,1.9S260.3,81.5,259.5,81.5z M267.2,84.3h4l0.4,2.3h0.1
				c0.9-0.8,1.8-1.5,2.7-2c0.9-0.5,2-0.8,3.1-0.8c1.9,0,3.3,0.6,4.1,1.9c0.9,1.2,1.4,3,1.4,5.3v11.1h-4.9V91.6
				c0-1.3-0.2-2.2-0.6-2.8c-0.4-0.5-1-0.8-1.8-0.8c-0.7,0-1.3,0.1-1.8,0.4s-1.1,0.8-1.8,1.4V102h-4.9L267.2,84.3L267.2,84.3z
				 M293.2,102.6c-1.2,0-2.4-0.2-3.6-0.7s-2.3-1.1-3.2-1.8l2.2-3.1c0.8,0.6,1.6,1.1,2.4,1.4s1.5,0.5,2.3,0.5s1.4-0.1,1.8-0.4
				s0.6-0.7,0.6-1.3c0-0.4-0.2-0.7-0.5-1s-0.8-0.6-1.4-0.8c-0.6-0.3-1.2-0.5-1.8-0.8c-1.4-0.6-2.6-1.2-3.5-2s-1.3-1.9-1.3-3.2
				c0-1.6,0.6-3,1.8-4c1.2-1,2.8-1.5,4.9-1.5c2.2,0,4.3,0.7,6.2,2.2l-2.2,3c-1.4-1-2.7-1.5-3.8-1.5c-0.7,0-1.3,0.1-1.7,0.4
				c-0.4,0.3-0.5,0.7-0.5,1.2s0.2,0.9,0.7,1.2c0.5,0.3,1,0.5,1.7,0.8s1,0.4,1.2,0.4c1.5,0.6,2.7,1.2,3.6,2s1.3,1.9,1.3,3.3
				c0,1.1-0.3,2.1-0.9,2.9s-1.4,1.5-2.4,2C296,102.3,294.7,102.6,293.2,102.6z"/>
			<text transform="matrix(1 0 0 1 57.1517 102.1484)" class="st16 st49 st50">1</text>
		</g>
	</g>
</g>
</svg>
