<?xml version="1.0" encoding="utf-8"?>
<!-- Generator: Adobe Illustrator 23.0.1, SVG Export Plug-In . SVG Version: 6.00 Build 0)  -->
<svg version="1.1" xmlns="http://www.w3.org/2000/svg" xmlns:xlink="http://www.w3.org/1999/xlink" x="0px" y="0px"
	 viewBox="0 0 344.4 193.6" style="enable-background:new 0 0 344.4 193.6;" xml:space="preserve">
<style type="text/css">
	.st0{display:none;}
	.st1{display:inline;fill:#DABA56;}
	.st2{display:inline;}
	.st3{clip-path:url(#SVGID_7_);}
	.st4{clip-path:url(#SVGID_8_);fill:#EA984B;}
	.st5{clip-path:url(#SVGID_11_);}
	.st6{clip-path:url(#SVGID_12_);fill:#EA984B;}
	.st7{clip-path:url(#SVGID_15_);}
	.st8{clip-path:url(#SVGID_16_);fill:#EA984B;}
	.st9{clip-path:url(#SVGID_19_);}
	.st10{clip-path:url(#SVGID_20_);fill:#EA984B;}
	.st11{clip-path:url(#SVGID_23_);}
	.st12{clip-path:url(#SVGID_24_);fill:#EA984B;}
	.st13{clip-path:url(#SVGID_27_);}
	.st14{clip-path:url(#SVGID_28_);fill:#EA984B;}
	.st15{clip-path:url(#SVGID_31_);}
	.st16{clip-path:url(#SVGID_32_);fill:#EA984B;}
	.st17{clip-path:url(#SVGID_35_);}
	.st18{clip-path:url(#SVGID_36_);fill:#EA984B;}
	.st19{clip-path:url(#SVGID_39_);}
	.st20{clip-path:url(#SVGID_40_);fill:#EA984B;}
	.st21{clip-path:url(#SVGID_43_);}
	.st22{clip-path:url(#SVGID_44_);fill:#EA984B;}
	.st23{clip-path:url(#SVGID_47_);}
	.st24{clip-path:url(#SVGID_48_);fill:#EA984B;}
	.st25{clip-path:url(#SVGID_51_);}
	.st26{clip-path:url(#SVGID_52_);fill:#EA984B;}
	.st27{clip-path:url(#SVGID_55_);}
	.st28{clip-path:url(#SVGID_56_);fill:#EA984B;}
	.st29{clip-path:url(#SVGID_59_);}
	.st30{clip-path:url(#SVGID_60_);fill:#EA984B;}
	.st31{display:inline;fill:#EA984B;}
	.st32{clip-path:url(#SVGID_65_);}
	.st33{clip-path:url(#SVGID_66_);fill:#EA984B;}
	.st34{clip-path:url(#SVGID_69_);}
	.st35{clip-path:url(#SVGID_70_);fill:#EA984B;}
	.st36{clip-path:url(#SVGID_73_);}
	.st37{clip-path:url(#SVGID_74_);fill:#EA984B;}
	.st38{clip-path:url(#SVGID_77_);}
	.st39{clip-path:url(#SVGID_78_);fill:#EA984B;}
	.st40{clip-path:url(#SVGID_81_);}
	.st41{clip-path:url(#SVGID_82_);fill:#EA984B;}
	.st42{clip-path:url(#SVGID_85_);}
	.st43{clip-path:url(#SVGID_86_);fill:#EA984B;}
	.st44{clip-path:url(#SVGID_89_);}
	.st45{clip-path:url(#SVGID_90_);fill:#EA984B;}
	.st46{clip-path:url(#SVGID_95_);}
	.st47{clip-path:url(#SVGID_96_);fill:#EA984B;}
	.st48{clip-path:url(#SVGID_99_);}
	.st49{clip-path:url(#SVGID_100_);fill:#EA984B;}
	.st50{clip-path:url(#SVGID_103_);}
	.st51{clip-path:url(#SVGID_104_);fill:#EA984B;}
	.st52{clip-path:url(#SVGID_107_);}
	.st53{clip-path:url(#SVGID_108_);fill:#EA984B;}
	.st54{clip-path:url(#SVGID_111_);}
	.st55{clip-path:url(#SVGID_112_);fill:#EA984B;}
	.st56{clip-path:url(#SVGID_115_);}
	.st57{clip-path:url(#SVGID_116_);fill:#EA984B;}
	.st58{clip-path:url(#SVGID_119_);}
	.st59{clip-path:url(#SVGID_120_);fill:#EA984B;}
	.st60{clip-path:url(#SVGID_123_);}
	.st61{clip-path:url(#SVGID_124_);fill:#EA984B;}
	.st62{clip-path:url(#SVGID_127_);}
	.st63{clip-path:url(#SVGID_128_);fill:#EA984B;}
	.st64{clip-path:url(#SVGID_131_);}
	.st65{clip-path:url(#SVGID_132_);fill:#EA984B;}
	.st66{clip-path:url(#SVGID_135_);}
	.st67{clip-path:url(#SVGID_136_);fill:#EA984B;}
	.st68{clip-path:url(#SVGID_139_);}
	.st69{clip-path:url(#SVGID_140_);fill:#EA984B;}
	.st70{fill:#EA984B;}
	.st71{font-family:'MyriadPro-Cond';}
	.st72{font-size:12px;}
	.st73{fill:url(#SVGID_141_);fill-opacity:0.9;}
	.st74{fill:none;stroke:#CDA52B;stroke-width:0.25;}
	.st75{fill:#DABA56;}
	.st76{clip-path:url(#SVGID_146_);}
	.st77{clip-path:url(#SVGID_147_);fill:#EA984B;}
	.st78{clip-path:url(#SVGID_150_);}
	.st79{clip-path:url(#SVGID_151_);fill:#EA984B;}
	.st80{clip-path:url(#SVGID_154_);}
	.st81{clip-path:url(#SVGID_155_);fill:#EA984B;}
	.st82{clip-path:url(#SVGID_158_);}
	.st83{clip-path:url(#SVGID_159_);fill:#EA984B;}
	.st84{clip-path:url(#SVGID_162_);}
	.st85{clip-path:url(#SVGID_163_);fill:#EA984B;}
	.st86{clip-path:url(#SVGID_166_);}
	.st87{clip-path:url(#SVGID_167_);fill:#EA984B;}
	.st88{clip-path:url(#SVGID_170_);}
	.st89{clip-path:url(#SVGID_171_);fill:#EA984B;}
	.st90{clip-path:url(#SVGID_174_);}
	.st91{clip-path:url(#SVGID_175_);fill:#EA984B;}
	.st92{clip-path:url(#SVGID_178_);}
	.st93{clip-path:url(#SVGID_179_);fill:#EA984B;}
	.st94{clip-path:url(#SVGID_182_);}
	.st95{clip-path:url(#SVGID_183_);fill:#EA984B;}
	.st96{clip-path:url(#SVGID_186_);}
	.st97{clip-path:url(#SVGID_187_);fill:#EA984B;}
	.st98{clip-path:url(#SVGID_190_);}
	.st99{clip-path:url(#SVGID_191_);fill:#EA984B;}
	.st100{enable-background:new    ;}
	.st101{clip-path:url(#SVGID_196_);}
	.st102{clip-path:url(#SVGID_197_);fill:#EA984B;}
	.st103{clip-path:url(#SVGID_200_);}
	.st104{clip-path:url(#SVGID_201_);fill:#EA984B;}
	.st105{clip-path:url(#SVGID_204_);}
	.st106{clip-path:url(#SVGID_205_);fill:#EA984B;}
	.st107{clip-path:url(#SVGID_208_);}
	.st108{clip-path:url(#SVGID_209_);fill:#EA984B;}
	.st109{clip-path:url(#SVGID_212_);}
	.st110{clip-path:url(#SVGID_213_);fill:#EA984B;}
	.st111{clip-path:url(#SVGID_216_);}
	.st112{clip-path:url(#SVGID_217_);fill:#EA984B;}
	.st113{clip-path:url(#SVGID_220_);}
	.st114{clip-path:url(#SVGID_221_);fill:#EA984B;}
	.st115{clip-path:url(#SVGID_226_);}
	.st116{clip-path:url(#SVGID_227_);fill:#EA984B;}
	.st117{clip-path:url(#SVGID_230_);}
	.st118{clip-path:url(#SVGID_231_);fill:#EA984B;}
	.st119{clip-path:url(#SVGID_234_);}
	.st120{clip-path:url(#SVGID_235_);fill:#EA984B;}
	.st121{clip-path:url(#SVGID_238_);}
	.st122{clip-path:url(#SVGID_239_);fill:#EA984B;}
	.st123{clip-path:url(#SVGID_242_);}
	.st124{clip-path:url(#SVGID_243_);fill:#EA984B;}
	.st125{clip-path:url(#SVGID_246_);}
	.st126{clip-path:url(#SVGID_247_);fill:#EA984B;}
	.st127{clip-path:url(#SVGID_250_);}
	.st128{clip-path:url(#SVGID_251_);fill:#EA984B;}
	.st129{clip-path:url(#SVGID_254_);}
	.st130{clip-path:url(#SVGID_255_);fill:#EA984B;}
	.st131{clip-path:url(#SVGID_258_);}
	.st132{clip-path:url(#SVGID_259_);fill:#EA984B;}
	.st133{clip-path:url(#SVGID_262_);}
	.st134{clip-path:url(#SVGID_263_);fill:#EA984B;}
	.st135{clip-path:url(#SVGID_266_);}
	.st136{clip-path:url(#SVGID_267_);fill:#EA984B;}
	.st137{clip-path:url(#SVGID_270_);}
	.st138{clip-path:url(#SVGID_271_);fill:#EA984B;}
	.st139{clip-path:url(#SVGID_274_);}
	.st140{clip-path:url(#SVGID_275_);fill:#EA984B;}
	.st141{clip-path:url(#SVGID_278_);}
	.st142{clip-path:url(#SVGID_279_);fill:#EA984B;}
	.st143{opacity:0.59;}
	.st144{opacity:0.59;fill:#FFFFFF;enable-background:new    ;}
	.st145{font-family:'Roboto-Bold';}
	.st146{font-size:64.6692px;}
</style>
<g id="Layer_1">
	<g class="st0">
		<path class="st1" d="M40.4,188.1c-0.5,0-0.9-0.1-1.3-0.3c-0.4-0.2-0.7-0.4-1-0.7l0.4-0.5c0.2,0.2,0.5,0.4,0.8,0.6
			c0.3,0.1,0.6,0.2,1,0.2c0.3,0,0.6-0.1,0.8-0.2c0.2-0.1,0.4-0.3,0.6-0.6c0.1-0.3,0.2-0.5,0.2-0.9c0-0.5-0.1-0.9-0.4-1.2
			c-0.3-0.3-0.7-0.4-1.1-0.4c-0.2,0-0.4,0-0.6,0.1c-0.2,0.1-0.4,0.2-0.6,0.3l-0.4-0.3l0.2-3.4h3.4v0.7h-2.7l-0.2,2.2
			c0.2-0.1,0.4-0.2,0.5-0.2c0.2-0.1,0.4-0.1,0.6-0.1c0.6,0,1.2,0.2,1.6,0.6c0.4,0.4,0.6,0.9,0.6,1.6c0,0.5-0.1,0.9-0.3,1.3
			c-0.2,0.4-0.5,0.6-0.9,0.8C41.2,188,40.8,188.1,40.4,188.1z"/>
		<path class="st1" d="M96.8,187.3h1.6V182h-1.3v-0.5c0.6-0.1,1.1-0.3,1.5-0.5h0.6v6.3h1.5v0.7h-3.9C96.8,188,96.8,187.3,96.8,187.3
			z M104.1,188.1c-0.7,0-1.2-0.3-1.6-1c-0.4-0.6-0.6-1.5-0.6-2.7s0.2-2.1,0.6-2.7c0.4-0.6,0.9-0.9,1.6-0.9s1.2,0.3,1.6,0.9
			c0.4,0.6,0.6,1.5,0.6,2.7s-0.2,2.1-0.6,2.7C105.3,187.8,104.8,188.1,104.1,188.1z M104.1,187.5c0.4,0,0.8-0.2,1-0.7
			c0.3-0.5,0.4-1.3,0.4-2.3s-0.1-1.7-0.4-2.2c-0.2-0.5-0.6-0.7-1-0.7s-0.8,0.2-1.1,0.7c-0.2,0.5-0.4,1.2-0.4,2.2s0.1,1.8,0.4,2.3
			C103.3,187.2,103.6,187.5,104.1,187.5z"/>
		<path class="st1" d="M157.8,187.3h1.6V182h-1.3v-0.5c0.6-0.1,1.1-0.3,1.5-0.5h0.6v6.3h1.5v0.7h-3.9L157.8,187.3L157.8,187.3z
			 M164.9,188.1c-0.5,0-0.9-0.1-1.3-0.3c-0.4-0.2-0.7-0.4-1-0.7l0.4-0.5c0.2,0.2,0.5,0.4,0.8,0.6c0.3,0.1,0.6,0.2,1,0.2
			c0.3,0,0.6-0.1,0.8-0.2c0.2-0.1,0.4-0.3,0.6-0.6c0.1-0.3,0.2-0.5,0.2-0.9c0-0.5-0.1-0.9-0.4-1.2c-0.3-0.3-0.7-0.4-1.1-0.4
			c-0.2,0-0.4,0-0.6,0.1c-0.2,0.1-0.4,0.2-0.6,0.3l-0.4-0.3l0.2-3.4h3.4v0.7h-2.7l-0.2,2.2c0.2-0.1,0.4-0.2,0.5-0.2
			c0.2-0.1,0.4-0.1,0.6-0.1c0.6,0,1.2,0.2,1.6,0.6c0.4,0.4,0.6,0.9,0.6,1.6c0,0.5-0.1,0.9-0.3,1.3c-0.2,0.4-0.5,0.6-0.9,0.8
			C165.7,188,165.3,188.1,164.9,188.1z"/>
		<path class="st1" d="M218.5,187.5c0.8-0.8,1.5-1.5,1.9-2c0.5-0.5,0.8-1,1-1.4s0.4-0.8,0.4-1.2s-0.1-0.8-0.4-1
			c-0.2-0.3-0.6-0.4-1-0.4c-0.3,0-0.5,0.1-0.8,0.2c-0.3,0.2-0.5,0.4-0.7,0.6l-0.5-0.5c0.3-0.3,0.6-0.6,1-0.8
			c0.3-0.2,0.7-0.3,1.1-0.3c0.6,0,1.1,0.2,1.5,0.6c0.4,0.4,0.6,0.9,0.6,1.5c0,0.4-0.1,0.9-0.4,1.3c-0.2,0.4-0.5,0.9-0.9,1.4
			s-0.9,1.1-1.7,1.8h0.3c0.4,0,0.7,0,0.9,0h2.1v0.7h-4.5L218.5,187.5L218.5,187.5z M226.3,188.1c-0.7,0-1.2-0.3-1.6-1
			c-0.4-0.6-0.6-1.5-0.6-2.7s0.2-2.1,0.6-2.7c0.4-0.6,0.9-0.9,1.6-0.9c0.7,0,1.2,0.3,1.6,0.9c0.4,0.6,0.6,1.5,0.6,2.7
			s-0.2,2.1-0.6,2.7C227.6,187.8,227,188.1,226.3,188.1z M226.3,187.5c0.4,0,0.8-0.2,1-0.7c0.3-0.5,0.4-1.3,0.4-2.3
			s-0.1-1.7-0.4-2.2c-0.2-0.5-0.6-0.7-1-0.7s-0.8,0.2-1.1,0.7c-0.2,0.5-0.4,1.2-0.4,2.2s0.1,1.8,0.4,2.3
			C225.5,187.2,225.9,187.5,226.3,187.5z"/>
		<path class="st1" d="M279.5,187.5c0.8-0.8,1.5-1.5,1.9-2c0.5-0.5,0.8-1,1-1.4s0.4-0.8,0.4-1.2s-0.1-0.8-0.4-1
			c-0.2-0.3-0.6-0.4-1-0.4c-0.3,0-0.5,0.1-0.8,0.2c-0.3,0.2-0.5,0.4-0.7,0.6l-0.5-0.5c0.3-0.3,0.6-0.6,1-0.8s0.7-0.3,1.1-0.3
			c0.6,0,1.1,0.2,1.5,0.6c0.4,0.4,0.6,0.9,0.6,1.5c0,0.4-0.1,0.9-0.4,1.3c-0.2,0.4-0.5,0.9-0.9,1.4s-0.9,1.1-1.7,1.8h0.3
			c0.4,0,0.7,0,0.9,0h2.1v0.7h-4.5v-0.5H279.5z M287.2,188.1c-0.5,0-0.9-0.1-1.3-0.3s-0.7-0.4-1-0.7l0.4-0.5
			c0.2,0.2,0.5,0.4,0.8,0.6c0.3,0.1,0.6,0.2,1,0.2c0.3,0,0.6-0.1,0.8-0.2c0.2-0.1,0.4-0.3,0.6-0.6c0.1-0.3,0.2-0.5,0.2-0.9
			c0-0.5-0.1-0.9-0.4-1.2s-0.7-0.4-1.1-0.4c-0.2,0-0.4,0-0.6,0.1s-0.4,0.2-0.6,0.3l-0.4-0.3l0.2-3.4h3.4v0.7h-2.7l-0.2,2.2
			c0.2-0.1,0.4-0.2,0.5-0.2s0.4-0.1,0.6-0.1c0.6,0,1.2,0.2,1.6,0.6c0.4,0.4,0.6,0.9,0.6,1.6c0,0.5-0.1,0.9-0.3,1.3
			c-0.2,0.4-0.5,0.6-0.9,0.8C288,188,287.6,188.1,287.2,188.1z"/>
		<g class="st2">
			<g>
				<defs>
					<path id="SVGID_3_" d="M6.1,0.1h314c3.3,0,6,2.7,6,6v166c0,3.3-2.7,6-6,6H6.1c-3.3,0-6-2.7-6-6V6.1C0.1,2.8,2.8,0.1,6.1,0.1z"
						/>
				</defs>
				<clipPath id="SVGID_4_">
					<use xlink:href="#SVGID_3_"  style="overflow:visible;"/>
				</clipPath>
			</g>
			<g>
				<defs>
					<path id="SVGID_5_" d="M6.1,0.1h314c3.3,0,6,2.7,6,6v166c0,3.3-2.7,6-6,6H6.1c-3.3,0-6-2.7-6-6V6.1C0.1,2.8,2.8,0.1,6.1,0.1z"
						/>
				</defs>
				<defs>
					<path id="SVGID_6_" d="M6.1,0.2h314c3.2,0,5.9,2.6,5.9,5.9v166c0,3.2-2.6,5.9-5.9,5.9H6.1c-3.2,0-5.9-2.6-5.9-5.9V6.1
						C0.2,2.9,2.9,0.2,6.1,0.2z"/>
				</defs>
				<clipPath id="SVGID_7_">
					<use xlink:href="#SVGID_5_"  style="overflow:visible;"/>
				</clipPath>
				<clipPath id="SVGID_8_" class="st3">
					<use xlink:href="#SVGID_6_"  style="overflow:visible;"/>
				</clipPath>
				<rect x="6.1" y="65" class="st4" width="4" height="134.5"/>
			</g>
			<g>
				<defs>
					<path id="SVGID_9_" d="M6.1,0.1h314c3.3,0,6,2.7,6,6v166c0,3.3-2.7,6-6,6H6.1c-3.3,0-6-2.7-6-6V6.1C0.1,2.8,2.8,0.1,6.1,0.1z"
						/>
				</defs>
				<defs>
					<path id="SVGID_10_" d="M6.1,0.2h314c3.2,0,5.9,2.6,5.9,5.9v166c0,3.2-2.6,5.9-5.9,5.9H6.1c-3.2,0-5.9-2.6-5.9-5.9V6.1
						C0.2,2.9,2.9,0.2,6.1,0.2z"/>
				</defs>
				<clipPath id="SVGID_11_">
					<use xlink:href="#SVGID_9_"  style="overflow:visible;"/>
				</clipPath>
				<clipPath id="SVGID_12_" class="st5">
					<use xlink:href="#SVGID_10_"  style="overflow:visible;"/>
				</clipPath>
				<rect x="14.1" y="44" class="st6" width="4" height="134.5"/>
			</g>
			<g>
				<defs>
					<path id="SVGID_13_" d="M6.1,0.1h314c3.3,0,6,2.7,6,6v166c0,3.3-2.7,6-6,6H6.1c-3.3,0-6-2.7-6-6V6.1C0.1,2.8,2.8,0.1,6.1,0.1z"
						/>
				</defs>
				<defs>
					<path id="SVGID_14_" d="M6.1,0.2h314c3.2,0,5.9,2.6,5.9,5.9v166c0,3.2-2.6,5.9-5.9,5.9H6.1c-3.2,0-5.9-2.6-5.9-5.9V6.1
						C0.2,2.9,2.9,0.2,6.1,0.2z"/>
				</defs>
				<clipPath id="SVGID_15_">
					<use xlink:href="#SVGID_13_"  style="overflow:visible;"/>
				</clipPath>
				<clipPath id="SVGID_16_" class="st7">
					<use xlink:href="#SVGID_14_"  style="overflow:visible;"/>
				</clipPath>
				<rect x="22" y="58" class="st8" width="4" height="134.5"/>
			</g>
			<g>
				<defs>
					<path id="SVGID_17_" d="M6.1,0.1h314c3.3,0,6,2.7,6,6v166c0,3.3-2.7,6-6,6H6.1c-3.3,0-6-2.7-6-6V6.1C0.1,2.8,2.8,0.1,6.1,0.1z"
						/>
				</defs>
				<defs>
					<path id="SVGID_18_" d="M6.1,0.2h314c3.2,0,5.9,2.6,5.9,5.9v166c0,3.2-2.6,5.9-5.9,5.9H6.1c-3.2,0-5.9-2.6-5.9-5.9V6.1
						C0.2,2.9,2.9,0.2,6.1,0.2z"/>
				</defs>
				<clipPath id="SVGID_19_">
					<use xlink:href="#SVGID_17_"  style="overflow:visible;"/>
				</clipPath>
				<clipPath id="SVGID_20_" class="st9">
					<use xlink:href="#SVGID_18_"  style="overflow:visible;"/>
				</clipPath>
				<rect x="30" y="44" class="st10" width="4" height="134.5"/>
			</g>
			<g>
				<defs>
					<path id="SVGID_21_" d="M6.1,0.1h314c3.3,0,6,2.7,6,6v166c0,3.3-2.7,6-6,6H6.1c-3.3,0-6-2.7-6-6V6.1C0.1,2.8,2.8,0.1,6.1,0.1z"
						/>
				</defs>
				<defs>
					<path id="SVGID_22_" d="M6.1,0.2h314c3.2,0,5.9,2.6,5.9,5.9v166c0,3.2-2.6,5.9-5.9,5.9H6.1c-3.2,0-5.9-2.6-5.9-5.9V6.1
						C0.2,2.9,2.9,0.2,6.1,0.2z"/>
				</defs>
				<clipPath id="SVGID_23_">
					<use xlink:href="#SVGID_21_"  style="overflow:visible;"/>
				</clipPath>
				<clipPath id="SVGID_24_" class="st11">
					<use xlink:href="#SVGID_22_"  style="overflow:visible;"/>
				</clipPath>
				<rect x="45.9" y="58" class="st12" width="4" height="134.5"/>
			</g>
			<g>
				<defs>
					<path id="SVGID_25_" d="M6.1,0.1h314c3.3,0,6,2.7,6,6v166c0,3.3-2.7,6-6,6H6.1c-3.3,0-6-2.7-6-6V6.1C0.1,2.8,2.8,0.1,6.1,0.1z"
						/>
				</defs>
				<defs>
					<path id="SVGID_26_" d="M6.1,0.2h314c3.2,0,5.9,2.6,5.9,5.9v166c0,3.2-2.6,5.9-5.9,5.9H6.1c-3.2,0-5.9-2.6-5.9-5.9V6.1
						C0.2,2.9,2.9,0.2,6.1,0.2z"/>
				</defs>
				<clipPath id="SVGID_27_">
					<use xlink:href="#SVGID_25_"  style="overflow:visible;"/>
				</clipPath>
				<clipPath id="SVGID_28_" class="st13">
					<use xlink:href="#SVGID_26_"  style="overflow:visible;"/>
				</clipPath>
				<rect x="53.8" y="56" class="st14" width="4" height="134.5"/>
			</g>
			<g>
				<defs>
					<path id="SVGID_29_" d="M6.1,0.1h314c3.3,0,6,2.7,6,6v166c0,3.3-2.7,6-6,6H6.1c-3.3,0-6-2.7-6-6V6.1C0.1,2.8,2.8,0.1,6.1,0.1z"
						/>
				</defs>
				<defs>
					<path id="SVGID_30_" d="M6.1,0.2h314c3.2,0,5.9,2.6,5.9,5.9v166c0,3.2-2.6,5.9-5.9,5.9H6.1c-3.2,0-5.9-2.6-5.9-5.9V6.1
						C0.2,2.9,2.9,0.2,6.1,0.2z"/>
				</defs>
				<clipPath id="SVGID_31_">
					<use xlink:href="#SVGID_29_"  style="overflow:visible;"/>
				</clipPath>
				<clipPath id="SVGID_32_" class="st15">
					<use xlink:href="#SVGID_30_"  style="overflow:visible;"/>
				</clipPath>
				<rect x="69.7" y="44" class="st16" width="4" height="134.5"/>
			</g>
			<g>
				<defs>
					<path id="SVGID_33_" d="M6.1,0.1h314c3.3,0,6,2.7,6,6v166c0,3.3-2.7,6-6,6H6.1c-3.3,0-6-2.7-6-6V6.1C0.1,2.8,2.8,0.1,6.1,0.1z"
						/>
				</defs>
				<defs>
					<path id="SVGID_34_" d="M6.1,0.2h314c3.2,0,5.9,2.6,5.9,5.9v166c0,3.2-2.6,5.9-5.9,5.9H6.1c-3.2,0-5.9-2.6-5.9-5.9V6.1
						C0.2,2.9,2.9,0.2,6.1,0.2z"/>
				</defs>
				<clipPath id="SVGID_35_">
					<use xlink:href="#SVGID_33_"  style="overflow:visible;"/>
				</clipPath>
				<clipPath id="SVGID_36_" class="st17">
					<use xlink:href="#SVGID_34_"  style="overflow:visible;"/>
				</clipPath>
				<rect x="85.6" y="65" class="st18" width="4" height="134.5"/>
			</g>
			<g>
				<defs>
					<path id="SVGID_37_" d="M6.1,0.1h314c3.3,0,6,2.7,6,6v166c0,3.3-2.7,6-6,6H6.1c-3.3,0-6-2.7-6-6V6.1C0.1,2.8,2.8,0.1,6.1,0.1z"
						/>
				</defs>
				<defs>
					<path id="SVGID_38_" d="M6.1,0.2h314c3.2,0,5.9,2.6,5.9,5.9v166c0,3.2-2.6,5.9-5.9,5.9H6.1c-3.2,0-5.9-2.6-5.9-5.9V6.1
						C0.2,2.9,2.9,0.2,6.1,0.2z"/>
				</defs>
				<clipPath id="SVGID_39_">
					<use xlink:href="#SVGID_37_"  style="overflow:visible;"/>
				</clipPath>
				<clipPath id="SVGID_40_" class="st19">
					<use xlink:href="#SVGID_38_"  style="overflow:visible;"/>
				</clipPath>
				<rect x="93.6" y="44" class="st20" width="4" height="134.5"/>
			</g>
			<g>
				<defs>
					<path id="SVGID_41_" d="M6.1,0.1h314c3.3,0,6,2.7,6,6v166c0,3.3-2.7,6-6,6H6.1c-3.3,0-6-2.7-6-6V6.1C0.1,2.8,2.8,0.1,6.1,0.1z"
						/>
				</defs>
				<defs>
					<path id="SVGID_42_" d="M6.1,0.2h314c3.2,0,5.9,2.6,5.9,5.9v166c0,3.2-2.6,5.9-5.9,5.9H6.1c-3.2,0-5.9-2.6-5.9-5.9V6.1
						C0.2,2.9,2.9,0.2,6.1,0.2z"/>
				</defs>
				<clipPath id="SVGID_43_">
					<use xlink:href="#SVGID_41_"  style="overflow:visible;"/>
				</clipPath>
				<clipPath id="SVGID_44_" class="st21">
					<use xlink:href="#SVGID_42_"  style="overflow:visible;"/>
				</clipPath>
				<rect x="101.5" y="58" class="st22" width="4" height="134.5"/>
			</g>
			<g>
				<defs>
					<path id="SVGID_45_" d="M6.1,0.1h314c3.3,0,6,2.7,6,6v166c0,3.3-2.7,6-6,6H6.1c-3.3,0-6-2.7-6-6V6.1C0.1,2.8,2.8,0.1,6.1,0.1z"
						/>
				</defs>
				<defs>
					<path id="SVGID_46_" d="M6.1,0.2h314c3.2,0,5.9,2.6,5.9,5.9v166c0,3.2-2.6,5.9-5.9,5.9H6.1c-3.2,0-5.9-2.6-5.9-5.9V6.1
						C0.2,2.9,2.9,0.2,6.1,0.2z"/>
				</defs>
				<clipPath id="SVGID_47_">
					<use xlink:href="#SVGID_45_"  style="overflow:visible;"/>
				</clipPath>
				<clipPath id="SVGID_48_" class="st23">
					<use xlink:href="#SVGID_46_"  style="overflow:visible;"/>
				</clipPath>
				<rect x="109.5" y="44" class="st24" width="4" height="134.5"/>
			</g>
			<g>
				<defs>
					<path id="SVGID_49_" d="M6.1,0.1h314c3.3,0,6,2.7,6,6v166c0,3.3-2.7,6-6,6H6.1c-3.3,0-6-2.7-6-6V6.1C0.1,2.8,2.8,0.1,6.1,0.1z"
						/>
				</defs>
				<defs>
					<path id="SVGID_50_" d="M6.1,0.2h314c3.2,0,5.9,2.6,5.9,5.9v166c0,3.2-2.6,5.9-5.9,5.9H6.1c-3.2,0-5.9-2.6-5.9-5.9V6.1
						C0.2,2.9,2.9,0.2,6.1,0.2z"/>
				</defs>
				<clipPath id="SVGID_51_">
					<use xlink:href="#SVGID_49_"  style="overflow:visible;"/>
				</clipPath>
				<clipPath id="SVGID_52_" class="st25">
					<use xlink:href="#SVGID_50_"  style="overflow:visible;"/>
				</clipPath>
				<rect x="37.9" y="58" class="st26" width="4" height="134.5"/>
			</g>
			<g>
				<defs>
					<path id="SVGID_53_" d="M6.1,0.1h314c3.3,0,6,2.7,6,6v166c0,3.3-2.7,6-6,6H6.1c-3.3,0-6-2.7-6-6V6.1C0.1,2.8,2.8,0.1,6.1,0.1z"
						/>
				</defs>
				<defs>
					<path id="SVGID_54_" d="M6.1,0.2h314c3.2,0,5.9,2.6,5.9,5.9v166c0,3.2-2.6,5.9-5.9,5.9H6.1c-3.2,0-5.9-2.6-5.9-5.9V6.1
						C0.2,2.9,2.9,0.2,6.1,0.2z"/>
				</defs>
				<clipPath id="SVGID_55_">
					<use xlink:href="#SVGID_53_"  style="overflow:visible;"/>
				</clipPath>
				<clipPath id="SVGID_56_" class="st27">
					<use xlink:href="#SVGID_54_"  style="overflow:visible;"/>
				</clipPath>
				<rect x="77.7" y="56" class="st28" width="4" height="134.5"/>
			</g>
			<g>
				<defs>
					<path id="SVGID_57_" d="M6.1,0.1h314c3.3,0,6,2.7,6,6v166c0,3.3-2.7,6-6,6H6.1c-3.3,0-6-2.7-6-6V6.1C0.1,2.8,2.8,0.1,6.1,0.1z"
						/>
				</defs>
				<defs>
					<path id="SVGID_58_" d="M6.1,0.2h314c3.2,0,5.9,2.6,5.9,5.9v166c0,3.2-2.6,5.9-5.9,5.9H6.1c-3.2,0-5.9-2.6-5.9-5.9V6.1
						C0.2,2.9,2.9,0.2,6.1,0.2z"/>
				</defs>
				<clipPath id="SVGID_59_">
					<use xlink:href="#SVGID_57_"  style="overflow:visible;"/>
				</clipPath>
				<clipPath id="SVGID_60_" class="st29">
					<use xlink:href="#SVGID_58_"  style="overflow:visible;"/>
				</clipPath>
				<rect x="61.8" y="44" class="st30" width="4" height="134.5"/>
			</g>
		</g>
	</g>
	<g class="st0">
		<path class="st31" d="M54.6,102.1c0.4-8,1.5-14.8,3.3-20.3c1.8-5.6,4.8-11.3,9.1-17.2H46.1v-8.3h31.5v6c-3.5,4.2-6.1,8.2-7.9,12
			C68,78,66.7,82,66,86.1c-0.7,4.1-1.2,9.4-1.4,16C64.6,102.1,54.6,102.1,54.6,102.1z M83.8,76.8h4.9v6.3l-0.2,3.3
			c0.8-0.8,1.7-1.4,2.6-1.9s1.9-0.7,3-0.7c1.9,0,3.3,0.6,4.1,1.9c0.9,1.2,1.4,3,1.4,5.3v11.1h-4.9V91.6c0-1.3-0.2-2.2-0.6-2.8
			c-0.4-0.5-1-0.8-1.8-0.8c-0.7,0-1.3,0.1-1.8,0.4s-1.1,0.8-1.8,1.4V102h-4.9C83.8,102,83.8,76.8,83.8,76.8z M104.6,84.3h4l0.4,3.1
			h0.1c0.6-1.2,1.4-2,2.3-2.6s1.8-0.9,2.8-0.9c0.8,0,1.5,0.1,2.1,0.4l-0.8,4.2c-0.1,0-0.3-0.1-0.6-0.1c-0.4-0.1-0.8-0.1-1.2-0.1
			c-0.8,0-1.5,0.3-2.2,0.8s-1.3,1.4-1.8,2.6v10.5h-4.9V84.3H104.6z M142,96.4c5-4.8,8.8-8.5,11.4-11.2c2.6-2.7,4.8-5.4,6.3-7.8
			s2.4-4.8,2.4-6.9c0-2.3-0.6-4-1.8-5.3c-1.2-1.3-2.9-1.9-5-1.9c-1.5,0-3,0.4-4.3,1.3s-2.7,2-4,3.5l-5.4-5.3
			c2.3-2.4,4.6-4.2,6.9-5.4c2.4-1.2,5.1-1.8,8.2-1.8c4.5,0,8.1,1.3,10.8,4c2.7,2.6,4.1,6.1,4.1,10.4c0,3.6-1.3,7.2-4,11.1
			c-2.6,3.8-6.4,8.3-11.4,13.4c2.8-0.3,5.4-0.5,7.7-0.5h9.9v8.3H142V96.4z M196.5,103c-3.3,0-6.1-0.9-8.6-2.7
			c-2.4-1.9-4.3-4.6-5.6-8.2s-1.9-7.9-1.9-13c0-7.6,1.4-13.4,4.3-17.4c2.9-4.1,6.8-6.1,11.8-6.1c4.9,0,8.9,2,11.7,6.1
			c2.9,4,4.3,9.8,4.3,17.4c0,5.1-0.7,9.4-2,13s-3.1,6.3-5.5,8.2C202.6,102.1,199.8,103,196.5,103z M196.5,95.4c2.1,0,3.8-1.2,5-3.7
			s1.8-6.7,1.8-12.7c0-5.9-0.6-10-1.8-12.3c-1.2-2.4-2.9-3.6-5-3.6c-2.2,0-3.8,1.2-5,3.5c-1.2,2.4-1.7,6.5-1.7,12.4
			c0,6,0.6,10.2,1.8,12.7C192.7,94.1,194.4,95.4,196.5,95.4z M218.5,84.3h4l0.4,2.3h0.1c0.9-0.9,1.7-1.6,2.6-2.1s1.8-0.7,2.8-0.7
			c1.2,0,2.3,0.3,3.1,0.8s1.4,1.3,1.9,2.3c0.9-1,1.8-1.7,2.7-2.2c0.9-0.6,1.9-0.8,2.9-0.8c1.9,0,3.3,0.6,4.2,1.9
			c0.9,1.2,1.4,3,1.4,5.3v11.1h-4.9V91.6c0-1.3-0.2-2.2-0.6-2.7c-0.4-0.6-1-0.8-1.8-0.8c-1,0-2.1,0.6-3.3,1.9v12.2h-5V91.6
			c0-1.3-0.2-2.2-0.6-2.7c-0.4-0.6-1-0.8-1.8-0.8c-1,0-2.1,0.6-3.3,1.9v12.2h-4.9V84.3H218.5z M249.5,84.3h4.9v17.8h-4.9V84.3z
			 M252,81.5c-0.8,0-1.5-0.2-2-0.7s-0.8-1.1-0.8-1.9s0.3-1.4,0.8-1.9s1.2-0.8,2-0.8s1.5,0.3,2,0.8s0.8,1.1,0.8,1.9s-0.3,1.4-0.8,1.9
			S252.8,81.5,252,81.5z M259.7,84.3h4l0.4,2.3h0.1c0.9-0.8,1.8-1.5,2.7-2c0.9-0.5,2-0.8,3.1-0.8c1.9,0,3.3,0.6,4.1,1.9
			c0.9,1.2,1.4,3,1.4,5.3v11.1h-4.9V91.6c0-1.3-0.2-2.2-0.6-2.8c-0.4-0.5-1-0.8-1.8-0.8c-0.7,0-1.3,0.1-1.8,0.4s-1.1,0.8-1.8,1.4
			V102h-4.9L259.7,84.3L259.7,84.3z M285.7,102.6c-1.2,0-2.4-0.2-3.6-0.7s-2.3-1.1-3.2-1.8l2.2-3.1c0.8,0.6,1.6,1.1,2.4,1.4
			s1.5,0.5,2.3,0.5s1.4-0.1,1.8-0.4s0.6-0.7,0.6-1.3c0-0.4-0.2-0.7-0.5-1s-0.8-0.6-1.4-0.8c-0.6-0.3-1.2-0.5-1.8-0.8
			c-1.4-0.6-2.6-1.2-3.5-2s-1.3-1.9-1.3-3.2c0-1.6,0.6-3,1.8-4c1.2-1,2.8-1.5,4.9-1.5c2.2,0,4.3,0.7,6.2,2.2l-2.2,3
			c-1.4-1-2.7-1.5-3.8-1.5c-0.7,0-1.3,0.1-1.7,0.4c-0.4,0.3-0.5,0.7-0.5,1.2s0.2,0.9,0.7,1.2c0.5,0.3,1,0.5,1.7,0.8s1,0.4,1.2,0.4
			c1.5,0.6,2.7,1.2,3.6,2s1.3,1.9,1.3,3.3c0,1.1-0.3,2.1-0.9,2.9s-1.4,1.5-2.4,2C288.5,102.3,287.2,102.6,285.7,102.6z"/>
	</g>
	<g class="st0">
		<path class="st1" d="M62.5,185h1l1.4,4l0.5,1.5l0,0c0.1-0.1,0.1-0.3,0.2-0.6c0.1-0.4,0.2-0.7,0.3-0.9l1.4-4h1v7.2h-0.8V188
			c0-0.4,0-1.1,0.1-2.1l0,0l-0.6,1.6l-1.4,3.9H65l-1.4-3.9l-0.6-1.6l0,0v0.3c0.1,0.8,0.1,1.4,0.1,1.8v4.2h-0.7V185H62.5z
			 M72.5,192.3c-0.4,0-0.8-0.1-1.2-0.3c-0.4-0.2-0.7-0.5-0.9-1c-0.2-0.4-0.3-0.9-0.3-1.5s0.1-1.1,0.3-1.5c0.2-0.4,0.5-0.7,0.9-1
			c0.4-0.2,0.8-0.3,1.2-0.3c0.4,0,0.8,0.1,1.2,0.3c0.4,0.2,0.7,0.5,0.9,1c0.2,0.4,0.3,0.9,0.3,1.5s-0.1,1.1-0.3,1.5
			c-0.2,0.4-0.5,0.7-0.9,1C73.4,192.2,73,192.3,72.5,192.3z M72.5,191.7c0.3,0,0.6-0.1,0.8-0.3c0.2-0.2,0.4-0.4,0.6-0.7
			c0.1-0.3,0.2-0.7,0.2-1.1s-0.1-0.8-0.2-1.1s-0.3-0.6-0.6-0.7c-0.2-0.2-0.5-0.3-0.8-0.3s-0.6,0.1-0.8,0.3c-0.2,0.2-0.4,0.4-0.6,0.7
			c-0.1,0.3-0.2,0.7-0.2,1.1c0,0.6,0.2,1.2,0.5,1.5C71.7,191.5,72.1,191.7,72.5,191.7z M76.5,186.9h0.7l0.1,0.8l0,0
			c0.3-0.3,0.6-0.5,0.9-0.7s0.6-0.2,0.9-0.2c0.6,0,1,0.2,1.2,0.5c0.3,0.3,0.4,0.9,0.4,1.6v3.4h-0.8V189c0-0.5-0.1-0.9-0.3-1.1
			c-0.2-0.2-0.4-0.4-0.8-0.4c-0.3,0-0.5,0.1-0.7,0.2c-0.2,0.1-0.5,0.3-0.8,0.6v3.9h-0.8L76.5,186.9L76.5,186.9z"/>
		<path class="st1" d="M109.6,185.7h-2.2V185h5.2v0.7h-2.2v6.5h-0.8V185.7z M115,192.3c-0.6,0-1-0.2-1.2-0.5
			c-0.3-0.4-0.4-0.9-0.4-1.6v-3.4h0.8v3.3c0,0.5,0.1,0.9,0.3,1.1c0.2,0.2,0.4,0.4,0.8,0.4c0.3,0,0.5-0.1,0.7-0.2
			c0.2-0.1,0.5-0.4,0.8-0.7v-3.8h0.8v5.3h-0.7l-0.1-0.8l0,0c-0.3,0.3-0.5,0.6-0.8,0.7C115.7,192.3,115.4,192.3,115,192.3z
			 M123.6,189.2c0,0.2,0,0.4,0,0.5h-3.7c0,0.6,0.2,1.1,0.6,1.5c0.4,0.3,0.8,0.5,1.3,0.5s0.9-0.1,1.4-0.4l0.3,0.5
			c-0.3,0.2-0.5,0.3-0.8,0.4c-0.3,0.1-0.6,0.1-0.9,0.1c-0.5,0-0.9-0.1-1.3-0.3s-0.7-0.6-0.9-1c-0.2-0.4-0.3-0.9-0.3-1.5
			s0.1-1,0.3-1.5c0.2-0.4,0.5-0.8,0.9-1s0.8-0.4,1.2-0.4c0.7,0,1.2,0.2,1.5,0.7C123.4,187.9,123.6,188.5,123.6,189.2z M122.9,189.1
			c0-0.6-0.1-1-0.4-1.3s-0.6-0.5-1-0.5s-0.7,0.1-1.1,0.5s-0.5,0.7-0.6,1.3H122.9z"/>
		<path class="st1" d="M150.7,185h0.8l0.8,4l0.4,2.3l0,0c0.1-0.5,0.3-1.3,0.5-2.3l1-4h0.7l1,4c0.1,0.4,0.2,0.7,0.2,0.9l0.3,1.5l0,0
			l0.1-0.6c0.1-0.7,0.2-1.3,0.3-1.7l0.8-4h0.8l-1.5,7.2h-1l-1.2-4.5c0-0.1-0.1-0.3-0.1-0.4c0-0.1,0-0.2-0.1-0.3
			c-0.1-0.3-0.1-0.6-0.2-1l0,0l-0.4,1.6l-1.1,4.5h-1L150.7,185z M164.1,189.2c0,0.2,0,0.4,0,0.5h-3.7c0,0.6,0.2,1.1,0.6,1.5
			c0.4,0.3,0.8,0.5,1.3,0.5s0.9-0.1,1.4-0.4l0.3,0.5c-0.3,0.2-0.5,0.3-0.8,0.4c-0.3,0.1-0.6,0.1-0.9,0.1c-0.5,0-0.9-0.1-1.3-0.3
			c-0.4-0.2-0.7-0.6-0.9-1s-0.3-0.9-0.3-1.5s0.1-1,0.3-1.5c0.2-0.4,0.5-0.8,0.9-1s0.8-0.4,1.2-0.4c0.7,0,1.2,0.2,1.5,0.7
			C163.9,187.9,164.1,188.5,164.1,189.2z M163.4,189.1c0-0.6-0.1-1-0.4-1.3s-0.6-0.5-1-0.5s-0.7,0.1-1.1,0.5s-0.5,0.7-0.6,1.3H163.4
			z M167.4,192.3c-0.7,0-1.2-0.2-1.6-0.7c-0.4-0.5-0.6-1.2-0.6-2.1c0-0.6,0.1-1,0.3-1.5c0.2-0.4,0.5-0.8,0.8-1
			c0.4-0.2,0.7-0.4,1.2-0.4c0.3,0,0.5,0.1,0.8,0.2c0.2,0.1,0.5,0.3,0.7,0.5v-0.9v-2.1h0.8v7.9h-0.7l-0.1-0.6l0,0
			c-0.2,0.2-0.5,0.4-0.8,0.6C168,192.3,167.7,192.3,167.4,192.3z M167.5,191.7c0.3,0,0.5-0.1,0.7-0.2c0.2-0.1,0.5-0.3,0.7-0.6V188
			c-0.2-0.2-0.5-0.4-0.7-0.4c-0.2-0.1-0.4-0.1-0.7-0.1s-0.6,0.1-0.8,0.3s-0.4,0.4-0.6,0.8c-0.1,0.3-0.2,0.7-0.2,1.1
			c0,0.7,0.1,1.2,0.4,1.6C166.7,191.5,167,191.7,167.5,191.7z"/>
		<path class="st1" d="M200.1,185.7h-2.2V185h5.2v0.7h-2.2v6.5h-0.8V185.7z M204.5,184.4h0.8v2.2v1.1c0.3-0.3,0.6-0.5,0.9-0.7
			c0.3-0.2,0.6-0.2,0.9-0.2c0.6,0,1,0.2,1.2,0.5c0.3,0.3,0.4,0.9,0.4,1.6v3.4h-0.8V189c0-0.5-0.1-0.9-0.3-1.1
			c-0.2-0.2-0.4-0.4-0.8-0.4c-0.3,0-0.5,0.1-0.7,0.2c-0.2,0.1-0.5,0.3-0.8,0.6v3.9h-0.8L204.5,184.4L204.5,184.4z M212.1,192.3
			c-0.6,0-1-0.2-1.2-0.5c-0.3-0.4-0.4-0.9-0.4-1.6v-3.4h0.8v3.3c0,0.5,0.1,0.9,0.3,1.1c0.2,0.2,0.4,0.4,0.8,0.4
			c0.3,0,0.5-0.1,0.7-0.2c0.2-0.1,0.5-0.4,0.8-0.7v-3.8h0.8v5.3H214l-0.1-0.8l0,0c-0.3,0.3-0.5,0.6-0.8,0.7
			C212.7,192.3,212.4,192.3,212.1,192.3z"/>
		<path class="st1" d="M246.7,185h4.1v0.7h-3.3v2.6h2.8v0.7h-2.8v3.3h-0.8V185z M251.9,186.9h0.7l0.1,1l0,0c0.2-0.3,0.4-0.6,0.7-0.8
			s0.5-0.3,0.8-0.3c0.2,0,0.4,0,0.5,0.1l-0.2,0.7c-0.2-0.1-0.4-0.1-0.5-0.1c-0.2,0-0.5,0.1-0.7,0.3s-0.5,0.5-0.6,1v3.5h-0.8V186.9z
			 M255.7,186.9h0.8v5.3h-0.8V186.9z M256.1,185.7c-0.2,0-0.3-0.1-0.4-0.2c-0.1-0.1-0.2-0.2-0.2-0.4s0.1-0.3,0.2-0.4
			c0.1-0.1,0.2-0.2,0.4-0.2c0.2,0,0.3,0.1,0.4,0.2c0.1,0.1,0.2,0.2,0.2,0.4s-0.1,0.3-0.2,0.4S256.3,185.7,256.1,185.7z"/>
		<path class="st1" d="M293,192.3c-0.5,0-1-0.1-1.4-0.3s-0.8-0.5-1.1-0.8l0.5-0.6c0.3,0.3,0.6,0.5,0.9,0.7c0.4,0.2,0.7,0.2,1.1,0.2
			c0.5,0,0.9-0.1,1.2-0.3c0.3-0.2,0.4-0.5,0.4-0.9c0-0.2-0.1-0.4-0.2-0.6c-0.1-0.2-0.2-0.3-0.4-0.4c-0.2-0.1-0.4-0.2-0.7-0.3l-1-0.5
			c-0.4-0.2-0.8-0.4-1.1-0.7c-0.3-0.3-0.4-0.7-0.4-1.1c0-0.4,0.1-0.7,0.3-1c0.2-0.3,0.5-0.5,0.8-0.7s0.7-0.2,1.1-0.2
			s0.8,0.1,1.2,0.2c0.4,0.2,0.7,0.4,0.9,0.6l-0.4,0.5c-0.5-0.5-1-0.7-1.7-0.7c-0.4,0-0.8,0.1-1,0.3c-0.3,0.2-0.4,0.5-0.4,0.8
			c0,0.2,0.1,0.4,0.2,0.6c0.1,0.2,0.3,0.3,0.4,0.4c0.2,0.1,0.4,0.2,0.6,0.3l1,0.5c0.5,0.2,0.8,0.4,1.1,0.7c0.3,0.3,0.4,0.7,0.4,1.2
			c0,0.4-0.1,0.7-0.3,1c-0.2,0.3-0.5,0.5-0.8,0.7C293.9,192.3,293.5,192.3,293,192.3z M298.1,192.3c-0.5,0-0.8-0.1-1.1-0.4
			s-0.4-0.6-0.4-1.1c0-0.6,0.3-1,0.8-1.3s1.4-0.5,2.5-0.7c0-0.4-0.1-0.8-0.3-1c-0.2-0.3-0.5-0.4-0.9-0.4c-0.5,0-1,0.2-1.6,0.6
			l-0.3-0.5c0.7-0.5,1.4-0.7,2.1-0.7c0.6,0,1.1,0.2,1.4,0.6c0.3,0.4,0.4,0.9,0.4,1.6v3.3H300l-0.1-0.6l0,0
			C299.3,192.1,298.7,192.3,298.1,192.3z M298.3,191.7c0.3,0,0.5-0.1,0.7-0.2c0.2-0.1,0.5-0.3,0.8-0.6v-1.6c-0.9,0.1-1.6,0.3-2,0.5
			s-0.6,0.5-0.6,0.9c0,0.3,0.1,0.5,0.3,0.7C297.8,191.6,298,191.7,298.3,191.7z M304,192.3c-0.5,0-0.9-0.1-1.1-0.5
			c-0.2-0.3-0.3-0.7-0.3-1.3v-3.1h-0.8v-0.6l0.8-0.1l0.1-1.5h0.7v1.5h1.5v0.7h-1.5v3.1c0,0.4,0.1,0.6,0.2,0.8s0.4,0.3,0.7,0.3
			c0.2,0,0.4,0,0.6-0.1l0.2,0.6C304.6,192.3,304.2,192.3,304,192.3z"/>
		<path class="st1" d="M21.5,192.3c-0.5,0-1-0.1-1.4-0.3s-0.8-0.5-1.1-0.8l0.5-0.6c0.3,0.3,0.6,0.5,0.9,0.7c0.4,0.2,0.7,0.2,1.1,0.2
			c0.5,0,0.9-0.1,1.2-0.3c0.3-0.2,0.4-0.5,0.4-0.9c0-0.2-0.1-0.4-0.2-0.6c-0.1-0.2-0.2-0.3-0.4-0.4c-0.2-0.1-0.4-0.2-0.7-0.3l-1-0.5
			c-0.4-0.2-0.8-0.4-1.1-0.7c-0.3-0.3-0.4-0.7-0.4-1.1c0-0.4,0.1-0.7,0.3-1c0.2-0.3,0.5-0.5,0.8-0.7s0.7-0.2,1.1-0.2
			s0.8,0.1,1.2,0.2c0.4,0.2,0.7,0.4,0.9,0.6l-0.4,0.5c-0.5-0.5-1-0.7-1.7-0.7c-0.4,0-0.8,0.1-1,0.3c-0.3,0.2-0.4,0.5-0.4,0.8
			c0,0.2,0.1,0.4,0.2,0.6c0.1,0.2,0.3,0.3,0.4,0.4c0.2,0.1,0.4,0.2,0.6,0.3l1,0.5c0.5,0.2,0.8,0.4,1.1,0.7c0.3,0.3,0.4,0.7,0.4,1.2
			c0,0.4-0.1,0.7-0.3,1c-0.2,0.3-0.5,0.5-0.8,0.7C22.5,192.3,22,192.3,21.5,192.3z M27,192.3c-0.5,0-1-0.2-1.2-0.5
			c-0.3-0.4-0.4-0.9-0.4-1.6v-3.4h0.8v3.3c0,0.5,0.1,0.9,0.3,1.1c0.2,0.2,0.4,0.4,0.8,0.4c0.3,0,0.5-0.1,0.7-0.2
			c0.2-0.1,0.5-0.4,0.8-0.7v-3.8h0.8v5.3h-0.7l-0.1-0.8l0,0c-0.3,0.3-0.5,0.6-0.8,0.7C27.6,192.3,27.3,192.3,27,192.3z M31.5,186.9
			h0.7l0.1,0.8l0,0c0.3-0.3,0.6-0.5,0.9-0.7c0.3-0.2,0.6-0.2,0.9-0.2c0.6,0,1,0.2,1.2,0.5c0.3,0.3,0.4,0.9,0.4,1.6v3.4h-0.8V189
			c0-0.5-0.1-0.9-0.3-1.1c-0.2-0.2-0.4-0.4-0.8-0.4c-0.3,0-0.5,0.1-0.7,0.2c-0.2,0.1-0.5,0.3-0.8,0.6v3.9h-0.8
			C31.5,192.2,31.5,186.9,31.5,186.9z"/>
		<g class="st2">
			<g>
				<defs>
					<path id="SVGID_61_" d="M6.1,0.1h313c3.3,0,6,2.7,6,6v166c0,3.3-2.7,6-6,6H6.1c-3.3,0-6-2.7-6-6V6.1C0.1,2.8,2.8,0.1,6.1,0.1z"
						/>
				</defs>
				<clipPath id="SVGID_62_">
					<use xlink:href="#SVGID_61_"  style="overflow:visible;"/>
				</clipPath>
			</g>
			<g>
				<defs>
					<path id="SVGID_63_" d="M6.1,0.1h313c3.3,0,6,2.7,6,6v166c0,3.3-2.7,6-6,6H6.1c-3.3,0-6-2.7-6-6V6.1C0.1,2.8,2.8,0.1,6.1,0.1z"
						/>
				</defs>
				<defs>
					<path id="SVGID_64_" d="M6.1,0.2h313c3.2,0,5.9,2.6,5.9,5.9v166c0,3.2-2.6,5.9-5.9,5.9H6.1c-3.2,0-5.9-2.6-5.9-5.9V6.1
						C0.2,2.9,2.9,0.2,6.1,0.2z"/>
				</defs>
				<clipPath id="SVGID_65_">
					<use xlink:href="#SVGID_63_"  style="overflow:visible;"/>
				</clipPath>
				<clipPath id="SVGID_66_" class="st32">
					<use xlink:href="#SVGID_64_"  style="overflow:visible;"/>
				</clipPath>
				<rect x="20.1" y="64.2" class="st33" width="14.6" height="134.5"/>
			</g>
			<g>
				<defs>
					<path id="SVGID_67_" d="M6.1,0.1h313c3.3,0,6,2.7,6,6v166c0,3.3-2.7,6-6,6H6.1c-3.3,0-6-2.7-6-6V6.1C0.1,2.8,2.8,0.1,6.1,0.1z"
						/>
				</defs>
				<defs>
					<path id="SVGID_68_" d="M6.1,0.2h313c3.2,0,5.9,2.6,5.9,5.9v166c0,3.2-2.6,5.9-5.9,5.9H6.1c-3.2,0-5.9-2.6-5.9-5.9V6.1
						C0.2,2.9,2.9,0.2,6.1,0.2z"/>
				</defs>
				<clipPath id="SVGID_69_">
					<use xlink:href="#SVGID_67_"  style="overflow:visible;"/>
				</clipPath>
				<clipPath id="SVGID_70_" class="st34">
					<use xlink:href="#SVGID_68_"  style="overflow:visible;"/>
				</clipPath>
				<rect x="65.1" y="46.2" class="st35" width="14.6" height="134.5"/>
			</g>
			<g>
				<defs>
					<path id="SVGID_71_" d="M6.1,0.1h313c3.3,0,6,2.7,6,6v166c0,3.3-2.7,6-6,6H6.1c-3.3,0-6-2.7-6-6V6.1C0.1,2.8,2.8,0.1,6.1,0.1z"
						/>
				</defs>
				<defs>
					<path id="SVGID_72_" d="M6.1,0.2h313c3.2,0,5.9,2.6,5.9,5.9v166c0,3.2-2.6,5.9-5.9,5.9H6.1c-3.2,0-5.9-2.6-5.9-5.9V6.1
						C0.2,2.9,2.9,0.2,6.1,0.2z"/>
				</defs>
				<clipPath id="SVGID_73_">
					<use xlink:href="#SVGID_71_"  style="overflow:visible;"/>
				</clipPath>
				<clipPath id="SVGID_74_" class="st36">
					<use xlink:href="#SVGID_72_"  style="overflow:visible;"/>
				</clipPath>
				<rect x="110.1" y="57.2" class="st37" width="14.6" height="134.5"/>
			</g>
			<g>
				<defs>
					<path id="SVGID_75_" d="M6.1,0.1h313c3.3,0,6,2.7,6,6v166c0,3.3-2.7,6-6,6H6.1c-3.3,0-6-2.7-6-6V6.1C0.1,2.8,2.8,0.1,6.1,0.1z"
						/>
				</defs>
				<defs>
					<path id="SVGID_76_" d="M6.1,0.2h313c3.2,0,5.9,2.6,5.9,5.9v166c0,3.2-2.6,5.9-5.9,5.9H6.1c-3.2,0-5.9-2.6-5.9-5.9V6.1
						C0.2,2.9,2.9,0.2,6.1,0.2z"/>
				</defs>
				<clipPath id="SVGID_77_">
					<use xlink:href="#SVGID_75_"  style="overflow:visible;"/>
				</clipPath>
				<clipPath id="SVGID_78_" class="st38">
					<use xlink:href="#SVGID_76_"  style="overflow:visible;"/>
				</clipPath>
				<rect x="155.1" y="44.8" class="st39" width="14.6" height="134.5"/>
			</g>
			<g>
				<defs>
					<path id="SVGID_79_" d="M6.1,0.1h313c3.3,0,6,2.7,6,6v166c0,3.3-2.7,6-6,6H6.1c-3.3,0-6-2.7-6-6V6.1C0.1,2.8,2.8,0.1,6.1,0.1z"
						/>
				</defs>
				<defs>
					<path id="SVGID_80_" d="M6.1,0.2h313c3.2,0,5.9,2.6,5.9,5.9v166c0,3.2-2.6,5.9-5.9,5.9H6.1c-3.2,0-5.9-2.6-5.9-5.9V6.1
						C0.2,2.9,2.9,0.2,6.1,0.2z"/>
				</defs>
				<clipPath id="SVGID_81_">
					<use xlink:href="#SVGID_79_"  style="overflow:visible;"/>
				</clipPath>
				<clipPath id="SVGID_82_" class="st40">
					<use xlink:href="#SVGID_80_"  style="overflow:visible;"/>
				</clipPath>
				<rect x="201.1" y="57.2" class="st41" width="14.6" height="134.5"/>
			</g>
			<g>
				<defs>
					<path id="SVGID_83_" d="M6.1,0.1h313c3.3,0,6,2.7,6,6v166c0,3.3-2.7,6-6,6H6.1c-3.3,0-6-2.7-6-6V6.1C0.1,2.8,2.8,0.1,6.1,0.1z"
						/>
				</defs>
				<defs>
					<path id="SVGID_84_" d="M6.1,0.2h313c3.2,0,5.9,2.6,5.9,5.9v166c0,3.2-2.6,5.9-5.9,5.9H6.1c-3.2,0-5.9-2.6-5.9-5.9V6.1
						C0.2,2.9,2.9,0.2,6.1,0.2z"/>
				</defs>
				<clipPath id="SVGID_85_">
					<use xlink:href="#SVGID_83_"  style="overflow:visible;"/>
				</clipPath>
				<clipPath id="SVGID_86_" class="st42">
					<use xlink:href="#SVGID_84_"  style="overflow:visible;"/>
				</clipPath>
				<rect x="246.1" y="55.2" class="st43" width="14.6" height="134.5"/>
			</g>
			<g>
				<defs>
					<path id="SVGID_87_" d="M6.1,0.1h313c3.3,0,6,2.7,6,6v166c0,3.3-2.7,6-6,6H6.1c-3.3,0-6-2.7-6-6V6.1C0.1,2.8,2.8,0.1,6.1,0.1z"
						/>
				</defs>
				<defs>
					<path id="SVGID_88_" d="M6.1,0.2h313c3.2,0,5.9,2.6,5.9,5.9v166c0,3.2-2.6,5.9-5.9,5.9H6.1c-3.2,0-5.9-2.6-5.9-5.9V6.1
						C0.2,2.9,2.9,0.2,6.1,0.2z"/>
				</defs>
				<clipPath id="SVGID_89_">
					<use xlink:href="#SVGID_87_"  style="overflow:visible;"/>
				</clipPath>
				<clipPath id="SVGID_90_" class="st44">
					<use xlink:href="#SVGID_88_"  style="overflow:visible;"/>
				</clipPath>
				<rect x="291.1" y="44.8" class="st45" width="14.6" height="134.5"/>
			</g>
		</g>
	</g>
	<g class="st0">
		<path class="st1" d="M141.2,188.3c-0.9,0-1.5-0.4-1.9-1.1l0.6-0.4c0.2,0.3,0.3,0.5,0.6,0.6s0.5,0.2,0.7,0.2c0.4,0,0.7-0.1,0.9-0.4
			c0.2-0.3,0.3-0.7,0.3-1.2v-5.1h0.8v5.1c0,0.7-0.2,1.2-0.5,1.6S141.8,188.3,141.2,188.3z M146.7,188.3c-0.6,0-1-0.2-1.2-0.5
			c-0.3-0.4-0.4-0.9-0.4-1.6v-3.4h0.8v3.3c0,0.5,0.1,0.9,0.3,1.1c0.2,0.2,0.4,0.4,0.8,0.4c0.3,0,0.5-0.1,0.7-0.2
			c0.2-0.1,0.5-0.4,0.8-0.7v-3.8h0.8v5.3h-0.7l-0.1-0.8l0,0c-0.3,0.3-0.6,0.6-0.8,0.7C147.3,188.2,147,188.3,146.7,188.3z
			 M151.2,182.8h0.7l0.1,0.8l0,0c0.3-0.3,0.6-0.5,0.9-0.7c0.3-0.2,0.6-0.2,0.9-0.2c0.6,0,1,0.2,1.2,0.5c0.3,0.3,0.4,0.9,0.4,1.6v3.4
			h-0.8v-3.3c0-0.5-0.1-0.9-0.3-1.1c-0.2-0.2-0.4-0.4-0.8-0.4c-0.3,0-0.5,0.1-0.7,0.2c-0.2,0.1-0.5,0.3-0.8,0.6v3.9h-0.8
			L151.2,182.8L151.2,182.8z"/>
		<path class="st1" d="M221.8,188.3c-0.5,0-1-0.1-1.4-0.3s-0.8-0.5-1.1-0.8l0.5-0.6c0.3,0.3,0.6,0.5,0.9,0.7
			c0.4,0.2,0.7,0.2,1.1,0.2c0.5,0,0.9-0.1,1.2-0.3s0.4-0.5,0.4-0.9c0-0.2-0.1-0.4-0.2-0.6c-0.1-0.2-0.2-0.3-0.4-0.4
			c-0.2-0.1-0.4-0.2-0.7-0.3l-1-0.5c-0.4-0.2-0.8-0.4-1.1-0.7s-0.4-0.7-0.4-1.1c0-0.4,0.1-0.7,0.3-1s0.5-0.5,0.8-0.7
			s0.7-0.2,1.1-0.2s0.8,0.1,1.2,0.2c0.4,0.2,0.7,0.4,0.9,0.6l-0.4,0.5c-0.5-0.5-1-0.7-1.7-0.7c-0.4,0-0.8,0.1-1,0.3
			c-0.3,0.2-0.4,0.5-0.4,0.8c0,0.2,0.1,0.4,0.2,0.6c0.1,0.2,0.3,0.3,0.4,0.4c0.2,0.1,0.4,0.2,0.6,0.3l1,0.5c0.5,0.2,0.8,0.4,1.1,0.7
			s0.4,0.7,0.4,1.2c0,0.4-0.1,0.7-0.3,1s-0.5,0.5-0.8,0.7C222.7,188.2,222.2,188.3,221.8,188.3z M229.7,185.2c0,0.2,0,0.4,0,0.5H226
			c0,0.6,0.2,1.1,0.6,1.5c0.4,0.3,0.8,0.5,1.3,0.5s0.9-0.1,1.4-0.4l0.3,0.5c-0.3,0.2-0.5,0.3-0.8,0.4c-0.3,0.1-0.6,0.1-0.9,0.1
			c-0.5,0-0.9-0.1-1.3-0.3c-0.4-0.2-0.7-0.6-0.9-1s-0.3-0.9-0.3-1.5s0.1-1,0.3-1.5c0.2-0.4,0.5-0.8,0.9-1s0.8-0.4,1.2-0.4
			c0.7,0,1.2,0.2,1.5,0.7C229.5,183.8,229.7,184.4,229.7,185.2z M229,185.1c0-0.6-0.1-1-0.4-1.3s-0.6-0.5-1-0.5s-0.7,0.1-1.1,0.5
			s-0.5,0.7-0.6,1.3H229z M231.2,182.8h0.7l0.1,0.6l0,0c0.6-0.5,1.2-0.8,1.7-0.8c0.7,0,1.2,0.2,1.6,0.7c0.4,0.5,0.6,1.1,0.6,2
			c0,0.6-0.1,1.1-0.3,1.5s-0.5,0.8-0.8,1c-0.4,0.2-0.7,0.3-1.1,0.3c-0.5,0-1-0.2-1.5-0.6v0.9v1.8h-0.8v-7.4H231.2z M233.3,187.6
			c0.3,0,0.6-0.1,0.8-0.3s0.4-0.4,0.6-0.8c0.1-0.3,0.2-0.7,0.2-1.2c0-0.6-0.1-1.1-0.4-1.5c-0.2-0.4-0.6-0.5-1.1-0.5
			c-0.4,0-1,0.3-1.5,0.8v2.9c0.2,0.2,0.5,0.4,0.7,0.5C232.9,187.5,233.1,187.6,233.3,187.6z"/>
		<path class="st1" d="M64.9,180.9h1l1.4,4l0.5,1.5l0,0c0.1-0.1,0.1-0.3,0.2-0.6c0.1-0.4,0.2-0.7,0.3-0.9l1.4-4h1v7.2H70v-4.2
			c0-0.4,0-1.1,0.1-2.1l0,0l-0.6,1.6l-1.4,3.9h-0.6l-1.4-3.9l-0.6-1.6l0,0v0.3c0.1,0.8,0.1,1.4,0.1,1.8v4.2h-0.7V180.9z M74,188.3
			c-0.5,0-0.8-0.1-1.1-0.4c-0.3-0.3-0.4-0.6-0.4-1.1c0-0.6,0.3-1,0.8-1.3s1.4-0.5,2.5-0.7c0-0.4-0.1-0.8-0.3-1
			c-0.2-0.3-0.5-0.4-0.9-0.4c-0.5,0-1,0.2-1.6,0.6l-0.3-0.5c0.7-0.5,1.4-0.7,2.1-0.7c0.6,0,1.1,0.2,1.4,0.6c0.3,0.4,0.4,0.9,0.4,1.6
			v3.3h-0.7l-0.1-0.6l0,0C75.2,188,74.6,188.3,74,188.3z M74.2,187.6c0.3,0,0.5-0.1,0.7-0.2c0.2-0.1,0.5-0.3,0.8-0.6v-1.6
			c-0.9,0.1-1.6,0.3-2,0.5s-0.6,0.5-0.6,0.9c0,0.3,0.1,0.5,0.3,0.7C73.7,187.5,74,187.6,74.2,187.6z M78.4,182.8h0.7l0.1,1l0,0
			c0.2-0.3,0.4-0.6,0.7-0.8s0.5-0.3,0.8-0.3c0.2,0,0.4,0,0.5,0.1l-0.2,0.7c-0.2-0.1-0.4-0.1-0.5-0.1c-0.2,0-0.5,0.1-0.7,0.3
			s-0.5,0.5-0.6,1v3.5h-0.8V182.8z"/>
		<path class="st1" d="M295.9,180.9h1.8c1.1,0,1.9,0.3,2.5,0.9c0.6,0.6,0.9,1.5,0.9,2.7s-0.3,2-0.9,2.7c-0.6,0.6-1.4,1-2.5,1h-1.8
			V180.9z M297.6,187.5c0.9,0,1.5-0.3,1.9-0.8s0.7-1.3,0.7-2.2s-0.2-1.7-0.7-2.2c-0.4-0.5-1.1-0.8-1.9-0.8h-0.9v5.9h0.9V187.5z
			 M306.7,185.2c0,0.2,0,0.4,0,0.5H303c0,0.6,0.2,1.1,0.6,1.5c0.4,0.3,0.8,0.5,1.3,0.5s0.9-0.1,1.4-0.4l0.3,0.5
			c-0.3,0.2-0.5,0.3-0.8,0.4c-0.3,0.1-0.6,0.1-0.9,0.1c-0.5,0-0.9-0.1-1.3-0.3s-0.7-0.6-0.9-1c-0.2-0.4-0.3-0.9-0.3-1.5
			s0.1-1,0.3-1.5c0.2-0.4,0.5-0.8,0.9-1s0.8-0.4,1.2-0.4c0.7,0,1.2,0.2,1.5,0.7C306.5,183.8,306.7,184.4,306.7,185.2z M306,185.1
			c0-0.6-0.1-1-0.4-1.3s-0.6-0.5-1-0.5s-0.7,0.1-1.1,0.5c-0.3,0.3-0.5,0.7-0.5,1.3H306z M310.2,188.3c-0.5,0-0.9-0.1-1.3-0.3
			s-0.7-0.5-0.9-1c-0.2-0.4-0.3-0.9-0.3-1.5s0.1-1.1,0.3-1.5c0.2-0.4,0.5-0.7,0.9-1c0.4-0.2,0.8-0.3,1.3-0.3c0.6,0,1.1,0.2,1.6,0.6
			l-0.4,0.5c-0.2-0.2-0.4-0.3-0.5-0.4c-0.2-0.1-0.4-0.1-0.6-0.1c-0.3,0-0.6,0.1-0.9,0.3s-0.5,0.4-0.6,0.7s-0.2,0.7-0.2,1.1
			c0,0.6,0.2,1.2,0.5,1.5c0.3,0.4,0.7,0.6,1.2,0.6s0.9-0.2,1.3-0.5l0.4,0.5c-0.2,0.2-0.5,0.4-0.8,0.5
			C310.9,188.2,310.6,188.3,310.2,188.3z"/>
		<g class="st2">
			<g>
				<g>
					<defs>
						<path id="SVGID_91_" d="M6.1,0.1h314c3.3,0,6,2.7,6,6v166c0,3.3-2.7,6-6,6H6.1c-3.3,0-6-2.7-6-6V6.1C0.1,2.8,2.8,0.1,6.1,0.1z
							"/>
					</defs>
					<clipPath id="SVGID_92_">
						<use xlink:href="#SVGID_91_"  style="overflow:visible;"/>
					</clipPath>
				</g>
				<g>
					<defs>
						<path id="SVGID_93_" d="M6.1,0.1h314c3.3,0,6,2.7,6,6v166c0,3.3-2.7,6-6,6H6.1c-3.3,0-6-2.7-6-6V6.1C0.1,2.8,2.8,0.1,6.1,0.1z
							"/>
					</defs>
					<defs>
						<path id="SVGID_94_" d="M6.1,0.2h314c3.2,0,5.9,2.6,5.9,5.9v166c0,3.2-2.6,5.9-5.9,5.9H6.1c-3.2,0-5.9-2.6-5.9-5.9V6.1
							C0.2,2.9,2.9,0.2,6.1,0.2z"/>
					</defs>
					<clipPath id="SVGID_95_">
						<use xlink:href="#SVGID_93_"  style="overflow:visible;"/>
					</clipPath>
					<clipPath id="SVGID_96_" class="st46">
						<use xlink:href="#SVGID_94_"  style="overflow:visible;"/>
					</clipPath>
					<rect x="14.1" y="64.1" class="st47" width="11.9" height="134.5"/>
				</g>
				<g>
					<defs>
						<path id="SVGID_97_" d="M6.1,0.1h314c3.3,0,6,2.7,6,6v166c0,3.3-2.7,6-6,6H6.1c-3.3,0-6-2.7-6-6V6.1C0.1,2.8,2.8,0.1,6.1,0.1z
							"/>
					</defs>
					<defs>
						<path id="SVGID_98_" d="M6.1,0.2h314c3.2,0,5.9,2.6,5.9,5.9v166c0,3.2-2.6,5.9-5.9,5.9H6.1c-3.2,0-5.9-2.6-5.9-5.9V6.1
							C0.2,2.9,2.9,0.2,6.1,0.2z"/>
					</defs>
					<clipPath id="SVGID_99_">
						<use xlink:href="#SVGID_97_"  style="overflow:visible;"/>
					</clipPath>
					<clipPath id="SVGID_100_" class="st48">
						<use xlink:href="#SVGID_98_"  style="overflow:visible;"/>
					</clipPath>
					<rect x="40" y="44.5" class="st49" width="11.9" height="134.5"/>
				</g>
				<g>
					<defs>
						<path id="SVGID_101_" d="M6.1,0.1h314c3.3,0,6,2.7,6,6v166c0,3.3-2.7,6-6,6H6.1c-3.3,0-6-2.7-6-6V6.1C0.1,2.8,2.8,0.1,6.1,0.1
							z"/>
					</defs>
					<defs>
						<path id="SVGID_102_" d="M6.1,0.2h314c3.2,0,5.9,2.6,5.9,5.9v166c0,3.2-2.6,5.9-5.9,5.9H6.1c-3.2,0-5.9-2.6-5.9-5.9V6.1
							C0.2,2.9,2.9,0.2,6.1,0.2z"/>
					</defs>
					<clipPath id="SVGID_103_">
						<use xlink:href="#SVGID_101_"  style="overflow:visible;"/>
					</clipPath>
					<clipPath id="SVGID_104_" class="st50">
						<use xlink:href="#SVGID_102_"  style="overflow:visible;"/>
					</clipPath>
					<rect x="66" y="57.1" class="st51" width="11.9" height="134.5"/>
				</g>
				<g>
					<defs>
						<path id="SVGID_105_" d="M6.1,0.1h314c3.3,0,6,2.7,6,6v166c0,3.3-2.7,6-6,6H6.1c-3.3,0-6-2.7-6-6V6.1C0.1,2.8,2.8,0.1,6.1,0.1
							z"/>
					</defs>
					<defs>
						<path id="SVGID_106_" d="M6.1,0.2h314c3.2,0,5.9,2.6,5.9,5.9v166c0,3.2-2.6,5.9-5.9,5.9H6.1c-3.2,0-5.9-2.6-5.9-5.9V6.1
							C0.2,2.9,2.9,0.2,6.1,0.2z"/>
					</defs>
					<clipPath id="SVGID_107_">
						<use xlink:href="#SVGID_105_"  style="overflow:visible;"/>
					</clipPath>
					<clipPath id="SVGID_108_" class="st52">
						<use xlink:href="#SVGID_106_"  style="overflow:visible;"/>
					</clipPath>
					<rect x="91.9" y="44.5" class="st53" width="11.9" height="134.5"/>
				</g>
				<g>
					<defs>
						<path id="SVGID_109_" d="M6.1,0.1h314c3.3,0,6,2.7,6,6v166c0,3.3-2.7,6-6,6H6.1c-3.3,0-6-2.7-6-6V6.1C0.1,2.8,2.8,0.1,6.1,0.1
							z"/>
					</defs>
					<defs>
						<path id="SVGID_110_" d="M6.1,0.2h314c3.2,0,5.9,2.6,5.9,5.9v166c0,3.2-2.6,5.9-5.9,5.9H6.1c-3.2,0-5.9-2.6-5.9-5.9V6.1
							C0.2,2.9,2.9,0.2,6.1,0.2z"/>
					</defs>
					<clipPath id="SVGID_111_">
						<use xlink:href="#SVGID_109_"  style="overflow:visible;"/>
					</clipPath>
					<clipPath id="SVGID_112_" class="st54">
						<use xlink:href="#SVGID_110_"  style="overflow:visible;"/>
					</clipPath>
					<rect x="117.8" y="57.1" class="st55" width="11.9" height="134.5"/>
				</g>
				<g>
					<defs>
						<path id="SVGID_113_" d="M6.1,0.1h314c3.3,0,6,2.7,6,6v166c0,3.3-2.7,6-6,6H6.1c-3.3,0-6-2.7-6-6V6.1C0.1,2.8,2.8,0.1,6.1,0.1
							z"/>
					</defs>
					<defs>
						<path id="SVGID_114_" d="M6.1,0.2h314c3.2,0,5.9,2.6,5.9,5.9v166c0,3.2-2.6,5.9-5.9,5.9H6.1c-3.2,0-5.9-2.6-5.9-5.9V6.1
							C0.2,2.9,2.9,0.2,6.1,0.2z"/>
					</defs>
					<clipPath id="SVGID_115_">
						<use xlink:href="#SVGID_113_"  style="overflow:visible;"/>
					</clipPath>
					<clipPath id="SVGID_116_" class="st56">
						<use xlink:href="#SVGID_114_"  style="overflow:visible;"/>
					</clipPath>
					<rect x="195.6" y="64.1" class="st57" width="11.9" height="134.5"/>
				</g>
				<g>
					<defs>
						<path id="SVGID_117_" d="M6.1,0.1h314c3.3,0,6,2.7,6,6v166c0,3.3-2.7,6-6,6H6.1c-3.3,0-6-2.7-6-6V6.1C0.1,2.8,2.8,0.1,6.1,0.1
							z"/>
					</defs>
					<defs>
						<path id="SVGID_118_" d="M6.1,0.2h314c3.2,0,5.9,2.6,5.9,5.9v166c0,3.2-2.6,5.9-5.9,5.9H6.1c-3.2,0-5.9-2.6-5.9-5.9V6.1
							C0.2,2.9,2.9,0.2,6.1,0.2z"/>
					</defs>
					<clipPath id="SVGID_119_">
						<use xlink:href="#SVGID_117_"  style="overflow:visible;"/>
					</clipPath>
					<clipPath id="SVGID_120_" class="st58">
						<use xlink:href="#SVGID_118_"  style="overflow:visible;"/>
					</clipPath>
					<rect x="221.5" y="44.5" class="st59" width="11.9" height="134.5"/>
				</g>
				<g>
					<defs>
						<path id="SVGID_121_" d="M6.1,0.1h314c3.3,0,6,2.7,6,6v166c0,3.3-2.7,6-6,6H6.1c-3.3,0-6-2.7-6-6V6.1C0.1,2.8,2.8,0.1,6.1,0.1
							z"/>
					</defs>
					<defs>
						<path id="SVGID_122_" d="M6.1,0.2h314c3.2,0,5.9,2.6,5.9,5.9v166c0,3.2-2.6,5.9-5.9,5.9H6.1c-3.2,0-5.9-2.6-5.9-5.9V6.1
							C0.2,2.9,2.9,0.2,6.1,0.2z"/>
					</defs>
					<clipPath id="SVGID_123_">
						<use xlink:href="#SVGID_121_"  style="overflow:visible;"/>
					</clipPath>
					<clipPath id="SVGID_124_" class="st60">
						<use xlink:href="#SVGID_122_"  style="overflow:visible;"/>
					</clipPath>
					<rect x="247.5" y="57.1" class="st61" width="11.9" height="134.5"/>
				</g>
				<g>
					<defs>
						<path id="SVGID_125_" d="M6.1,0.1h314c3.3,0,6,2.7,6,6v166c0,3.3-2.7,6-6,6H6.1c-3.3,0-6-2.7-6-6V6.1C0.1,2.8,2.8,0.1,6.1,0.1
							z"/>
					</defs>
					<defs>
						<path id="SVGID_126_" d="M6.1,0.2h314c3.2,0,5.9,2.6,5.9,5.9v166c0,3.2-2.6,5.9-5.9,5.9H6.1c-3.2,0-5.9-2.6-5.9-5.9V6.1
							C0.2,2.9,2.9,0.2,6.1,0.2z"/>
					</defs>
					<clipPath id="SVGID_127_">
						<use xlink:href="#SVGID_125_"  style="overflow:visible;"/>
					</clipPath>
					<clipPath id="SVGID_128_" class="st62">
						<use xlink:href="#SVGID_126_"  style="overflow:visible;"/>
					</clipPath>
					<rect x="273.4" y="44.5" class="st63" width="11.9" height="134.5"/>
				</g>
				<g>
					<defs>
						<path id="SVGID_129_" d="M6.1,0.1h314c3.3,0,6,2.7,6,6v166c0,3.3-2.7,6-6,6H6.1c-3.3,0-6-2.7-6-6V6.1C0.1,2.8,2.8,0.1,6.1,0.1
							z"/>
					</defs>
					<defs>
						<path id="SVGID_130_" d="M6.1,0.2h314c3.2,0,5.9,2.6,5.9,5.9v166c0,3.2-2.6,5.9-5.9,5.9H6.1c-3.2,0-5.9-2.6-5.9-5.9V6.1
							C0.2,2.9,2.9,0.2,6.1,0.2z"/>
					</defs>
					<clipPath id="SVGID_131_">
						<use xlink:href="#SVGID_129_"  style="overflow:visible;"/>
					</clipPath>
					<clipPath id="SVGID_132_" class="st64">
						<use xlink:href="#SVGID_130_"  style="overflow:visible;"/>
					</clipPath>
					<rect x="299.3" y="57.1" class="st65" width="11.9" height="134.5"/>
				</g>
				<g>
					<defs>
						<path id="SVGID_133_" d="M6.1,0.1h314c3.3,0,6,2.7,6,6v166c0,3.3-2.7,6-6,6H6.1c-3.3,0-6-2.7-6-6V6.1C0.1,2.8,2.8,0.1,6.1,0.1
							z"/>
					</defs>
					<defs>
						<path id="SVGID_134_" d="M6.1,0.2h314c3.2,0,5.9,2.6,5.9,5.9v166c0,3.2-2.6,5.9-5.9,5.9H6.1c-3.2,0-5.9-2.6-5.9-5.9V6.1
							C0.2,2.9,2.9,0.2,6.1,0.2z"/>
					</defs>
					<clipPath id="SVGID_135_">
						<use xlink:href="#SVGID_133_"  style="overflow:visible;"/>
					</clipPath>
					<clipPath id="SVGID_136_" class="st66">
						<use xlink:href="#SVGID_134_"  style="overflow:visible;"/>
					</clipPath>
					<rect x="143.7" y="55.1" class="st67" width="11.9" height="134.5"/>
				</g>
				<g>
					<defs>
						<path id="SVGID_137_" d="M6.1,0.1h314c3.3,0,6,2.7,6,6v166c0,3.3-2.7,6-6,6H6.1c-3.3,0-6-2.7-6-6V6.1C0.1,2.8,2.8,0.1,6.1,0.1
							z"/>
					</defs>
					<defs>
						<path id="SVGID_138_" d="M6.1,0.2h314c3.2,0,5.9,2.6,5.9,5.9v166c0,3.2-2.6,5.9-5.9,5.9H6.1c-3.2,0-5.9-2.6-5.9-5.9V6.1
							C0.2,2.9,2.9,0.2,6.1,0.2z"/>
					</defs>
					<clipPath id="SVGID_139_">
						<use xlink:href="#SVGID_137_"  style="overflow:visible;"/>
					</clipPath>
					<clipPath id="SVGID_140_" class="st68">
						<use xlink:href="#SVGID_138_"  style="overflow:visible;"/>
					</clipPath>
					<rect x="169.7" y="44.5" class="st69" width="11.9" height="134.5"/>
				</g>
			</g>
			<text transform="matrix(1 0 0 1 330.6156 33.0307)" class="st70 st71 st72">60</text>
			<text transform="matrix(1 0 0 1 330.6156 92.3699)" class="st70 st71 st72">40</text>
			<text transform="matrix(1 0 0 1 330.6156 151.7093)" class="st70 st71 st72">20</text>
		</g>
	</g>
	<g class="st0">
		<text transform="matrix(1 0 0 1 333.6892 33.0467)" class="st31 st71 st72">3</text>
		<text transform="matrix(1 0 0 1 333.6892 92.3859)" class="st31 st71 st72">2</text>
		<text transform="matrix(1 0 0 1 333.6897 151.7253)" class="st31 st71 st72">1</text>
	</g>
	<g class="st0">
		<text transform="matrix(1 0 0 1 333.6892 33.0467)" class="st31 st71 st72">3</text>
		<text transform="matrix(1 0 0 1 333.6892 92.3859)" class="st31 st71 st72">2</text>
		<text transform="matrix(1 0 0 1 333.6897 151.7253)" class="st31 st71 st72">1</text>
	</g>
	<g>
		<g>
			
				<linearGradient id="SVGID_141_" gradientUnits="userSpaceOnUse" x1="178.7253" y1="-793.2834" x2="178.7253" y2="-647.9854" gradientTransform="matrix(1 0 0 1 0 826.1102)">
				<stop  offset="0.7735" style="stop-color:#FFFFFF"/>
				<stop  offset="1" style="stop-color:#FFFFFF;stop-opacity:0.8"/>
			</linearGradient>
			<path class="st73" d="M19.5,0.1H338c3.3,0,6.1,2.7,6.1,6v166c0,3.3-2.7,6-6.1,6H19.5c-3.3,0-6.1-2.7-6.1-6V6.1
				C13.4,2.8,16.1,0.1,19.5,0.1z"/>
			<path class="st74" d="M19.5,0.2H338c3.2,0,6,2.6,6,5.9v166c0,3.2-2.6,5.9-6,5.9H19.5c-3.2,0-6-2.6-6-5.9V6.1
				C13.5,2.9,16.2,0.2,19.5,0.2z"/>
		</g>
		<path class="st74" d="M13.5,28.1h330.4"/>
		<path class="st74" d="M13.5,87.1h330.4"/>
		<path class="st74" d="M13.5,146.1h330.4"/>
	</g>
</g>
<g id="Layer_2" class="st0">
	<g class="st2">
		<path class="st75" d="M157.2,188.3c-0.9,0-1.5-0.4-1.9-1.1l0.6-0.4c0.2,0.3,0.3,0.5,0.6,0.6s0.5,0.2,0.7,0.2
			c0.4,0,0.7-0.1,0.9-0.4c0.2-0.3,0.3-0.7,0.3-1.2v-5.1h0.8v5.1c0,0.7-0.2,1.2-0.5,1.6S157.8,188.3,157.2,188.3z M162.7,188.3
			c-0.6,0-1-0.2-1.2-0.5c-0.3-0.4-0.4-0.9-0.4-1.6v-3.4h0.8v3.3c0,0.5,0.1,0.9,0.3,1.1c0.2,0.2,0.4,0.4,0.8,0.4
			c0.3,0,0.5-0.1,0.7-0.2c0.2-0.1,0.5-0.4,0.8-0.7v-3.8h0.8v5.3h-0.7l-0.1-0.8l0,0c-0.3,0.3-0.6,0.6-0.8,0.7
			C163.3,188.2,163,188.3,162.7,188.3z M167.2,182.8h0.7l0.1,0.8l0,0c0.3-0.3,0.6-0.5,0.9-0.7c0.3-0.2,0.6-0.2,0.9-0.2
			c0.6,0,1,0.2,1.2,0.5c0.3,0.3,0.4,0.9,0.4,1.6v3.4h-0.8v-3.3c0-0.5-0.1-0.9-0.3-1.1c-0.2-0.2-0.4-0.4-0.8-0.4
			c-0.3,0-0.5,0.1-0.7,0.2c-0.2,0.1-0.5,0.3-0.8,0.6v3.9h-0.8L167.2,182.8L167.2,182.8z"/>
		<path class="st75" d="M237.8,188.3c-0.5,0-1-0.1-1.4-0.3s-0.8-0.5-1.1-0.8l0.5-0.6c0.3,0.3,0.6,0.5,0.9,0.7
			c0.4,0.2,0.7,0.2,1.1,0.2c0.5,0,0.9-0.1,1.2-0.3s0.4-0.5,0.4-0.9c0-0.2-0.1-0.4-0.2-0.6c-0.1-0.2-0.2-0.3-0.4-0.4
			c-0.2-0.1-0.4-0.2-0.7-0.3l-1-0.5c-0.4-0.2-0.8-0.4-1.1-0.7s-0.4-0.7-0.4-1.1c0-0.4,0.1-0.7,0.3-1s0.5-0.5,0.8-0.7
			s0.7-0.2,1.1-0.2s0.8,0.1,1.2,0.2c0.4,0.2,0.7,0.4,0.9,0.6l-0.4,0.5c-0.5-0.5-1-0.7-1.7-0.7c-0.4,0-0.8,0.1-1,0.3
			c-0.3,0.2-0.4,0.5-0.4,0.8c0,0.2,0.1,0.4,0.2,0.6c0.1,0.2,0.3,0.3,0.4,0.4c0.2,0.1,0.4,0.2,0.6,0.3l1,0.5c0.5,0.2,0.8,0.4,1.1,0.7
			s0.4,0.7,0.4,1.2c0,0.4-0.1,0.7-0.3,1s-0.5,0.5-0.8,0.7C238.7,188.2,238.2,188.3,237.8,188.3z M245.7,185.2c0,0.2,0,0.4,0,0.5H242
			c0,0.6,0.2,1.1,0.6,1.5c0.4,0.3,0.8,0.5,1.3,0.5s0.9-0.1,1.4-0.4l0.3,0.5c-0.3,0.2-0.5,0.3-0.8,0.4c-0.3,0.1-0.6,0.1-0.9,0.1
			c-0.5,0-0.9-0.1-1.3-0.3c-0.4-0.2-0.7-0.6-0.9-1s-0.3-0.9-0.3-1.5s0.1-1,0.3-1.5c0.2-0.4,0.5-0.8,0.9-1s0.8-0.4,1.2-0.4
			c0.7,0,1.2,0.2,1.5,0.7C245.5,183.8,245.7,184.4,245.7,185.2z M245,185.1c0-0.6-0.1-1-0.4-1.3s-0.6-0.5-1-0.5s-0.7,0.1-1.1,0.5
			s-0.5,0.7-0.6,1.3H245z M247.2,182.8h0.7l0.1,0.6l0,0c0.6-0.5,1.2-0.8,1.7-0.8c0.7,0,1.2,0.2,1.6,0.7c0.4,0.5,0.6,1.1,0.6,2
			c0,0.6-0.1,1.1-0.3,1.5s-0.5,0.8-0.8,1c-0.4,0.2-0.7,0.3-1.1,0.3c-0.5,0-1-0.2-1.5-0.6v0.9v1.8h-0.8v-7.4H247.2z M249.3,187.6
			c0.3,0,0.6-0.1,0.8-0.3s0.4-0.4,0.6-0.8c0.1-0.3,0.2-0.7,0.2-1.2c0-0.6-0.1-1.1-0.4-1.5c-0.2-0.4-0.6-0.5-1.1-0.5
			c-0.4,0-1,0.3-1.5,0.8v2.9c0.2,0.2,0.5,0.4,0.7,0.5C248.9,187.5,249.1,187.6,249.3,187.6z"/>
		<path class="st75" d="M80.9,180.9h1l1.4,4l0.5,1.5l0,0c0.1-0.1,0.1-0.3,0.2-0.6c0.1-0.4,0.2-0.7,0.3-0.9l1.4-4h1v7.2H86v-4.2
			c0-0.4,0-1.1,0.1-2.1l0,0l-0.6,1.6l-1.4,3.9h-0.6l-1.4-3.9l-0.6-1.6l0,0v0.3c0.1,0.8,0.1,1.4,0.1,1.8v4.2h-0.7V180.9z M90,188.3
			c-0.5,0-0.8-0.1-1.1-0.4c-0.3-0.3-0.4-0.6-0.4-1.1c0-0.6,0.3-1,0.8-1.3s1.4-0.5,2.5-0.7c0-0.4-0.1-0.8-0.3-1
			c-0.2-0.3-0.5-0.4-0.9-0.4c-0.5,0-1,0.2-1.6,0.6l-0.3-0.5c0.7-0.5,1.4-0.7,2.1-0.7c0.6,0,1.1,0.2,1.4,0.6c0.3,0.4,0.4,0.9,0.4,1.6
			v3.3h-0.7l-0.1-0.6l0,0C91.2,188,90.6,188.3,90,188.3z M90.2,187.6c0.3,0,0.5-0.1,0.7-0.2c0.2-0.1,0.5-0.3,0.8-0.6v-1.6
			c-0.9,0.1-1.6,0.3-2,0.5s-0.6,0.5-0.6,0.9c0,0.3,0.1,0.5,0.3,0.7C89.7,187.5,90,187.6,90.2,187.6z M94.4,182.8h0.7l0.1,1l0,0
			c0.2-0.3,0.4-0.6,0.7-0.8s0.5-0.3,0.8-0.3c0.2,0,0.4,0,0.5,0.1l-0.2,0.7c-0.2-0.1-0.4-0.1-0.5-0.1c-0.2,0-0.5,0.1-0.7,0.3
			s-0.5,0.5-0.6,1v3.5h-0.8V182.8z"/>
		<path class="st75" d="M311.9,180.9h1.8c1.1,0,1.9,0.3,2.5,0.9c0.6,0.6,0.9,1.5,0.9,2.7s-0.3,2-0.9,2.7c-0.6,0.6-1.4,1-2.5,1h-1.8
			V180.9z M313.6,187.5c0.9,0,1.5-0.3,1.9-0.8s0.7-1.3,0.7-2.2s-0.2-1.7-0.7-2.2c-0.4-0.5-1.1-0.8-1.9-0.8h-0.9v5.9h0.9V187.5z
			 M322.7,185.2c0,0.2,0,0.4,0,0.5H319c0,0.6,0.2,1.1,0.6,1.5c0.4,0.3,0.8,0.5,1.3,0.5s0.9-0.1,1.4-0.4l0.3,0.5
			c-0.3,0.2-0.5,0.3-0.8,0.4c-0.3,0.1-0.6,0.1-0.9,0.1c-0.5,0-0.9-0.1-1.3-0.3s-0.7-0.6-0.9-1c-0.2-0.4-0.3-0.9-0.3-1.5
			s0.1-1,0.3-1.5c0.2-0.4,0.5-0.8,0.9-1s0.8-0.4,1.2-0.4c0.7,0,1.2,0.2,1.5,0.7C322.5,183.8,322.7,184.4,322.7,185.2z M322,185.1
			c0-0.6-0.1-1-0.4-1.3s-0.6-0.5-1-0.5s-0.7,0.1-1.1,0.5c-0.3,0.3-0.5,0.7-0.5,1.3H322z M326.2,188.3c-0.5,0-0.9-0.1-1.3-0.3
			s-0.7-0.5-0.9-1c-0.2-0.4-0.3-0.9-0.3-1.5s0.1-1.1,0.3-1.5c0.2-0.4,0.5-0.7,0.9-1c0.4-0.2,0.8-0.3,1.3-0.3c0.6,0,1.1,0.2,1.6,0.6
			l-0.4,0.5c-0.2-0.2-0.4-0.3-0.5-0.4c-0.2-0.1-0.4-0.1-0.6-0.1c-0.3,0-0.6,0.1-0.9,0.3s-0.5,0.4-0.6,0.7s-0.2,0.7-0.2,1.1
			c0,0.6,0.2,1.2,0.5,1.5c0.3,0.4,0.7,0.6,1.2,0.6s0.9-0.2,1.3-0.5l0.4,0.5c-0.2,0.2-0.5,0.4-0.8,0.5
			C326.9,188.2,326.6,188.3,326.2,188.3z"/>
		<g>
			<g>
				<g>
					<defs>
						<path id="SVGID_142_" d="M19.5,0.1H338c3.3,0,6.1,2.7,6.1,6v166c0,3.3-2.7,6-6.1,6H19.5c-3.3,0-6.1-2.7-6.1-6V6.1
							C13.4,2.8,16.1,0.1,19.5,0.1z"/>
					</defs>
					<clipPath id="SVGID_143_">
						<use xlink:href="#SVGID_142_"  style="overflow:visible;"/>
					</clipPath>
				</g>
				<g>
					<defs>
						<path id="SVGID_144_" d="M19.5,0.1H338c3.3,0,6.1,2.7,6.1,6v166c0,3.3-2.7,6-6.1,6H19.5c-3.3,0-6.1-2.7-6.1-6V6.1
							C13.4,2.8,16.1,0.1,19.5,0.1z"/>
					</defs>
					<defs>
						<path id="SVGID_145_" d="M19.5,0.2H338c3.2,0,6,2.6,6,5.9v166c0,3.2-2.6,5.9-6,5.9H19.5c-3.2,0-6-2.6-6-5.9V6.1
							C13.5,2.9,16.2,0.2,19.5,0.2z"/>
					</defs>
					<clipPath id="SVGID_146_">
						<use xlink:href="#SVGID_144_"  style="overflow:visible;"/>
					</clipPath>
					<clipPath id="SVGID_147_" class="st76">
						<use xlink:href="#SVGID_145_"  style="overflow:visible;"/>
					</clipPath>
					<rect x="30.1" y="64.1" class="st77" width="11.9" height="134.5"/>
				</g>
				<g>
					<defs>
						<path id="SVGID_148_" d="M19.5,0.1H338c3.3,0,6.1,2.7,6.1,6v166c0,3.3-2.7,6-6.1,6H19.5c-3.3,0-6.1-2.7-6.1-6V6.1
							C13.4,2.8,16.1,0.1,19.5,0.1z"/>
					</defs>
					<defs>
						<path id="SVGID_149_" d="M19.5,0.2H338c3.2,0,6,2.6,6,5.9v166c0,3.2-2.6,5.9-6,5.9H19.5c-3.2,0-6-2.6-6-5.9V6.1
							C13.5,2.9,16.2,0.2,19.5,0.2z"/>
					</defs>
					<clipPath id="SVGID_150_">
						<use xlink:href="#SVGID_148_"  style="overflow:visible;"/>
					</clipPath>
					<clipPath id="SVGID_151_" class="st78">
						<use xlink:href="#SVGID_149_"  style="overflow:visible;"/>
					</clipPath>
					<rect x="56" y="44.5" class="st79" width="11.9" height="134.5"/>
				</g>
				<g>
					<defs>
						<path id="SVGID_152_" d="M19.5,0.1H338c3.3,0,6.1,2.7,6.1,6v166c0,3.3-2.7,6-6.1,6H19.5c-3.3,0-6.1-2.7-6.1-6V6.1
							C13.4,2.8,16.1,0.1,19.5,0.1z"/>
					</defs>
					<defs>
						<path id="SVGID_153_" d="M19.5,0.2H338c3.2,0,6,2.6,6,5.9v166c0,3.2-2.6,5.9-6,5.9H19.5c-3.2,0-6-2.6-6-5.9V6.1
							C13.5,2.9,16.2,0.2,19.5,0.2z"/>
					</defs>
					<clipPath id="SVGID_154_">
						<use xlink:href="#SVGID_152_"  style="overflow:visible;"/>
					</clipPath>
					<clipPath id="SVGID_155_" class="st80">
						<use xlink:href="#SVGID_153_"  style="overflow:visible;"/>
					</clipPath>
					<rect x="82" y="57.1" class="st81" width="11.9" height="134.5"/>
				</g>
				<g>
					<defs>
						<path id="SVGID_156_" d="M19.5,0.1H338c3.3,0,6.1,2.7,6.1,6v166c0,3.3-2.7,6-6.1,6H19.5c-3.3,0-6.1-2.7-6.1-6V6.1
							C13.4,2.8,16.1,0.1,19.5,0.1z"/>
					</defs>
					<defs>
						<path id="SVGID_157_" d="M19.5,0.2H338c3.2,0,6,2.6,6,5.9v166c0,3.2-2.6,5.9-6,5.9H19.5c-3.2,0-6-2.6-6-5.9V6.1
							C13.5,2.9,16.2,0.2,19.5,0.2z"/>
					</defs>
					<clipPath id="SVGID_158_">
						<use xlink:href="#SVGID_156_"  style="overflow:visible;"/>
					</clipPath>
					<clipPath id="SVGID_159_" class="st82">
						<use xlink:href="#SVGID_157_"  style="overflow:visible;"/>
					</clipPath>
					<rect x="107.9" y="44.5" class="st83" width="11.9" height="134.5"/>
				</g>
				<g>
					<defs>
						<path id="SVGID_160_" d="M19.5,0.1H338c3.3,0,6.1,2.7,6.1,6v166c0,3.3-2.7,6-6.1,6H19.5c-3.3,0-6.1-2.7-6.1-6V6.1
							C13.4,2.8,16.1,0.1,19.5,0.1z"/>
					</defs>
					<defs>
						<path id="SVGID_161_" d="M19.5,0.2H338c3.2,0,6,2.6,6,5.9v166c0,3.2-2.6,5.9-6,5.9H19.5c-3.2,0-6-2.6-6-5.9V6.1
							C13.5,2.9,16.2,0.2,19.5,0.2z"/>
					</defs>
					<clipPath id="SVGID_162_">
						<use xlink:href="#SVGID_160_"  style="overflow:visible;"/>
					</clipPath>
					<clipPath id="SVGID_163_" class="st84">
						<use xlink:href="#SVGID_161_"  style="overflow:visible;"/>
					</clipPath>
					<rect x="133.8" y="57.1" class="st85" width="11.9" height="134.5"/>
				</g>
				<g>
					<defs>
						<path id="SVGID_164_" d="M19.5,0.1H338c3.3,0,6.1,2.7,6.1,6v166c0,3.3-2.7,6-6.1,6H19.5c-3.3,0-6.1-2.7-6.1-6V6.1
							C13.4,2.8,16.1,0.1,19.5,0.1z"/>
					</defs>
					<defs>
						<path id="SVGID_165_" d="M19.5,0.2H338c3.2,0,6,2.6,6,5.9v166c0,3.2-2.6,5.9-6,5.9H19.5c-3.2,0-6-2.6-6-5.9V6.1
							C13.5,2.9,16.2,0.2,19.5,0.2z"/>
					</defs>
					<clipPath id="SVGID_166_">
						<use xlink:href="#SVGID_164_"  style="overflow:visible;"/>
					</clipPath>
					<clipPath id="SVGID_167_" class="st86">
						<use xlink:href="#SVGID_165_"  style="overflow:visible;"/>
					</clipPath>
					<rect x="211.6" y="64.1" class="st87" width="11.9" height="134.5"/>
				</g>
				<g>
					<defs>
						<path id="SVGID_168_" d="M19.5,0.1H338c3.3,0,6.1,2.7,6.1,6v166c0,3.3-2.7,6-6.1,6H19.5c-3.3,0-6.1-2.7-6.1-6V6.1
							C13.4,2.8,16.1,0.1,19.5,0.1z"/>
					</defs>
					<defs>
						<path id="SVGID_169_" d="M19.5,0.2H338c3.2,0,6,2.6,6,5.9v166c0,3.2-2.6,5.9-6,5.9H19.5c-3.2,0-6-2.6-6-5.9V6.1
							C13.5,2.9,16.2,0.2,19.5,0.2z"/>
					</defs>
					<clipPath id="SVGID_170_">
						<use xlink:href="#SVGID_168_"  style="overflow:visible;"/>
					</clipPath>
					<clipPath id="SVGID_171_" class="st88">
						<use xlink:href="#SVGID_169_"  style="overflow:visible;"/>
					</clipPath>
					<rect x="237.5" y="44.5" class="st89" width="11.9" height="134.5"/>
				</g>
				<g>
					<defs>
						<path id="SVGID_172_" d="M19.5,0.1H338c3.3,0,6.1,2.7,6.1,6v166c0,3.3-2.7,6-6.1,6H19.5c-3.3,0-6.1-2.7-6.1-6V6.1
							C13.4,2.8,16.1,0.1,19.5,0.1z"/>
					</defs>
					<defs>
						<path id="SVGID_173_" d="M19.5,0.2H338c3.2,0,6,2.6,6,5.9v166c0,3.2-2.6,5.9-6,5.9H19.5c-3.2,0-6-2.6-6-5.9V6.1
							C13.5,2.9,16.2,0.2,19.5,0.2z"/>
					</defs>
					<clipPath id="SVGID_174_">
						<use xlink:href="#SVGID_172_"  style="overflow:visible;"/>
					</clipPath>
					<clipPath id="SVGID_175_" class="st90">
						<use xlink:href="#SVGID_173_"  style="overflow:visible;"/>
					</clipPath>
					<rect x="263.5" y="57.1" class="st91" width="11.9" height="134.5"/>
				</g>
				<g>
					<defs>
						<path id="SVGID_176_" d="M19.5,0.1H338c3.3,0,6.1,2.7,6.1,6v166c0,3.3-2.7,6-6.1,6H19.5c-3.3,0-6.1-2.7-6.1-6V6.1
							C13.4,2.8,16.1,0.1,19.5,0.1z"/>
					</defs>
					<defs>
						<path id="SVGID_177_" d="M19.5,0.2H338c3.2,0,6,2.6,6,5.9v166c0,3.2-2.6,5.9-6,5.9H19.5c-3.2,0-6-2.6-6-5.9V6.1
							C13.5,2.9,16.2,0.2,19.5,0.2z"/>
					</defs>
					<clipPath id="SVGID_178_">
						<use xlink:href="#SVGID_176_"  style="overflow:visible;"/>
					</clipPath>
					<clipPath id="SVGID_179_" class="st92">
						<use xlink:href="#SVGID_177_"  style="overflow:visible;"/>
					</clipPath>
					<rect x="289.4" y="44.5" class="st93" width="11.9" height="134.5"/>
				</g>
				<g>
					<defs>
						<path id="SVGID_180_" d="M19.5,0.1H338c3.3,0,6.1,2.7,6.1,6v166c0,3.3-2.7,6-6.1,6H19.5c-3.3,0-6.1-2.7-6.1-6V6.1
							C13.4,2.8,16.1,0.1,19.5,0.1z"/>
					</defs>
					<defs>
						<path id="SVGID_181_" d="M19.5,0.2H338c3.2,0,6,2.6,6,5.9v166c0,3.2-2.6,5.9-6,5.9H19.5c-3.2,0-6-2.6-6-5.9V6.1
							C13.5,2.9,16.2,0.2,19.5,0.2z"/>
					</defs>
					<clipPath id="SVGID_182_">
						<use xlink:href="#SVGID_180_"  style="overflow:visible;"/>
					</clipPath>
					<clipPath id="SVGID_183_" class="st94">
						<use xlink:href="#SVGID_181_"  style="overflow:visible;"/>
					</clipPath>
					<rect x="315.3" y="57.1" class="st95" width="11.9" height="134.5"/>
				</g>
				<g>
					<defs>
						<path id="SVGID_184_" d="M19.5,0.1H338c3.3,0,6.1,2.7,6.1,6v166c0,3.3-2.7,6-6.1,6H19.5c-3.3,0-6.1-2.7-6.1-6V6.1
							C13.4,2.8,16.1,0.1,19.5,0.1z"/>
					</defs>
					<defs>
						<path id="SVGID_185_" d="M19.5,0.2H338c3.2,0,6,2.6,6,5.9v166c0,3.2-2.6,5.9-6,5.9H19.5c-3.2,0-6-2.6-6-5.9V6.1
							C13.5,2.9,16.2,0.2,19.5,0.2z"/>
					</defs>
					<clipPath id="SVGID_186_">
						<use xlink:href="#SVGID_184_"  style="overflow:visible;"/>
					</clipPath>
					<clipPath id="SVGID_187_" class="st96">
						<use xlink:href="#SVGID_185_"  style="overflow:visible;"/>
					</clipPath>
					<rect x="159.7" y="55.1" class="st97" width="11.9" height="134.5"/>
				</g>
				<g>
					<defs>
						<path id="SVGID_188_" d="M19.5,0.1H338c3.3,0,6.1,2.7,6.1,6v166c0,3.3-2.7,6-6.1,6H19.5c-3.3,0-6.1-2.7-6.1-6V6.1
							C13.4,2.8,16.1,0.1,19.5,0.1z"/>
					</defs>
					<defs>
						<path id="SVGID_189_" d="M19.5,0.2H338c3.2,0,6,2.6,6,5.9v166c0,3.2-2.6,5.9-6,5.9H19.5c-3.2,0-6-2.6-6-5.9V6.1
							C13.5,2.9,16.2,0.2,19.5,0.2z"/>
					</defs>
					<clipPath id="SVGID_190_">
						<use xlink:href="#SVGID_188_"  style="overflow:visible;"/>
					</clipPath>
					<clipPath id="SVGID_191_" class="st98">
						<use xlink:href="#SVGID_189_"  style="overflow:visible;"/>
					</clipPath>
					<rect x="185.7" y="44.5" class="st99" width="11.9" height="134.5"/>
				</g>
			</g>
			<g class="st100">
				<path class="st70" d="M4.5,25.9c-0.2,0-0.3,0-0.6,0.1c-1.3,0.3-1.8,1.6-2,2.8h0c0.3-0.4,0.7-0.7,1.3-0.7c1,0,1.7,0.9,1.7,2.4
					c0,1.5-0.7,2.7-1.9,2.7c-1.4,0-2-1.4-2-3.2c0-1.5,0.4-2.7,1-3.5c0.5-0.7,1.2-1.1,1.9-1.2c0.3,0,0.5-0.1,0.6-0.1V25.9z M4,30.5
					c0-1.2-0.4-1.8-1-1.8c-0.4,0-0.8,0.3-1,0.8c0,0.1-0.1,0.2-0.1,0.5c0,1.6,0.5,2.3,1.1,2.3C3.6,32.4,4,31.9,4,30.5z"/>
				<path class="st70" d="M9.6,29.1c0,2.8-0.9,4-2,4c-1.2,0-1.9-1.4-1.9-4c0-2.6,0.8-4,2.1-4C8.9,25.1,9.6,26.6,9.6,29.1z M6.5,29.1
					c0,1.9,0.3,3.2,1.1,3.2c0.7,0,1-1.3,1-3.2c0-1.8-0.3-3.2-1-3.2S6.5,27.3,6.5,29.1z"/>
			</g>
			<g class="st100">
				<path class="st70" d="M3.4,92.4v-2.1H0.9v-0.6l2.5-5h0.9v4.9h0.9v0.8H4.3v2.1H3.4z M3.4,89.5v-2.2c0-0.5,0-1,0.1-1.5h0
					c-0.3,0.6-0.4,1-0.7,1.5l-1.1,2.2v0H3.4z"/>
				<path class="st70" d="M9.6,88.5c0,2.8-0.9,4-2,4c-1.2,0-1.9-1.4-1.9-4c0-2.6,0.8-4,2.1-4C8.9,84.5,9.6,86,9.6,88.5z M6.5,88.5
					c0,1.9,0.3,3.2,1.1,3.2c0.7,0,1-1.3,1-3.2c0-1.8-0.3-3.2-1-3.2S6.5,86.6,6.5,88.5z"/>
			</g>
			<g class="st100">
				<path class="st70" d="M1,151.7v-0.6l0.7-0.9c0.9-1.3,2-2.7,2-4.2c0-0.9-0.4-1.4-1.1-1.4c-0.6,0-0.9,0.3-1.1,0.4l-0.2-0.7
					c0.3-0.2,0.8-0.5,1.5-0.5c1.3,0,1.9,1,1.9,2.1c0,1.5-1,2.9-1.9,4.2l-0.5,0.7v0h2.6v0.8H1z"/>
				<path class="st70" d="M9.6,147.8c0,2.8-0.9,4-2,4c-1.2,0-1.9-1.4-1.9-4c0-2.6,0.8-4,2.1-4C8.9,143.8,9.6,145.3,9.6,147.8z
					 M6.5,147.8c0,1.9,0.3,3.2,1.1,3.2c0.7,0,1-1.3,1-3.2c0-1.8-0.3-3.2-1-3.2S6.5,145.9,6.5,147.8z"/>
			</g>
		</g>
	</g>
</g>
<g id="Layer_3" class="st0">
	<path class="st1" d="M79.5,185h1l1.4,4l0.5,1.5l0,0c0.1-0.1,0.1-0.3,0.2-0.6c0.1-0.4,0.2-0.7,0.3-0.9l1.4-4h1v7.2h-0.8V188
		c0-0.4,0-1.1,0.1-2.1l0,0l-0.6,1.6l-1.4,3.9H82l-1.4-3.9l-0.6-1.6l0,0v0.3c0.1,0.8,0.1,1.4,0.1,1.8v4.2h-0.7L79.5,185L79.5,185z
		 M89.5,192.3c-0.4,0-0.8-0.1-1.2-0.3c-0.4-0.2-0.7-0.5-0.9-1c-0.2-0.4-0.3-0.9-0.3-1.5s0.1-1.1,0.3-1.5c0.2-0.4,0.5-0.7,0.9-1
		c0.4-0.2,0.8-0.3,1.2-0.3c0.4,0,0.8,0.1,1.2,0.3c0.4,0.2,0.7,0.5,0.9,1c0.2,0.4,0.3,0.9,0.3,1.5s-0.1,1.1-0.3,1.5
		c-0.2,0.4-0.5,0.7-0.9,1C90.4,192.2,90,192.3,89.5,192.3z M89.5,191.7c0.3,0,0.6-0.1,0.8-0.3c0.2-0.2,0.4-0.4,0.6-0.7
		c0.1-0.3,0.2-0.7,0.2-1.1s-0.1-0.8-0.2-1.1s-0.3-0.6-0.6-0.7c-0.2-0.2-0.5-0.3-0.8-0.3s-0.6,0.1-0.8,0.3c-0.2,0.2-0.4,0.4-0.6,0.7
		c-0.1,0.3-0.2,0.7-0.2,1.1c0,0.6,0.2,1.2,0.5,1.5C88.7,191.5,89.1,191.7,89.5,191.7z M93.5,186.9h0.7l0.1,0.8l0,0
		c0.3-0.3,0.6-0.5,0.9-0.7s0.6-0.2,0.9-0.2c0.6,0,1,0.2,1.2,0.5c0.3,0.3,0.4,0.9,0.4,1.6v3.4h-0.8V189c0-0.5-0.1-0.9-0.3-1.1
		c-0.2-0.2-0.4-0.4-0.8-0.4c-0.3,0-0.5,0.1-0.7,0.2c-0.2,0.1-0.5,0.3-0.8,0.6v3.9h-0.8L93.5,186.9L93.5,186.9z"/>
	<path class="st1" d="M126.6,185.7h-2.2V185h5.2v0.7h-2.2v6.5h-0.8V185.7z M132,192.3c-0.6,0-1-0.2-1.2-0.5
		c-0.3-0.4-0.4-0.9-0.4-1.6v-3.4h0.8v3.3c0,0.5,0.1,0.9,0.3,1.1c0.2,0.2,0.4,0.4,0.8,0.4c0.3,0,0.5-0.1,0.7-0.2
		c0.2-0.1,0.5-0.4,0.8-0.7v-3.8h0.8v5.3h-0.7l-0.1-0.8l0,0c-0.3,0.3-0.5,0.6-0.8,0.7C132.7,192.3,132.4,192.3,132,192.3z
		 M140.6,189.2c0,0.2,0,0.4,0,0.5h-3.7c0,0.6,0.2,1.1,0.6,1.5c0.4,0.3,0.8,0.5,1.3,0.5s0.9-0.1,1.4-0.4l0.3,0.5
		c-0.3,0.2-0.5,0.3-0.8,0.4c-0.3,0.1-0.6,0.1-0.9,0.1c-0.5,0-0.9-0.1-1.3-0.3c-0.4-0.2-0.7-0.6-0.9-1c-0.2-0.4-0.3-0.9-0.3-1.5
		s0.1-1,0.3-1.5c0.2-0.4,0.5-0.8,0.9-1c0.4-0.2,0.8-0.4,1.2-0.4c0.7,0,1.2,0.2,1.5,0.7C140.4,187.9,140.6,188.5,140.6,189.2z
		 M139.9,189.1c0-0.6-0.1-1-0.4-1.3s-0.6-0.5-1-0.5c-0.4,0-0.7,0.1-1.1,0.5c-0.4,0.4-0.5,0.7-0.6,1.3H139.9z"/>
	<path class="st1" d="M167.7,185h0.8l0.8,4l0.4,2.3l0,0c0.1-0.5,0.3-1.3,0.5-2.3l1-4h0.7l1,4c0.1,0.4,0.2,0.7,0.2,0.9l0.3,1.5l0,0
		l0.1-0.6c0.1-0.7,0.2-1.3,0.3-1.7l0.8-4h0.8l-1.5,7.2h-1l-1.2-4.5c0-0.1-0.1-0.3-0.1-0.4c0-0.1,0-0.2-0.1-0.3
		c-0.1-0.3-0.1-0.6-0.2-1l0,0l-0.4,1.6l-1.1,4.5h-1L167.7,185z M181.1,189.2c0,0.2,0,0.4,0,0.5h-3.7c0,0.6,0.2,1.1,0.6,1.5
		c0.4,0.3,0.8,0.5,1.3,0.5s0.9-0.1,1.4-0.4l0.3,0.5c-0.3,0.2-0.5,0.3-0.8,0.4c-0.3,0.1-0.6,0.1-0.9,0.1c-0.5,0-0.9-0.1-1.3-0.3
		c-0.4-0.2-0.7-0.6-0.9-1s-0.3-0.9-0.3-1.5s0.1-1,0.3-1.5c0.2-0.4,0.5-0.8,0.9-1s0.8-0.4,1.2-0.4c0.7,0,1.2,0.2,1.5,0.7
		C180.9,187.9,181.1,188.5,181.1,189.2z M180.4,189.1c0-0.6-0.1-1-0.4-1.3s-0.6-0.5-1-0.5s-0.7,0.1-1.1,0.5s-0.5,0.7-0.6,1.3H180.4z
		 M184.4,192.3c-0.7,0-1.2-0.2-1.6-0.7c-0.4-0.5-0.6-1.2-0.6-2.1c0-0.6,0.1-1,0.3-1.5c0.2-0.4,0.5-0.8,0.8-1
		c0.4-0.2,0.7-0.4,1.2-0.4c0.3,0,0.5,0.1,0.8,0.2c0.2,0.1,0.5,0.3,0.7,0.5v-0.9v-2.1h0.8v7.9h-0.7l-0.1-0.6l0,0
		c-0.2,0.2-0.5,0.4-0.8,0.6C185,192.3,184.7,192.3,184.4,192.3z M184.5,191.7c0.3,0,0.5-0.1,0.7-0.2c0.2-0.1,0.5-0.3,0.7-0.6V188
		c-0.2-0.2-0.5-0.4-0.7-0.4c-0.2-0.1-0.4-0.1-0.7-0.1s-0.6,0.1-0.8,0.3s-0.4,0.4-0.6,0.8c-0.1,0.3-0.2,0.7-0.2,1.1
		c0,0.7,0.1,1.2,0.4,1.6C183.7,191.5,184,191.7,184.5,191.7z"/>
	<path class="st1" d="M217.1,185.7h-2.2V185h5.2v0.7h-2.2v6.5h-0.8V185.7z M221.5,184.4h0.8v2.2v1.1c0.3-0.3,0.6-0.5,0.9-0.7
		c0.3-0.2,0.6-0.2,0.9-0.2c0.6,0,1,0.2,1.2,0.5c0.3,0.3,0.4,0.9,0.4,1.6v3.4h-0.8V189c0-0.5-0.1-0.9-0.3-1.1
		c-0.2-0.2-0.4-0.4-0.8-0.4c-0.3,0-0.5,0.1-0.7,0.2c-0.2,0.1-0.5,0.3-0.8,0.6v3.9h-0.8L221.5,184.4L221.5,184.4z M229.1,192.3
		c-0.6,0-1-0.2-1.2-0.5c-0.3-0.4-0.4-0.9-0.4-1.6v-3.4h0.8v3.3c0,0.5,0.1,0.9,0.3,1.1c0.2,0.2,0.4,0.4,0.8,0.4
		c0.3,0,0.5-0.1,0.7-0.2c0.2-0.1,0.5-0.4,0.8-0.7v-3.8h0.8v5.3H231l-0.1-0.8l0,0c-0.3,0.3-0.5,0.6-0.8,0.7
		C229.7,192.3,229.4,192.3,229.1,192.3z"/>
	<path class="st1" d="M263.7,185h4.1v0.7h-3.3v2.6h2.8v0.7h-2.8v3.3h-0.8V185z M268.9,186.9h0.7l0.1,1l0,0c0.2-0.3,0.4-0.6,0.7-0.8
		c0.3-0.2,0.5-0.3,0.8-0.3c0.2,0,0.4,0,0.5,0.1l-0.2,0.7c-0.2-0.1-0.4-0.1-0.5-0.1c-0.2,0-0.5,0.1-0.7,0.3c-0.2,0.2-0.5,0.5-0.6,1
		v3.5h-0.8V186.9z M272.7,186.9h0.8v5.3h-0.8V186.9z M273.1,185.7c-0.2,0-0.3-0.1-0.4-0.2c-0.1-0.1-0.2-0.2-0.2-0.4s0.1-0.3,0.2-0.4
		c0.1-0.1,0.2-0.2,0.4-0.2c0.2,0,0.3,0.1,0.4,0.2c0.1,0.1,0.2,0.2,0.2,0.4s-0.1,0.3-0.2,0.4S273.3,185.7,273.1,185.7z"/>
	<path class="st1" d="M310,192.3c-0.5,0-1-0.1-1.4-0.3s-0.8-0.5-1.1-0.8l0.5-0.6c0.3,0.3,0.6,0.5,0.9,0.7c0.4,0.2,0.7,0.2,1.1,0.2
		c0.5,0,0.9-0.1,1.2-0.3c0.3-0.2,0.4-0.5,0.4-0.9c0-0.2-0.1-0.4-0.2-0.6c-0.1-0.2-0.2-0.3-0.4-0.4c-0.2-0.1-0.4-0.2-0.7-0.3l-1-0.5
		c-0.4-0.2-0.8-0.4-1.1-0.7c-0.3-0.3-0.4-0.7-0.4-1.1c0-0.4,0.1-0.7,0.3-1c0.2-0.3,0.5-0.5,0.8-0.7s0.7-0.2,1.1-0.2s0.8,0.1,1.2,0.2
		c0.4,0.2,0.7,0.4,0.9,0.6l-0.4,0.5c-0.5-0.5-1-0.7-1.7-0.7c-0.4,0-0.8,0.1-1,0.3c-0.3,0.2-0.4,0.5-0.4,0.8c0,0.2,0.1,0.4,0.2,0.6
		c0.1,0.2,0.3,0.3,0.4,0.4c0.2,0.1,0.4,0.2,0.6,0.3l1,0.5c0.5,0.2,0.8,0.4,1.1,0.7c0.3,0.3,0.4,0.7,0.4,1.2c0,0.4-0.1,0.7-0.3,1
		c-0.2,0.3-0.5,0.5-0.8,0.7C310.9,192.3,310.5,192.3,310,192.3z M315.1,192.3c-0.5,0-0.8-0.1-1.1-0.4s-0.4-0.6-0.4-1.1
		c0-0.6,0.3-1,0.8-1.3s1.4-0.5,2.5-0.7c0-0.4-0.1-0.8-0.3-1c-0.2-0.3-0.5-0.4-0.9-0.4c-0.5,0-1,0.2-1.6,0.6l-0.3-0.5
		c0.7-0.5,1.4-0.7,2.1-0.7c0.6,0,1.1,0.2,1.4,0.6c0.3,0.4,0.4,0.9,0.4,1.6v3.3H317l-0.1-0.6l0,0
		C316.3,192.1,315.7,192.3,315.1,192.3z M315.3,191.7c0.3,0,0.5-0.1,0.7-0.2c0.2-0.1,0.5-0.3,0.8-0.6v-1.6c-0.9,0.1-1.6,0.3-2,0.5
		s-0.6,0.5-0.6,0.9c0,0.3,0.1,0.5,0.3,0.7C314.8,191.6,315,191.7,315.3,191.7z M321,192.3c-0.5,0-0.9-0.1-1.1-0.5
		c-0.2-0.3-0.3-0.7-0.3-1.3v-3.1h-0.8v-0.6l0.8-0.1l0.1-1.5h0.7v1.5h1.5v0.7h-1.5v3.1c0,0.4,0.1,0.6,0.2,0.8s0.4,0.3,0.7,0.3
		c0.2,0,0.4,0,0.6-0.1l0.2,0.6C321.6,192.3,321.2,192.3,321,192.3z"/>
	<path class="st1" d="M38.5,192.3c-0.5,0-1-0.1-1.4-0.3c-0.4-0.2-0.8-0.5-1.1-0.8l0.5-0.6c0.3,0.3,0.6,0.5,0.9,0.7
		c0.4,0.2,0.7,0.2,1.1,0.2c0.5,0,0.9-0.1,1.2-0.3s0.4-0.5,0.4-0.9c0-0.2-0.1-0.4-0.2-0.6c-0.1-0.2-0.2-0.3-0.4-0.4
		c-0.2-0.1-0.4-0.2-0.7-0.3l-1-0.5c-0.4-0.2-0.8-0.4-1.1-0.7s-0.4-0.7-0.4-1.1c0-0.4,0.1-0.7,0.3-1c0.2-0.3,0.5-0.5,0.8-0.7
		s0.7-0.2,1.1-0.2c0.4,0,0.8,0.1,1.2,0.2c0.4,0.2,0.7,0.4,0.9,0.6l-0.4,0.5c-0.5-0.5-1-0.7-1.7-0.7c-0.4,0-0.8,0.1-1,0.3
		c-0.3,0.2-0.4,0.5-0.4,0.8c0,0.2,0.1,0.4,0.2,0.6c0.1,0.2,0.3,0.3,0.4,0.4c0.2,0.1,0.4,0.2,0.6,0.3l1,0.5c0.5,0.2,0.8,0.4,1.1,0.7
		c0.3,0.3,0.4,0.7,0.4,1.2c0,0.4-0.1,0.7-0.3,1s-0.5,0.5-0.8,0.7C39.5,192.3,39,192.3,38.5,192.3z M44,192.3c-0.5,0-1-0.2-1.2-0.5
		c-0.3-0.4-0.4-0.9-0.4-1.6v-3.4h0.8v3.3c0,0.5,0.1,0.9,0.3,1.1c0.2,0.2,0.4,0.4,0.8,0.4c0.3,0,0.5-0.1,0.7-0.2
		c0.2-0.1,0.5-0.4,0.8-0.7v-3.8h0.8v5.3h-0.7l-0.1-0.8l0,0c-0.3,0.3-0.5,0.6-0.8,0.7C44.6,192.3,44.3,192.3,44,192.3z M48.5,186.9
		h0.7l0.1,0.8l0,0c0.3-0.3,0.6-0.5,0.9-0.7c0.3-0.2,0.6-0.2,0.9-0.2c0.6,0,1,0.2,1.2,0.5c0.3,0.3,0.4,0.9,0.4,1.6v3.4h-0.8V189
		c0-0.5-0.1-0.9-0.3-1.1c-0.2-0.2-0.4-0.4-0.8-0.4c-0.3,0-0.5,0.1-0.7,0.2c-0.2,0.1-0.5,0.3-0.8,0.6v3.9h-0.8
		C48.5,192.2,48.5,186.9,48.5,186.9z"/>
	<g class="st2">
		<defs>
			<path id="SVGID_192_" d="M20.5,0.1H338c3.3,0,6.1,2.7,6.1,6v166c0,3.3-2.7,6-6.1,6H20.5c-3.3,0-6.1-2.7-6.1-6V6.1
				C14.4,2.8,17.1,0.1,20.5,0.1z"/>
		</defs>
		<clipPath id="SVGID_193_">
			<use xlink:href="#SVGID_192_"  style="overflow:visible;"/>
		</clipPath>
	</g>
	<g class="st2">
		<defs>
			<path id="SVGID_194_" d="M20.5,0.1H338c3.3,0,6.1,2.7,6.1,6v166c0,3.3-2.7,6-6.1,6H20.5c-3.3,0-6.1-2.7-6.1-6V6.1
				C14.4,2.8,17.1,0.1,20.5,0.1z"/>
		</defs>
		<defs>
			<path id="SVGID_195_" d="M20.5,0.2H338c3.2,0,6,2.6,6,5.9v166c0,3.2-2.6,5.9-6,5.9H20.5c-3.2,0-6-2.6-6-5.9V6.1
				C14.5,2.9,17.2,0.2,20.5,0.2z"/>
		</defs>
		<clipPath id="SVGID_196_">
			<use xlink:href="#SVGID_194_"  style="overflow:visible;"/>
		</clipPath>
		<clipPath id="SVGID_197_" class="st101">
			<use xlink:href="#SVGID_195_"  style="overflow:visible;"/>
		</clipPath>
		<rect x="37.1" y="64.2" class="st102" width="14.6" height="134.5"/>
	</g>
	<g class="st2">
		<defs>
			<path id="SVGID_198_" d="M20.5,0.1H338c3.3,0,6.1,2.7,6.1,6v166c0,3.3-2.7,6-6.1,6H20.5c-3.3,0-6.1-2.7-6.1-6V6.1
				C14.4,2.8,17.1,0.1,20.5,0.1z"/>
		</defs>
		<defs>
			<path id="SVGID_199_" d="M20.5,0.2H338c3.2,0,6,2.6,6,5.9v166c0,3.2-2.6,5.9-6,5.9H20.5c-3.2,0-6-2.6-6-5.9V6.1
				C14.5,2.9,17.2,0.2,20.5,0.2z"/>
		</defs>
		<clipPath id="SVGID_200_">
			<use xlink:href="#SVGID_198_"  style="overflow:visible;"/>
		</clipPath>
		<clipPath id="SVGID_201_" class="st103">
			<use xlink:href="#SVGID_199_"  style="overflow:visible;"/>
		</clipPath>
		<rect x="82.1" y="46.2" class="st104" width="14.6" height="134.5"/>
	</g>
	<g class="st2">
		<defs>
			<path id="SVGID_202_" d="M20.5,0.1H338c3.3,0,6.1,2.7,6.1,6v166c0,3.3-2.7,6-6.1,6H20.5c-3.3,0-6.1-2.7-6.1-6V6.1
				C14.4,2.8,17.1,0.1,20.5,0.1z"/>
		</defs>
		<defs>
			<path id="SVGID_203_" d="M20.5,0.2H338c3.2,0,6,2.6,6,5.9v166c0,3.2-2.6,5.9-6,5.9H20.5c-3.2,0-6-2.6-6-5.9V6.1
				C14.5,2.9,17.2,0.2,20.5,0.2z"/>
		</defs>
		<clipPath id="SVGID_204_">
			<use xlink:href="#SVGID_202_"  style="overflow:visible;"/>
		</clipPath>
		<clipPath id="SVGID_205_" class="st105">
			<use xlink:href="#SVGID_203_"  style="overflow:visible;"/>
		</clipPath>
		<rect x="127.1" y="57.2" class="st106" width="14.6" height="134.5"/>
	</g>
	<g class="st2">
		<defs>
			<path id="SVGID_206_" d="M20.5,0.1H338c3.3,0,6.1,2.7,6.1,6v166c0,3.3-2.7,6-6.1,6H20.5c-3.3,0-6.1-2.7-6.1-6V6.1
				C14.4,2.8,17.1,0.1,20.5,0.1z"/>
		</defs>
		<defs>
			<path id="SVGID_207_" d="M20.5,0.2H338c3.2,0,6,2.6,6,5.9v166c0,3.2-2.6,5.9-6,5.9H20.5c-3.2,0-6-2.6-6-5.9V6.1
				C14.5,2.9,17.2,0.2,20.5,0.2z"/>
		</defs>
		<clipPath id="SVGID_208_">
			<use xlink:href="#SVGID_206_"  style="overflow:visible;"/>
		</clipPath>
		<clipPath id="SVGID_209_" class="st107">
			<use xlink:href="#SVGID_207_"  style="overflow:visible;"/>
		</clipPath>
		<rect x="172.1" y="44.8" class="st108" width="14.6" height="134.5"/>
	</g>
	<g class="st2">
		<defs>
			<path id="SVGID_210_" d="M20.5,0.1H338c3.3,0,6.1,2.7,6.1,6v166c0,3.3-2.7,6-6.1,6H20.5c-3.3,0-6.1-2.7-6.1-6V6.1
				C14.4,2.8,17.1,0.1,20.5,0.1z"/>
		</defs>
		<defs>
			<path id="SVGID_211_" d="M20.5,0.2H338c3.2,0,6,2.6,6,5.9v166c0,3.2-2.6,5.9-6,5.9H20.5c-3.2,0-6-2.6-6-5.9V6.1
				C14.5,2.9,17.2,0.2,20.5,0.2z"/>
		</defs>
		<clipPath id="SVGID_212_">
			<use xlink:href="#SVGID_210_"  style="overflow:visible;"/>
		</clipPath>
		<clipPath id="SVGID_213_" class="st109">
			<use xlink:href="#SVGID_211_"  style="overflow:visible;"/>
		</clipPath>
		<rect x="218.1" y="57.2" class="st110" width="14.6" height="134.5"/>
	</g>
	<g class="st2">
		<defs>
			<path id="SVGID_214_" d="M20.5,0.1H338c3.3,0,6.1,2.7,6.1,6v166c0,3.3-2.7,6-6.1,6H20.5c-3.3,0-6.1-2.7-6.1-6V6.1
				C14.4,2.8,17.1,0.1,20.5,0.1z"/>
		</defs>
		<defs>
			<path id="SVGID_215_" d="M20.5,0.2H338c3.2,0,6,2.6,6,5.9v166c0,3.2-2.6,5.9-6,5.9H20.5c-3.2,0-6-2.6-6-5.9V6.1
				C14.5,2.9,17.2,0.2,20.5,0.2z"/>
		</defs>
		<clipPath id="SVGID_216_">
			<use xlink:href="#SVGID_214_"  style="overflow:visible;"/>
		</clipPath>
		<clipPath id="SVGID_217_" class="st111">
			<use xlink:href="#SVGID_215_"  style="overflow:visible;"/>
		</clipPath>
		<rect x="263.1" y="55.2" class="st112" width="14.6" height="134.5"/>
	</g>
	<g class="st2">
		<defs>
			<path id="SVGID_218_" d="M20.5,0.1H338c3.3,0,6.1,2.7,6.1,6v166c0,3.3-2.7,6-6.1,6H20.5c-3.3,0-6.1-2.7-6.1-6V6.1
				C14.4,2.8,17.1,0.1,20.5,0.1z"/>
		</defs>
		<defs>
			<path id="SVGID_219_" d="M20.5,0.2H338c3.2,0,6,2.6,6,5.9v166c0,3.2-2.6,5.9-6,5.9H20.5c-3.2,0-6-2.6-6-5.9V6.1
				C14.5,2.9,17.2,0.2,20.5,0.2z"/>
		</defs>
		<clipPath id="SVGID_220_">
			<use xlink:href="#SVGID_218_"  style="overflow:visible;"/>
		</clipPath>
		<clipPath id="SVGID_221_" class="st113">
			<use xlink:href="#SVGID_219_"  style="overflow:visible;"/>
		</clipPath>
		<rect x="308.1" y="44.8" class="st114" width="14.6" height="134.5"/>
	</g>
	<g class="st2">
		<g class="st100">
			<path class="st70" d="M5.3,32.1c0.2,0.1,0.7,0.3,1.1,0.3c0.8,0,1.3-0.6,1.3-1.6c0-1-0.6-1.6-1.6-1.6H5.9v-0.7h0.2
				c0.6,0,1.4-0.4,1.4-1.4c0-0.8-0.4-1.2-1-1.2c-0.4,0-0.7,0.2-1,0.4l-0.2-0.7c0.3-0.2,0.8-0.4,1.4-0.4c1.1,0,1.7,0.8,1.7,1.8
				c0,0.8-0.4,1.5-1.2,1.8v0c0.7,0.2,1.4,0.8,1.4,2c0,1.3-0.8,2.3-2.2,2.3c-0.5,0-1.1-0.1-1.4-0.4L5.3,32.1z"/>
		</g>
		<g class="st100">
			<path class="st70" d="M5.1,92.4v-0.6l0.7-0.9c0.9-1.3,2-2.7,2-4.2c0-0.9-0.4-1.4-1.1-1.4c-0.6,0-0.9,0.3-1.1,0.4L5.3,85
				c0.3-0.2,0.8-0.5,1.5-0.5c1.3,0,1.9,1,1.9,2.1c0,1.5-1,2.9-1.9,4.2l-0.5,0.7v0h2.6v0.8H5.1z"/>
		</g>
		<g class="st100">
			<path class="st70" d="M7,144.9L7,144.9l-1.3,0.7l-0.2-0.7l1.6-1h0.8v7.8H7V144.9z"/>
		</g>
	</g>
</g>
<g id="Layer_4" class="st0">
	<g class="st2">
		<g>
			<path class="st75" d="M56.4,188.1c-0.5,0-0.9-0.1-1.3-0.3c-0.4-0.2-0.7-0.4-1-0.7l0.4-0.5c0.2,0.2,0.5,0.4,0.8,0.6
				c0.3,0.1,0.6,0.2,1,0.2c0.3,0,0.6-0.1,0.8-0.2c0.2-0.1,0.4-0.3,0.6-0.6c0.1-0.3,0.2-0.5,0.2-0.9c0-0.5-0.1-0.9-0.4-1.2
				c-0.3-0.3-0.7-0.4-1.1-0.4c-0.2,0-0.4,0-0.6,0.1c-0.2,0.1-0.4,0.2-0.6,0.3l-0.4-0.3l0.2-3.4h3.4v0.7h-2.7l-0.2,2.2
				c0.2-0.1,0.4-0.2,0.5-0.2c0.2-0.1,0.4-0.1,0.6-0.1c0.6,0,1.2,0.2,1.6,0.6c0.4,0.4,0.6,0.9,0.6,1.6c0,0.5-0.1,0.9-0.3,1.3
				c-0.2,0.4-0.5,0.6-0.9,0.8C57.2,188,56.8,188.1,56.4,188.1z"/>
			<path class="st75" d="M112.8,187.3h1.6V182h-1.3v-0.5c0.6-0.1,1.1-0.3,1.5-0.5h0.6v6.3h1.5v0.7h-3.9
				C112.8,188,112.8,187.3,112.8,187.3z M120.1,188.1c-0.7,0-1.2-0.3-1.6-1c-0.4-0.6-0.6-1.5-0.6-2.7s0.2-2.1,0.6-2.7
				c0.4-0.6,0.9-0.9,1.6-0.9s1.2,0.3,1.6,0.9c0.4,0.6,0.6,1.5,0.6,2.7s-0.2,2.1-0.6,2.7C121.3,187.8,120.8,188.1,120.1,188.1z
				 M120.1,187.5c0.4,0,0.8-0.2,1-0.7c0.3-0.5,0.4-1.3,0.4-2.3s-0.1-1.7-0.4-2.2c-0.2-0.5-0.6-0.7-1-0.7s-0.8,0.2-1.1,0.7
				c-0.2,0.5-0.4,1.2-0.4,2.2s0.1,1.8,0.4,2.3C119.3,187.2,119.6,187.5,120.1,187.5z"/>
			<path class="st75" d="M173.8,187.3h1.6V182h-1.3v-0.5c0.6-0.1,1.1-0.3,1.5-0.5h0.6v6.3h1.5v0.7h-3.9L173.8,187.3L173.8,187.3z
				 M180.9,188.1c-0.5,0-0.9-0.1-1.3-0.3c-0.4-0.2-0.7-0.4-1-0.7l0.4-0.5c0.2,0.2,0.5,0.4,0.8,0.6c0.3,0.1,0.6,0.2,1,0.2
				c0.3,0,0.6-0.1,0.8-0.2c0.2-0.1,0.4-0.3,0.6-0.6c0.1-0.3,0.2-0.5,0.2-0.9c0-0.5-0.1-0.9-0.4-1.2c-0.3-0.3-0.7-0.4-1.1-0.4
				c-0.2,0-0.4,0-0.6,0.1c-0.2,0.1-0.4,0.2-0.6,0.3l-0.4-0.3l0.2-3.4h3.4v0.7h-2.7l-0.2,2.2c0.2-0.1,0.4-0.2,0.5-0.2
				c0.2-0.1,0.4-0.1,0.6-0.1c0.6,0,1.2,0.2,1.6,0.6c0.4,0.4,0.6,0.9,0.6,1.6c0,0.5-0.1,0.9-0.3,1.3c-0.2,0.4-0.5,0.6-0.9,0.8
				C181.7,188,181.3,188.1,180.9,188.1z"/>
			<path class="st75" d="M234.5,187.5c0.8-0.8,1.5-1.5,1.9-2c0.5-0.5,0.8-1,1-1.4s0.4-0.8,0.4-1.2s-0.1-0.8-0.4-1
				c-0.2-0.3-0.6-0.4-1-0.4c-0.3,0-0.5,0.1-0.8,0.2c-0.3,0.2-0.5,0.4-0.7,0.6l-0.5-0.5c0.3-0.3,0.6-0.6,1-0.8
				c0.3-0.2,0.7-0.3,1.1-0.3c0.6,0,1.1,0.2,1.5,0.6c0.4,0.4,0.6,0.9,0.6,1.5c0,0.4-0.1,0.9-0.4,1.3c-0.2,0.4-0.5,0.9-0.9,1.4
				s-0.9,1.1-1.7,1.8h0.3c0.4,0,0.7,0,0.9,0h2.1v0.7h-4.5L234.5,187.5L234.5,187.5z M242.3,188.1c-0.7,0-1.2-0.3-1.6-1
				c-0.4-0.6-0.6-1.5-0.6-2.7s0.2-2.1,0.6-2.7c0.4-0.6,0.9-0.9,1.6-0.9c0.7,0,1.2,0.3,1.6,0.9c0.4,0.6,0.6,1.5,0.6,2.7
				s-0.2,2.1-0.6,2.7C243.6,187.8,243,188.1,242.3,188.1z M242.3,187.5c0.4,0,0.8-0.2,1-0.7c0.3-0.5,0.4-1.3,0.4-2.3
				s-0.1-1.7-0.4-2.2c-0.2-0.5-0.6-0.7-1-0.7s-0.8,0.2-1.1,0.7c-0.2,0.5-0.4,1.2-0.4,2.2s0.1,1.8,0.4,2.3
				C241.5,187.2,241.9,187.5,242.3,187.5z"/>
			<path class="st75" d="M295.5,187.5c0.8-0.8,1.5-1.5,1.9-2c0.5-0.5,0.8-1,1-1.4s0.4-0.8,0.4-1.2s-0.1-0.8-0.4-1
				c-0.2-0.3-0.6-0.4-1-0.4c-0.3,0-0.5,0.1-0.8,0.2c-0.3,0.2-0.5,0.4-0.7,0.6l-0.5-0.5c0.3-0.3,0.6-0.6,1-0.8s0.7-0.3,1.1-0.3
				c0.6,0,1.1,0.2,1.5,0.6c0.4,0.4,0.6,0.9,0.6,1.5c0,0.4-0.1,0.9-0.4,1.3c-0.2,0.4-0.5,0.9-0.9,1.4s-0.9,1.1-1.7,1.8h0.3
				c0.4,0,0.7,0,0.9,0h2.1v0.7h-4.5v-0.5H295.5z M303.2,188.1c-0.5,0-0.9-0.1-1.3-0.3s-0.7-0.4-1-0.7l0.4-0.5
				c0.2,0.2,0.5,0.4,0.8,0.6c0.3,0.1,0.6,0.2,1,0.2c0.3,0,0.6-0.1,0.8-0.2c0.2-0.1,0.4-0.3,0.6-0.6c0.1-0.3,0.2-0.5,0.2-0.9
				c0-0.5-0.1-0.9-0.4-1.2s-0.7-0.4-1.1-0.4c-0.2,0-0.4,0-0.6,0.1s-0.4,0.2-0.6,0.3l-0.4-0.3l0.2-3.4h3.4v0.7h-2.7l-0.2,2.2
				c0.2-0.1,0.4-0.2,0.5-0.2s0.4-0.1,0.6-0.1c0.6,0,1.2,0.2,1.6,0.6c0.4,0.4,0.6,0.9,0.6,1.6c0,0.5-0.1,0.9-0.3,1.3
				c-0.2,0.4-0.5,0.6-0.9,0.8C304,188,303.6,188.1,303.2,188.1z"/>
			<g>
				<g>
					<defs>
						<path id="SVGID_222_" d="M19.5,0.1H338c3.3,0,6.1,2.7,6.1,6v166c0,3.3-2.7,6-6.1,6H19.5c-3.3,0-6.1-2.7-6.1-6V6.1
							C13.4,2.8,16.1,0.1,19.5,0.1z"/>
					</defs>
					<clipPath id="SVGID_223_">
						<use xlink:href="#SVGID_222_"  style="overflow:visible;"/>
					</clipPath>
				</g>
				<g>
					<defs>
						<path id="SVGID_224_" d="M19.5,0.1H338c3.3,0,6.1,2.7,6.1,6v166c0,3.3-2.7,6-6.1,6H19.5c-3.3,0-6.1-2.7-6.1-6V6.1
							C13.4,2.8,16.1,0.1,19.5,0.1z"/>
					</defs>
					<defs>
						<path id="SVGID_225_" d="M19.5,0.2H338c3.2,0,6,2.6,6,5.9v166c0,3.2-2.6,5.9-6,5.9H19.5c-3.2,0-6-2.6-6-5.9V6.1
							C13.5,2.9,16.2,0.2,19.5,0.2z"/>
					</defs>
					<clipPath id="SVGID_226_">
						<use xlink:href="#SVGID_224_"  style="overflow:visible;"/>
					</clipPath>
					<clipPath id="SVGID_227_" class="st115">
						<use xlink:href="#SVGID_225_"  style="overflow:visible;"/>
					</clipPath>
					<rect x="22.1" y="65" class="st116" width="4" height="134.5"/>
				</g>
				<g>
					<defs>
						<path id="SVGID_228_" d="M19.5,0.1H338c3.3,0,6.1,2.7,6.1,6v166c0,3.3-2.7,6-6.1,6H19.5c-3.3,0-6.1-2.7-6.1-6V6.1
							C13.4,2.8,16.1,0.1,19.5,0.1z"/>
					</defs>
					<defs>
						<path id="SVGID_229_" d="M19.5,0.2H338c3.2,0,6,2.6,6,5.9v166c0,3.2-2.6,5.9-6,5.9H19.5c-3.2,0-6-2.6-6-5.9V6.1
							C13.5,2.9,16.2,0.2,19.5,0.2z"/>
					</defs>
					<clipPath id="SVGID_230_">
						<use xlink:href="#SVGID_228_"  style="overflow:visible;"/>
					</clipPath>
					<clipPath id="SVGID_231_" class="st117">
						<use xlink:href="#SVGID_229_"  style="overflow:visible;"/>
					</clipPath>
					<rect x="30.1" y="44" class="st118" width="4" height="134.5"/>
				</g>
				<g>
					<defs>
						<path id="SVGID_232_" d="M19.5,0.1H338c3.3,0,6.1,2.7,6.1,6v166c0,3.3-2.7,6-6.1,6H19.5c-3.3,0-6.1-2.7-6.1-6V6.1
							C13.4,2.8,16.1,0.1,19.5,0.1z"/>
					</defs>
					<defs>
						<path id="SVGID_233_" d="M19.5,0.2H338c3.2,0,6,2.6,6,5.9v166c0,3.2-2.6,5.9-6,5.9H19.5c-3.2,0-6-2.6-6-5.9V6.1
							C13.5,2.9,16.2,0.2,19.5,0.2z"/>
					</defs>
					<clipPath id="SVGID_234_">
						<use xlink:href="#SVGID_232_"  style="overflow:visible;"/>
					</clipPath>
					<clipPath id="SVGID_235_" class="st119">
						<use xlink:href="#SVGID_233_"  style="overflow:visible;"/>
					</clipPath>
					<rect x="38" y="58" class="st120" width="4" height="134.5"/>
				</g>
				<g>
					<defs>
						<path id="SVGID_236_" d="M19.5,0.1H338c3.3,0,6.1,2.7,6.1,6v166c0,3.3-2.7,6-6.1,6H19.5c-3.3,0-6.1-2.7-6.1-6V6.1
							C13.4,2.8,16.1,0.1,19.5,0.1z"/>
					</defs>
					<defs>
						<path id="SVGID_237_" d="M19.5,0.2H338c3.2,0,6,2.6,6,5.9v166c0,3.2-2.6,5.9-6,5.9H19.5c-3.2,0-6-2.6-6-5.9V6.1
							C13.5,2.9,16.2,0.2,19.5,0.2z"/>
					</defs>
					<clipPath id="SVGID_238_">
						<use xlink:href="#SVGID_236_"  style="overflow:visible;"/>
					</clipPath>
					<clipPath id="SVGID_239_" class="st121">
						<use xlink:href="#SVGID_237_"  style="overflow:visible;"/>
					</clipPath>
					<rect x="46" y="44" class="st122" width="4" height="134.5"/>
				</g>
				<g>
					<defs>
						<path id="SVGID_240_" d="M19.5,0.1H338c3.3,0,6.1,2.7,6.1,6v166c0,3.3-2.7,6-6.1,6H19.5c-3.3,0-6.1-2.7-6.1-6V6.1
							C13.4,2.8,16.1,0.1,19.5,0.1z"/>
					</defs>
					<defs>
						<path id="SVGID_241_" d="M19.5,0.2H338c3.2,0,6,2.6,6,5.9v166c0,3.2-2.6,5.9-6,5.9H19.5c-3.2,0-6-2.6-6-5.9V6.1
							C13.5,2.9,16.2,0.2,19.5,0.2z"/>
					</defs>
					<clipPath id="SVGID_242_">
						<use xlink:href="#SVGID_240_"  style="overflow:visible;"/>
					</clipPath>
					<clipPath id="SVGID_243_" class="st123">
						<use xlink:href="#SVGID_241_"  style="overflow:visible;"/>
					</clipPath>
					<rect x="61.9" y="58" class="st124" width="4" height="134.5"/>
				</g>
				<g>
					<defs>
						<path id="SVGID_244_" d="M19.5,0.1H338c3.3,0,6.1,2.7,6.1,6v166c0,3.3-2.7,6-6.1,6H19.5c-3.3,0-6.1-2.7-6.1-6V6.1
							C13.4,2.8,16.1,0.1,19.5,0.1z"/>
					</defs>
					<defs>
						<path id="SVGID_245_" d="M19.5,0.2H338c3.2,0,6,2.6,6,5.9v166c0,3.2-2.6,5.9-6,5.9H19.5c-3.2,0-6-2.6-6-5.9V6.1
							C13.5,2.9,16.2,0.2,19.5,0.2z"/>
					</defs>
					<clipPath id="SVGID_246_">
						<use xlink:href="#SVGID_244_"  style="overflow:visible;"/>
					</clipPath>
					<clipPath id="SVGID_247_" class="st125">
						<use xlink:href="#SVGID_245_"  style="overflow:visible;"/>
					</clipPath>
					<rect x="69.8" y="56" class="st126" width="4" height="134.5"/>
				</g>
				<g>
					<defs>
						<path id="SVGID_248_" d="M19.5,0.1H338c3.3,0,6.1,2.7,6.1,6v166c0,3.3-2.7,6-6.1,6H19.5c-3.3,0-6.1-2.7-6.1-6V6.1
							C13.4,2.8,16.1,0.1,19.5,0.1z"/>
					</defs>
					<defs>
						<path id="SVGID_249_" d="M19.5,0.2H338c3.2,0,6,2.6,6,5.9v166c0,3.2-2.6,5.9-6,5.9H19.5c-3.2,0-6-2.6-6-5.9V6.1
							C13.5,2.9,16.2,0.2,19.5,0.2z"/>
					</defs>
					<clipPath id="SVGID_250_">
						<use xlink:href="#SVGID_248_"  style="overflow:visible;"/>
					</clipPath>
					<clipPath id="SVGID_251_" class="st127">
						<use xlink:href="#SVGID_249_"  style="overflow:visible;"/>
					</clipPath>
					<rect x="85.7" y="44" class="st128" width="4" height="134.5"/>
				</g>
				<g>
					<defs>
						<path id="SVGID_252_" d="M19.5,0.1H338c3.3,0,6.1,2.7,6.1,6v166c0,3.3-2.7,6-6.1,6H19.5c-3.3,0-6.1-2.7-6.1-6V6.1
							C13.4,2.8,16.1,0.1,19.5,0.1z"/>
					</defs>
					<defs>
						<path id="SVGID_253_" d="M19.5,0.2H338c3.2,0,6,2.6,6,5.9v166c0,3.2-2.6,5.9-6,5.9H19.5c-3.2,0-6-2.6-6-5.9V6.1
							C13.5,2.9,16.2,0.2,19.5,0.2z"/>
					</defs>
					<clipPath id="SVGID_254_">
						<use xlink:href="#SVGID_252_"  style="overflow:visible;"/>
					</clipPath>
					<clipPath id="SVGID_255_" class="st129">
						<use xlink:href="#SVGID_253_"  style="overflow:visible;"/>
					</clipPath>
					<rect x="101.6" y="65" class="st130" width="4" height="134.5"/>
				</g>
				<g>
					<defs>
						<path id="SVGID_256_" d="M19.5,0.1H338c3.3,0,6.1,2.7,6.1,6v166c0,3.3-2.7,6-6.1,6H19.5c-3.3,0-6.1-2.7-6.1-6V6.1
							C13.4,2.8,16.1,0.1,19.5,0.1z"/>
					</defs>
					<defs>
						<path id="SVGID_257_" d="M19.5,0.2H338c3.2,0,6,2.6,6,5.9v166c0,3.2-2.6,5.9-6,5.9H19.5c-3.2,0-6-2.6-6-5.9V6.1
							C13.5,2.9,16.2,0.2,19.5,0.2z"/>
					</defs>
					<clipPath id="SVGID_258_">
						<use xlink:href="#SVGID_256_"  style="overflow:visible;"/>
					</clipPath>
					<clipPath id="SVGID_259_" class="st131">
						<use xlink:href="#SVGID_257_"  style="overflow:visible;"/>
					</clipPath>
					<rect x="109.6" y="44" class="st132" width="4" height="134.5"/>
				</g>
				<g>
					<defs>
						<path id="SVGID_260_" d="M19.5,0.1H338c3.3,0,6.1,2.7,6.1,6v166c0,3.3-2.7,6-6.1,6H19.5c-3.3,0-6.1-2.7-6.1-6V6.1
							C13.4,2.8,16.1,0.1,19.5,0.1z"/>
					</defs>
					<defs>
						<path id="SVGID_261_" d="M19.5,0.2H338c3.2,0,6,2.6,6,5.9v166c0,3.2-2.6,5.9-6,5.9H19.5c-3.2,0-6-2.6-6-5.9V6.1
							C13.5,2.9,16.2,0.2,19.5,0.2z"/>
					</defs>
					<clipPath id="SVGID_262_">
						<use xlink:href="#SVGID_260_"  style="overflow:visible;"/>
					</clipPath>
					<clipPath id="SVGID_263_" class="st133">
						<use xlink:href="#SVGID_261_"  style="overflow:visible;"/>
					</clipPath>
					<rect x="117.5" y="58" class="st134" width="4" height="134.5"/>
				</g>
				<g>
					<defs>
						<path id="SVGID_264_" d="M19.5,0.1H338c3.3,0,6.1,2.7,6.1,6v166c0,3.3-2.7,6-6.1,6H19.5c-3.3,0-6.1-2.7-6.1-6V6.1
							C13.4,2.8,16.1,0.1,19.5,0.1z"/>
					</defs>
					<defs>
						<path id="SVGID_265_" d="M19.5,0.2H338c3.2,0,6,2.6,6,5.9v166c0,3.2-2.6,5.9-6,5.9H19.5c-3.2,0-6-2.6-6-5.9V6.1
							C13.5,2.9,16.2,0.2,19.5,0.2z"/>
					</defs>
					<clipPath id="SVGID_266_">
						<use xlink:href="#SVGID_264_"  style="overflow:visible;"/>
					</clipPath>
					<clipPath id="SVGID_267_" class="st135">
						<use xlink:href="#SVGID_265_"  style="overflow:visible;"/>
					</clipPath>
					<rect x="125.5" y="44" class="st136" width="4" height="134.5"/>
				</g>
				<g>
					<defs>
						<path id="SVGID_268_" d="M19.5,0.1H338c3.3,0,6.1,2.7,6.1,6v166c0,3.3-2.7,6-6.1,6H19.5c-3.3,0-6.1-2.7-6.1-6V6.1
							C13.4,2.8,16.1,0.1,19.5,0.1z"/>
					</defs>
					<defs>
						<path id="SVGID_269_" d="M19.5,0.2H338c3.2,0,6,2.6,6,5.9v166c0,3.2-2.6,5.9-6,5.9H19.5c-3.2,0-6-2.6-6-5.9V6.1
							C13.5,2.9,16.2,0.2,19.5,0.2z"/>
					</defs>
					<clipPath id="SVGID_270_">
						<use xlink:href="#SVGID_268_"  style="overflow:visible;"/>
					</clipPath>
					<clipPath id="SVGID_271_" class="st137">
						<use xlink:href="#SVGID_269_"  style="overflow:visible;"/>
					</clipPath>
					<rect x="53.9" y="58" class="st138" width="4" height="134.5"/>
				</g>
				<g>
					<defs>
						<path id="SVGID_272_" d="M19.5,0.1H338c3.3,0,6.1,2.7,6.1,6v166c0,3.3-2.7,6-6.1,6H19.5c-3.3,0-6.1-2.7-6.1-6V6.1
							C13.4,2.8,16.1,0.1,19.5,0.1z"/>
					</defs>
					<defs>
						<path id="SVGID_273_" d="M19.5,0.2H338c3.2,0,6,2.6,6,5.9v166c0,3.2-2.6,5.9-6,5.9H19.5c-3.2,0-6-2.6-6-5.9V6.1
							C13.5,2.9,16.2,0.2,19.5,0.2z"/>
					</defs>
					<clipPath id="SVGID_274_">
						<use xlink:href="#SVGID_272_"  style="overflow:visible;"/>
					</clipPath>
					<clipPath id="SVGID_275_" class="st139">
						<use xlink:href="#SVGID_273_"  style="overflow:visible;"/>
					</clipPath>
					<rect x="93.7" y="56" class="st140" width="4" height="134.5"/>
				</g>
				<g>
					<defs>
						<path id="SVGID_276_" d="M19.5,0.1H338c3.3,0,6.1,2.7,6.1,6v166c0,3.3-2.7,6-6.1,6H19.5c-3.3,0-6.1-2.7-6.1-6V6.1
							C13.4,2.8,16.1,0.1,19.5,0.1z"/>
					</defs>
					<defs>
						<path id="SVGID_277_" d="M19.5,0.2H338c3.2,0,6,2.6,6,5.9v166c0,3.2-2.6,5.9-6,5.9H19.5c-3.2,0-6-2.6-6-5.9V6.1
							C13.5,2.9,16.2,0.2,19.5,0.2z"/>
					</defs>
					<clipPath id="SVGID_278_">
						<use xlink:href="#SVGID_276_"  style="overflow:visible;"/>
					</clipPath>
					<clipPath id="SVGID_279_" class="st141">
						<use xlink:href="#SVGID_277_"  style="overflow:visible;"/>
					</clipPath>
					<rect x="77.8" y="44" class="st142" width="4" height="134.5"/>
				</g>
			</g>
		</g>
		<g>
			<g class="st100">
				<path class="st70" d="M4.3,32.1c0.2,0.1,0.7,0.3,1.1,0.3c0.8,0,1.3-0.6,1.3-1.6c0-1-0.6-1.6-1.6-1.6H4.9v-0.7h0.2
					c0.6,0,1.4-0.4,1.4-1.4c0-0.8-0.4-1.2-1-1.2c-0.4,0-0.7,0.2-1,0.4l-0.2-0.7c0.3-0.2,0.8-0.4,1.4-0.4c1.1,0,1.7,0.8,1.7,1.8
					c0,0.8-0.4,1.5-1.2,1.8v0c0.7,0.2,1.4,0.8,1.4,2c0,1.3-0.8,2.3-2.2,2.3c-0.5,0-1.1-0.1-1.4-0.4L4.3,32.1z"/>
			</g>
			<g class="st100">
				<path class="st70" d="M4.1,92.4v-0.6l0.7-0.9c0.9-1.3,2-2.7,2-4.2c0-0.9-0.4-1.4-1.1-1.4c-0.6,0-0.9,0.3-1.1,0.4L4.3,85
					c0.3-0.2,0.8-0.5,1.5-0.5c1.3,0,1.9,1,1.9,2.1c0,1.5-1,2.9-1.9,4.2l-0.5,0.7v0h2.6v0.8H4.1z"/>
			</g>
			<g class="st100">
				<path class="st70" d="M6,144.9L6,144.9l-1.3,0.7l-0.2-0.7l1.6-1h0.8v7.8H6V144.9z"/>
			</g>
		</g>
	</g>
</g>
<g id="Layer_5" class="st0">
	<g class="st2">
		<g class="st143">
			<g>
				<path id="SVGID_2_" class="st144" d="M20.5,0.1H338c3.3,0,6.1,2.7,6.1,6v166c0,3.3-2.7,6-6.1,6H20.5c-3.3,0-6.1-2.7-6.1-6V6.1
					C14.4,2.8,17.2,0.1,20.5,0.1z"/>
			</g>
			<g>
				<path id="SVGID_1_" class="st144" d="M19.4,0.2h317.5c3.2,0,6,2.6,6,5.9v166c0,3.2-2.6,5.9-6,5.9H19.4c-3.2,0-6-2.6-6-5.9V6.1
					C13.4,2.9,16.1,0.2,19.4,0.2z"/>
			</g>
			<g>
				<defs>
					<path id="SVGID_280_" d="M20.5,0.1H338c3.3,0,6.1,2.7,6.1,6v166c0,3.3-2.7,6-6.1,6H20.5c-3.3,0-6.1-2.7-6.1-6V6.1
						C14.4,2.8,17.2,0.1,20.5,0.1z"/>
				</defs>
				<clipPath id="SVGID_281_">
					<use xlink:href="#SVGID_280_"  style="overflow:visible;"/>
				</clipPath>
			</g>
		</g>
		<g>
			<path class="st70" d="M91.3,76.8h4.9v6.3L96,86.4c0.8-0.8,1.7-1.4,2.6-1.9s1.9-0.7,3-0.7c1.9,0,3.3,0.6,4.1,1.9
				c0.9,1.2,1.4,3,1.4,5.3v11.1h-4.9V91.6c0-1.3-0.2-2.2-0.6-2.8c-0.4-0.5-1-0.8-1.8-0.8c-0.7,0-1.3,0.1-1.8,0.4s-1.1,0.8-1.8,1.4
				V102h-4.9C91.3,102,91.3,76.8,91.3,76.8z M112.1,84.3h4l0.4,3.1h0.1c0.6-1.2,1.4-2,2.3-2.6s1.8-0.9,2.8-0.9
				c0.8,0,1.5,0.1,2.1,0.4l-0.8,4.2c-0.1,0-0.3-0.1-0.6-0.1c-0.4-0.1-0.8-0.1-1.2-0.1c-0.8,0-1.5,0.3-2.2,0.8s-1.3,1.4-1.8,2.6v10.5
				h-4.9V84.3H112.1z M149.5,96.4c5-4.8,8.8-8.5,11.4-11.2c2.6-2.7,4.8-5.4,6.3-7.8s2.4-4.8,2.4-6.9c0-2.3-0.6-4-1.8-5.3
				c-1.2-1.3-2.9-1.9-5-1.9c-1.5,0-3,0.4-4.3,1.3s-2.7,2-4,3.5l-5.4-5.3c2.3-2.4,4.6-4.2,6.9-5.4c2.4-1.2,5.1-1.8,8.2-1.8
				c4.5,0,8.1,1.3,10.8,4c2.7,2.6,4.1,6.1,4.1,10.4c0,3.6-1.3,7.2-4,11.1c-2.6,3.8-6.4,8.3-11.4,13.4c2.8-0.3,5.4-0.5,7.7-0.5h9.9
				v8.3h-31.8V96.4z M204,103c-3.3,0-6.1-0.9-8.6-2.7c-2.4-1.9-4.3-4.6-5.6-8.2s-1.9-7.9-1.9-13c0-7.6,1.4-13.4,4.3-17.4
				c2.9-4.1,6.8-6.1,11.8-6.1c4.9,0,8.9,2,11.7,6.1c2.9,4,4.3,9.8,4.3,17.4c0,5.1-0.7,9.4-2,13s-3.1,6.3-5.5,8.2
				C210.1,102.1,207.3,103,204,103z M204,95.4c2.1,0,3.8-1.2,5-3.7s1.8-6.7,1.8-12.7c0-5.9-0.6-10-1.8-12.3c-1.2-2.4-2.9-3.6-5-3.6
				c-2.2,0-3.8,1.2-5,3.5c-1.2,2.4-1.7,6.5-1.7,12.4c0,6,0.6,10.2,1.8,12.7C200.2,94.1,201.9,95.4,204,95.4z M226,84.3h4l0.4,2.3
				h0.1c0.9-0.9,1.7-1.6,2.6-2.1s1.8-0.7,2.8-0.7c1.2,0,2.3,0.3,3.1,0.8s1.4,1.3,1.9,2.3c0.9-1,1.8-1.7,2.7-2.2
				c0.9-0.6,1.9-0.8,2.9-0.8c1.9,0,3.3,0.6,4.2,1.9c0.9,1.2,1.4,3,1.4,5.3v11.1h-4.9V91.6c0-1.3-0.2-2.2-0.6-2.7
				c-0.4-0.6-1-0.8-1.8-0.8c-1,0-2.1,0.6-3.3,1.9v12.2h-5V91.6c0-1.3-0.2-2.2-0.6-2.7c-0.4-0.6-1-0.8-1.8-0.8c-1,0-2.1,0.6-3.3,1.9
				v12.2h-4.9V84.3H226z M257,84.3h4.9v17.8H257V84.3z M259.5,81.5c-0.8,0-1.5-0.2-2-0.7s-0.8-1.1-0.8-1.9s0.3-1.4,0.8-1.9
				s1.2-0.8,2-0.8c0.8,0,1.5,0.3,2,0.8s0.8,1.1,0.8,1.9s-0.3,1.4-0.8,1.9S260.3,81.5,259.5,81.5z M267.2,84.3h4l0.4,2.3h0.1
				c0.9-0.8,1.8-1.5,2.7-2c0.9-0.5,2-0.8,3.1-0.8c1.9,0,3.3,0.6,4.1,1.9c0.9,1.2,1.4,3,1.4,5.3v11.1h-4.9V91.6
				c0-1.3-0.2-2.2-0.6-2.8c-0.4-0.5-1-0.8-1.8-0.8c-0.7,0-1.3,0.1-1.8,0.4s-1.1,0.8-1.8,1.4V102h-4.9L267.2,84.3L267.2,84.3z
				 M293.2,102.6c-1.2,0-2.4-0.2-3.6-0.7s-2.3-1.1-3.2-1.8l2.2-3.1c0.8,0.6,1.6,1.1,2.4,1.4s1.5,0.5,2.3,0.5s1.4-0.1,1.8-0.4
				s0.6-0.7,0.6-1.3c0-0.4-0.2-0.7-0.5-1s-0.8-0.6-1.4-0.8c-0.6-0.3-1.2-0.5-1.8-0.8c-1.4-0.6-2.6-1.2-3.5-2s-1.3-1.9-1.3-3.2
				c0-1.6,0.6-3,1.8-4c1.2-1,2.8-1.5,4.9-1.5c2.2,0,4.3,0.7,6.2,2.2l-2.2,3c-1.4-1-2.7-1.5-3.8-1.5c-0.7,0-1.3,0.1-1.7,0.4
				c-0.4,0.3-0.5,0.7-0.5,1.2s0.2,0.9,0.7,1.2c0.5,0.3,1,0.5,1.7,0.8s1,0.4,1.2,0.4c1.5,0.6,2.7,1.2,3.6,2s1.3,1.9,1.3,3.3
				c0,1.1-0.3,2.1-0.9,2.9s-1.4,1.5-2.4,2C296,102.3,294.7,102.6,293.2,102.6z"/>
			<text transform="matrix(1 0 0 1 57.1517 102.1484)" class="st70 st145 st146">1</text>
		</g>
	</g>
</g>
</svg>
